<?xml version="1.0" standalone="no"?>
<!DOCTYPE svg PUBLIC "-//W3C//DTD SVG 20010904//EN"
 "http://www.w3.org/TR/2001/REC-SVG-20010904/DTD/svg10.dtd">
<svg version="1.0" xmlns="http://www.w3.org/2000/svg"
 width="900.000000pt" height="1000.000000pt" viewBox="0 0 900.000000 1000.000000"
 preserveAspectRatio="xMidYMid meet">

<g transform="translate(0.000000,1000.000000) scale(0.100000,-0.100000)"
fill="#000000" stroke="none">
<path d="M1840 9652 l0 -39 101 4 c84 3 334 -16 549 -42 19 -2 80 -9 135 -15
55 -6 116 -13 135 -15 19 -2 78 -7 130 -10 52 -4 111 -11 130 -15 55 -15 233
-15 259 0 39 20 190 41 304 41 59 0 107 4 107 8 0 3 11 8 26 9 16 1 23 -2 18
-9 -5 -8 14 -10 62 -8 62 3 103 0 269 -17 28 -3 100 -13 160 -21 61 -9 164
-18 230 -21 151 -5 370 15 386 35 7 8 15 10 18 5 3 -5 69 -12 146 -15 191 -8
283 -20 595 -78 116 -22 171 -37 138 -38 -9 -1 -25 -4 -35 -7 -15 -5 -16 -4
-3 6 12 9 10 11 -12 7 -15 -2 -25 -1 -23 3 2 4 -19 11 -48 15 -92 12 -121 16
-157 19 -19 2 -35 4 -35 6 0 1 -10 3 -22 4 -13 2 -23 -1 -23 -6 0 -7 25 -12
58 -11 6 1 12 -3 12 -9 0 -5 4 -7 8 -4 5 3 29 -1 54 -9 26 -7 50 -10 54 -7 4
4 5 2 1 -3 -5 -10 -28 -9 -234 9 -24 2 -43 0 -43 -5 0 -5 15 -10 33 -10 17 -1
41 -3 52 -4 11 -1 47 -5 80 -9 33 -3 71 -9 85 -12 14 -3 45 -7 69 -10 83 -7
55 -14 -43 -10 -53 2 -94 1 -91 -2 3 -4 23 -7 43 -8 84 -3 138 -8 147 -13 6
-3 24 -7 40 -8 17 0 30 -2 30 -3 0 -1 9 -3 19 -5 11 -2 31 -6 44 -10 18 -4 22
-3 16 7 -6 10 -5 11 7 1 23 -19 59 -12 60 12 1 16 2 17 6 3 2 -10 16 -21 30
-24 18 -5 21 -9 11 -15 -7 -5 -22 -6 -33 -4 -11 3 -14 2 -7 -1 6 -3 9 -10 6
-16 -4 -6 5 -8 22 -6 26 3 28 7 29 41 0 22 -3 41 -8 44 -4 2 -5 9 -1 14 4 7
-10 10 -37 8 -69 -3 -77 1 -34 17 22 8 50 12 62 9 12 -3 24 -1 27 3 6 10 100
20 261 28 61 3 125 10 144 16 19 6 70 11 113 13 49 1 83 6 91 15 10 10 7 11
-13 5 -14 -4 -38 -9 -55 -11 -16 -2 8 7 55 21 47 14 108 31 135 39 28 8 112
27 188 42 134 27 137 28 137 53 0 29 7 28 -103 17 -21 -2 -44 -9 -51 -15 -7
-6 -21 -9 -30 -5 -9 3 -22 1 -30 -5 -7 -6 -21 -8 -30 -5 -9 4 -24 0 -34 -9 -9
-8 -45 -18 -80 -22 -34 -4 -65 -11 -68 -16 -3 -5 -18 -9 -35 -9 -16 0 -29 -5
-29 -11 0 -7 -10 -9 -25 -7 -15 3 -30 -1 -37 -9 -7 -9 -21 -12 -34 -9 -13 4
-26 2 -29 -4 -3 -5 -19 -10 -34 -10 -18 0 -34 -8 -43 -22 -12 -18 -18 -20 -29
-12 -24 19 -73 23 -90 8 -14 -12 -18 -12 -28 -1 -12 15 -96 12 -117 -4 -5 -4
-19 -6 -31 -3 -11 3 -26 -1 -34 -8 -8 -9 -36 -15 -68 -15 -41 -1 -58 -5 -69
-19 -10 -14 -16 -15 -19 -6 -5 14 -67 44 -96 47 -10 1 -23 7 -29 13 -6 6 -17
8 -24 5 -8 -3 -20 0 -27 5 -7 6 -22 11 -32 10 -11 0 -42 5 -70 10 -30 6 -51 7
-53 1 -6 -16 -31 -10 -42 10 -6 13 -17 17 -30 14 -11 -3 -26 0 -34 6 -7 6 -21
9 -30 5 -9 -3 -23 -1 -30 6 -11 8 -20 8 -34 1 -14 -7 -24 -7 -38 4 -13 9 -23
10 -31 3 -9 -7 -17 -7 -27 1 -11 9 -19 9 -36 -1 -17 -11 -22 -11 -30 1 -12 21
-101 23 -115 4 -10 -13 -14 -13 -29 3 -15 14 -22 15 -37 5 -11 -6 -25 -8 -32
-4 -25 15 -92 9 -106 -11 -13 -17 -15 -18 -26 -2 -11 14 -19 15 -66 5 -30 -6
-64 -11 -76 -10 -12 0 -25 -4 -28 -9 -4 -6 -11 -8 -16 -4 -16 10 -183 12 -195
3 -7 -6 -16 -4 -23 5 -6 8 -21 12 -31 9 -11 -3 -26 0 -34 6 -7 6 -21 9 -29 5
-9 -3 -22 -2 -29 2 -7 5 -24 10 -38 11 -14 1 -55 3 -91 6 -37 2 -72 8 -79 12
-6 4 -20 -1 -30 -10 -19 -17 -40 -13 -40 8 0 13 -282 18 -295 5 -4 -4 -16 -3
-27 3 -15 8 -24 7 -37 -5 -22 -20 -37 -20 -45 0 -5 13 -9 14 -21 4 -8 -6 -20
-8 -27 -4 -21 13 -92 4 -105 -13 -10 -13 -15 -14 -27 -4 -11 9 -20 10 -36 1
-11 -6 -24 -9 -29 -6 -5 3 -16 -3 -26 -14 -13 -15 -21 -17 -31 -9 -9 8 -16 5
-25 -12 -10 -20 -13 -21 -23 -7 -6 8 -16 13 -21 11 -6 -2 -39 0 -72 5 -38 5
-68 5 -79 -1 -12 -7 -20 -6 -28 4 -10 13 -39 18 -113 18 -18 0 -33 4 -33 8 0
4 -29 7 -65 7 -36 -1 -68 3 -71 7 -3 5 -14 4 -25 -1 -13 -7 -25 -7 -38 -1 -10
6 -45 13 -77 16 -33 4 -75 8 -94 11 -19 2 -62 6 -95 8 -33 1 -71 6 -84 10 -17
6 -26 4 -33 -8 -11 -20 -34 -21 -41 -2 -9 23 -209 45 -233 25 -12 -9 -19 -9
-38 1 -13 7 -48 13 -77 14 -30 1 -60 5 -66 9 -10 6 -13 -2 -13 -31z m4003
-309 c-7 -2 -19 -2 -25 0 -7 3 -2 5 12 5 14 0 19 -2 13 -5z m87 -3 c0 -5 -4
-10 -9 -10 -6 0 -13 5 -16 10 -3 6 1 10 9 10 9 0 16 -4 16 -10z"/>
<path d="M1913 9593 c20 -2 54 -2 75 0 20 2 3 4 -38 4 -41 0 -58 -2 -37 -4z"/>
<path d="M3788 9543 c6 -2 18 -2 25 0 6 3 1 5 -13 5 -14 0 -19 -2 -12 -5z"/>
<path d="M6798 9543 c7 -3 16 -2 19 1 4 3 -2 6 -13 5 -11 0 -14 -3 -6 -6z"/>
<path d="M3958 9533 c12 -2 30 -2 40 0 9 3 -1 5 -23 4 -22 0 -30 -2 -17 -4z"/>
<path d="M4178 9513 c6 -2 18 -2 25 0 6 3 1 5 -13 5 -14 0 -19 -2 -12 -5z"/>
<path d="M4963 9513 c9 -2 25 -2 35 0 9 3 1 5 -18 5 -19 0 -27 -2 -17 -5z"/>
<path d="M3010 9500 c0 -5 12 -10 28 -9 24 0 25 1 7 9 -27 12 -35 12 -35 0z"/>
<path d="M4228 9503 c6 -2 18 -2 25 0 6 3 1 5 -13 5 -14 0 -19 -2 -12 -5z"/>
<path d="M6615 9500 c-13 -5 -14 -9 -5 -9 8 0 24 4 35 9 13 5 14 9 5 9 -8 0
-24 -4 -35 -9z"/>
<path d="M3128 9493 c7 -3 16 -2 19 1 4 3 -2 6 -13 5 -11 0 -14 -3 -6 -6z"/>
<path d="M4290 9496 c0 -9 30 -14 35 -6 4 6 -3 10 -14 10 -12 0 -21 -2 -21 -4z"/>
<path d="M5255 9429 c-4 -5 -4 -13 -1 -16 3 -4 6 0 6 8 0 11 2 11 10 -1 6 -9
10 -10 10 -3 0 17 -17 25 -25 12z"/>
<path d="M5218 9423 c7 -3 16 -2 19 1 4 3 -2 6 -13 5 -11 0 -14 -3 -6 -6z"/>
<path d="M6073 9413 c9 -2 23 -2 30 0 6 3 -1 5 -18 5 -16 0 -22 -2 -12 -5z"/>
<path d="M4110 9377 c0 -10 8 -17 18 -17 9 0 13 4 7 8 -5 4 -13 11 -17 16 -5
5 -8 2 -8 -7z"/>
<path d="M5328 9323 c6 -2 18 -2 25 0 6 3 1 5 -13 5 -14 0 -19 -2 -12 -5z"/>
<path d="M5706 9311 c5 -5 45 -11 89 -14 71 -5 74 -5 25 3 -105 18 -123 19
-114 11z"/>
<path d="M4110 9302 c0 -5 7 -9 15 -9 8 0 12 4 9 9 -3 4 -9 8 -15 8 -5 0 -9
-4 -9 -8z"/>
<path d="M6941 9294 c0 -11 3 -14 6 -6 3 7 2 16 -1 19 -3 4 -6 -2 -5 -13z"/>
<path d="M5168 9293 c6 -2 18 -2 25 0 6 3 1 5 -13 5 -14 0 -19 -2 -12 -5z"/>
<path d="M5218 9293 c7 -3 16 -2 19 1 4 3 -2 6 -13 5 -11 0 -14 -3 -6 -6z"/>
<path d="M5278 9293 c7 -3 16 -2 19 1 4 3 -2 6 -13 5 -11 0 -14 -3 -6 -6z"/>
<path d="M5742 9286 c4 -5 3 -15 -2 -21 -7 -9 -3 -12 15 -11 13 1 27 5 30 9 3
4 2 5 -2 2 -3 -3 -16 3 -27 12 -12 10 -18 14 -14 9z"/>
<path d="M4726 9261 c8 -9 44 -11 44 -3 0 4 -11 8 -25 8 -13 0 -22 -2 -19 -5z"/>
<path d="M5188 9263 c7 -3 16 -2 19 1 4 3 -2 6 -13 5 -11 0 -14 -3 -6 -6z"/>
<path d="M5801 9257 c-8 -10 -7 -14 2 -14 8 0 14 6 14 14 0 7 -1 13 -2 13 -2
0 -8 -6 -14 -13z"/>
<path d="M2992 9240 c0 -14 2 -19 5 -12 2 6 2 18 0 25 -3 6 -5 1 -5 -13z"/>
<path d="M5929 9251 c11 -7 10 -10 -5 -14 -14 -3 -11 -5 8 -6 20 -1 26 3 22
14 -4 8 -14 15 -23 15 -13 0 -13 -2 -2 -9z"/>
<path d="M4058 9233 c6 -2 18 -2 25 0 6 3 1 5 -13 5 -14 0 -19 -2 -12 -5z"/>
<path d="M4108 9233 c6 -2 18 -2 25 0 6 3 1 5 -13 5 -14 0 -19 -2 -12 -5z"/>
<path d="M4150 9236 c0 -2 7 -6 15 -10 8 -3 15 -1 15 4 0 6 -7 10 -15 10 -8 0
-15 -2 -15 -4z"/>
<path d="M4195 9230 c-3 -5 -1 -10 4 -10 6 0 11 5 11 10 0 6 -2 10 -4 10 -3 0
-8 -4 -11 -10z"/>
<path d="M4722 9235 c8 -8 77 -9 85 -2 3 4 -15 7 -42 7 -27 0 -46 -2 -43 -5z"/>
<path d="M4848 9233 c6 -2 18 -2 25 0 6 3 1 5 -13 5 -14 0 -19 -2 -12 -5z"/>
<path d="M4928 9233 c7 -3 16 -2 19 1 4 3 -2 6 -13 5 -11 0 -14 -3 -6 -6z"/>
<path d="M5093 9233 c15 -2 37 -2 50 0 12 2 0 4 -28 4 -27 0 -38 -2 -22 -4z"/>
<path d="M5197 9233 c18 -2 50 -2 70 0 21 2 7 4 -32 4 -38 0 -55 -2 -38 -4z"/>
<path d="M5863 9233 c9 -2 23 -2 30 0 6 3 -1 5 -18 5 -16 0 -22 -2 -12 -5z"/>
<path d="M4228 9223 c6 -2 18 -2 25 0 6 3 1 5 -13 5 -14 0 -19 -2 -12 -5z"/>
<path d="M4590 9209 c-18 -5 -8 -8 35 -9 33 -1 63 -2 68 -1 4 0 7 -4 7 -9 0
-6 -11 -8 -25 -6 -14 3 -25 0 -25 -6 0 -5 6 -8 13 -5 6 2 21 0 32 -4 18 -8 18
-8 -4 -6 -14 1 -26 -4 -29 -12 -3 -9 0 -12 9 -9 8 3 23 2 34 -3 13 -5 -2 -8
-45 -8 -43 -1 -60 -4 -51 -10 14 -9 26 -45 13 -39 -4 2 -19 10 -34 17 -30 15
-60 9 -52 -11 2 -7 16 -21 29 -31 24 -17 24 -17 18 0 -4 10 -11 21 -17 25 -7
5 -7 8 2 8 7 0 22 -9 34 -20 15 -14 37 -20 72 -21 28 -1 74 -3 103 -4 50 -3
51 -2 43 20 -7 17 -5 25 6 29 8 3 14 1 14 -5 0 -6 4 -8 8 -5 4 2 9 -4 10 -15
4 -45 6 -50 16 -46 45 17 148 47 181 53 l40 8 -40 6 c-32 6 -27 7 30 7 39 0
88 3 111 7 32 5 41 3 41 -8 0 -8 -9 -14 -19 -13 -10 1 -18 5 -18 10 0 4 -6 5
-12 0 -7 -4 -23 -6 -35 -5 -11 2 -24 -1 -27 -7 -4 -6 4 -8 20 -5 14 3 23 1 20
-4 -3 -5 1 -9 9 -9 8 0 12 4 9 9 -3 4 -1 8 5 8 5 0 13 -5 16 -10 4 -6 11 -7
17 -4 6 4 20 8 32 8 11 1 20 7 18 14 -1 7 1 12 5 13 28 3 68 11 71 14 2 2 -40
4 -94 4 -53 0 -99 3 -102 6 -5 5 10 6 193 10 142 3 159 5 152 12 -13 12 -581
3 -589 -10 -6 -9 -8 -9 -8 1 0 6 -6 12 -14 12 -8 0 -18 4 -21 10 -3 5 0 7 8 4
8 -3 17 -2 20 3 3 4 -9 9 -25 10 -17 1 -35 9 -42 18 -8 12 -35 16 -111 18 -55
2 -111 0 -125 -4z m144 -17 c3 -5 -1 -9 -9 -9 -8 0 -12 4 -9 9 3 4 7 8 9 8 2
0 6 -4 9 -8z m81 -2 c3 -5 1 -10 -4 -10 -6 0 -11 5 -11 10 0 6 2 10 4 10 3 0
8 -4 11 -10z m-18 -26 c-3 -3 -12 -4 -19 -1 -8 3 -5 6 6 6 11 1 17 -2 13 -5z
m313 -40 c-84 -8 -180 -8 -180 -1 0 4 48 6 108 5 59 -1 91 -3 72 -4z m154 -29
c-4 -8 -10 -12 -15 -9 -11 6 -2 24 11 24 5 0 7 -7 4 -15z m-594 -9 c0 -2 -7
-6 -15 -10 -8 -3 -15 -1 -15 4 0 6 7 10 15 10 8 0 15 -2 15 -4z"/>
<path d="M5145 9210 l-120 -6 95 -3 c52 -2 98 -3 102 -3 3 1 56 2 118 3 61 0
109 3 107 6 -8 7 -172 8 -302 3z"/>
<path d="M5900 9211 c8 -6 18 -7 22 -5 4 3 8 0 8 -6 0 -6 5 -8 10 -5 17 11 1
25 -28 25 -20 0 -23 -3 -12 -9z"/>
<path d="M6778 9213 c7 -3 16 -2 19 1 4 3 -2 6 -13 5 -11 0 -14 -3 -6 -6z"/>
<path d="M4136 9198 c3 -4 12 -8 20 -8 8 0 14 4 14 8 0 4 -9 8 -19 8 -11 0
-17 -4 -15 -8z"/>
<path d="M4938 9203 c6 -2 18 -2 25 0 6 3 1 5 -13 5 -14 0 -19 -2 -12 -5z"/>
<path d="M4208 9193 c12 -2 30 -2 40 0 9 3 -1 5 -23 4 -22 0 -30 -2 -17 -4z"/>
<path d="M3878 9173 c7 -3 16 -2 19 1 4 3 -2 6 -13 5 -11 0 -14 -3 -6 -6z"/>
<path d="M3918 9173 c6 -2 18 -2 25 0 6 3 1 5 -13 5 -14 0 -19 -2 -12 -5z"/>
<path d="M3966 9169 c4 -7 44 0 44 7 0 2 -11 3 -24 2 -14 -1 -23 -5 -20 -9z"/>
<path d="M4110 9169 c0 -5 11 -9 25 -9 14 0 25 2 25 4 0 2 -11 6 -25 8 -14 3
-25 1 -25 -3z"/>
<path d="M4179 9169 c-10 -6 -7 -9 14 -9 29 0 35 5 14 13 -8 3 -20 1 -28 -4z"/>
<path d="M4910 9172 c0 -4 18 -6 40 -4 22 2 40 6 40 8 0 2 -18 4 -40 4 -22 0
-40 -3 -40 -8z"/>
<path d="M5004 9173 c7 -8 417 -6 424 2 3 3 -93 5 -213 5 -120 0 -215 -3 -211
-7z"/>
<path d="M5958 9173 c6 -2 9 -10 6 -15 -4 -7 -2 -8 4 -4 18 11 14 26 -5 25
-11 0 -13 -3 -5 -6z"/>
<path d="M4605 9160 c-4 -6 -4 -10 -1 -10 2 0 11 -3 20 -6 9 -3 16 -2 16 4 0
14 -28 23 -35 12z"/>
<path d="M5625 9160 l-70 -5 55 -5 c64 -6 120 -2 120 8 0 9 -9 9 -105 2z"/>
<path d="M3790 9140 c0 -5 4 -10 9 -10 6 0 13 5 16 10 3 6 -1 10 -9 10 -9 0
-16 -4 -16 -10z"/>
<path d="M4123 9133 c9 -2 25 -2 35 0 9 3 1 5 -18 5 -19 0 -27 -2 -17 -5z"/>
<path d="M4188 9133 c7 -3 16 -2 19 1 4 3 -2 6 -13 5 -11 0 -14 -3 -6 -6z"/>
<path d="M4228 9133 c6 -2 18 -2 25 0 6 3 1 5 -13 5 -14 0 -19 -2 -12 -5z"/>
<path d="M5725 9129 c-28 -7 -27 -7 8 -6 21 1 40 4 42 7 5 8 -12 8 -50 -1z"/>
<path d="M5618 9123 c6 -2 18 -2 25 0 6 3 1 5 -13 5 -14 0 -19 -2 -12 -5z"/>
<path d="M3006 9110 c13 -13 39 -16 44 -6 3 5 -8 10 -24 12 -16 2 -25 -1 -20
-6z"/>
<path d="M3655 9110 c17 -4 27 -8 23 -9 -4 0 -3 -14 1 -29 6 -20 4 -34 -6 -48
-15 -18 -15 -18 -10 4 7 28 -25 49 -42 28 -13 -15 -54 -10 -45 6 3 5 13 4 22
-4 15 -12 16 -11 3 5 -11 14 -11 17 0 17 12 0 12 2 1 9 -14 9 -70 5 -100 -7
-17 -7 -17 -8 0 -24 12 -12 18 -14 18 -5 0 8 4 7 10 -3 6 -10 10 -11 10 -2 0
6 4 12 10 12 5 0 7 -8 4 -17 -4 -13 -3 -14 3 -5 8 10 12 10 23 -3 11 -13 11
-16 0 -13 -7 2 -15 -3 -18 -11 -3 -9 0 -11 8 -6 9 6 9 3 0 -14 -11 -21 -10
-22 22 -18 18 2 32 9 31 15 -2 6 4 9 13 5 12 -4 14 0 9 20 -4 13 -2 28 3 31 6
3 8 -2 5 -12 -2 -10 3 -25 13 -33 11 -9 15 -9 10 -1 -9 15 6 16 21 1 12 -12
63 -2 63 13 0 5 5 6 10 3 6 -4 16 -2 23 3 7 6 28 12 48 15 20 2 47 12 62 22
14 9 32 13 39 9 10 -5 10 -4 1 6 -10 11 -17 11 -40 0 -49 -23 -61 -22 -59 5 1
17 7 25 19 25 9 0 17 4 17 9 0 17 -60 5 -76 -15 -8 -10 -12 -12 -8 -4 4 9 3
12 -2 7 -5 -5 -10 -13 -10 -18 -1 -5 -2 -13 -3 -19 0 -5 -8 -10 -16 -10 -8 0
-15 -5 -15 -11 0 -5 -4 -8 -9 -4 -5 3 -16 -4 -24 -15 -12 -17 -16 -18 -26 -6
-10 11 -8 17 6 25 10 6 12 11 6 11 -7 0 -13 7 -13 16 0 14 3 14 15 4 8 -7 15
-9 15 -4 0 5 5 2 10 -6 7 -12 9 -10 7 8 -1 16 -7 22 -22 20 -14 -2 -20 2 -19
15 1 13 -6 17 -35 16 l-36 -1 30 -8z m-79 -37 c-10 -10 -46 -11 -46 -1 0 4 12
8 27 8 14 0 23 -3 19 -7z"/>
<path d="M3906 9110 c-27 -9 -7 -18 24 -10 18 4 21 8 10 12 -8 3 -24 2 -34 -2z"/>
<path d="M4261 9113 c-1 -6 4 -15 9 -18 6 -4 8 -11 5 -16 -4 -5 -2 -9 3 -9 5
0 10 12 10 26 0 16 -3 21 -8 14 -6 -9 -9 -9 -13 1 -3 9 -6 10 -6 2z"/>
<path d="M5447 9099 c4 -13 14 -19 35 -19 23 0 29 4 24 16 -3 9 -6 19 -6 22 0
4 -5 0 -10 -8 -8 -12 -13 -13 -29 -3 -16 10 -18 9 -14 -8z"/>
<path d="M4220 9102 c8 -4 16 -14 18 -22 3 -12 1 -13 -9 -2 -7 6 -19 12 -27
12 -8 0 -10 -5 -6 -12 5 -9 2 -8 -9 1 -10 8 -20 11 -24 7 -3 -3 0 -6 8 -6 8 0
3 -6 -11 -13 -16 -8 -26 -23 -28 -40 -3 -26 -2 -27 43 -27 25 0 44 3 42 8 -3
4 42 8 100 9 59 1 110 6 118 13 9 8 15 8 20 0 5 -8 11 -8 21 1 10 8 14 8 14 0
0 -6 7 -11 15 -11 16 0 21 29 5 31 -13 2 -21 4 -40 12 -36 13 -72 14 -77 1 -3
-8 -10 -11 -17 -7 -6 4 -18 8 -26 8 -8 0 -14 6 -12 13 1 6 -3 12 -9 12 -6 0
-9 -7 -5 -15 3 -9 0 -15 -9 -15 -9 0 -12 6 -9 18 5 16 5 16 -6 0 -11 -18 -56
-26 -46 -9 11 17 -6 41 -28 40 -15 0 -17 -2 -6 -7z m210 -46 c0 -2 -8 -10 -17
-17 -16 -13 -17 -12 -4 4 13 16 21 21 21 13z m-189 -23 c13 -16 12 -17 -3 -4
-10 7 -18 15 -18 17 0 8 8 3 21 -13z"/>
<path d="M5410 9099 c0 -6 -4 -8 -9 -5 -5 3 -11 -1 -15 -9 -3 -8 -12 -12 -21
-9 -8 3 -15 2 -15 -4 0 -5 -13 -9 -28 -9 -23 1 -28 6 -25 22 4 20 4 20 -8 0
-7 -11 -17 -23 -23 -27 -18 -12 129 -1 153 11 25 14 27 27 6 35 -8 3 -15 1
-15 -5z"/>
<path d="M5562 9093 c2 -12 14 -18 36 -20 18 -2 31 1 27 6 -3 5 -18 8 -33 6
-15 -2 -21 -2 -14 1 17 8 15 24 -4 24 -9 0 -14 -7 -12 -17z"/>
<path d="M5602 9105 c9 -9 68 -14 68 -6 0 5 -16 9 -36 9 -19 0 -34 -2 -32 -3z"/>
<path d="M5684 9099 c-2 -4 0 -10 5 -13 11 -7 41 3 41 14 0 10 -40 9 -46 -1z"/>
<path d="M2970 9082 c0 -27 11 -34 28 -19 9 6 13 7 10 2 -4 -6 2 -16 13 -23
16 -10 20 -10 25 2 3 8 14 12 27 9 18 -3 16 -1 -6 12 -16 9 -31 14 -34 11 -3
-3 -12 1 -20 9 -20 21 -43 19 -43 -3z"/>
<path d="M3268 9088 c-8 -9 -42 -13 -98 -12 -64 1 -78 -1 -55 -8 28 -8 89 -17
128 -19 9 0 15 -4 13 -8 -3 -4 1 -8 9 -8 8 0 13 5 12 11 -1 6 6 11 15 11 24 0
35 15 12 15 -14 1 -11 5 11 15 l30 13 -32 1 c-17 1 -38 -5 -45 -11z"/>
<path d="M5310 9089 c0 -11 27 -12 34 -1 2 4 -4 9 -15 9 -10 1 -19 -2 -19 -8z"/>
<path d="M3447 9079 c7 -7 15 -10 18 -7 3 3 -2 9 -12 12 -14 6 -15 5 -6 -5z"/>
<path d="M3621 9087 c2 -3 15 -10 28 -17 19 -9 22 -9 19 1 -2 7 -15 14 -28 16
-13 2 -22 2 -19 0z"/>
<path d="M3857 9077 c-3 -8 1 -14 8 -14 7 0 11 6 8 14 -3 7 -6 13 -8 13 -2 0
-5 -6 -8 -13z"/>
<path d="M4070 9086 c0 -2 7 -7 16 -10 8 -3 12 -2 9 4 -6 10 -25 14 -25 6z"/>
<path d="M4118 9083 c6 -2 18 -2 25 0 6 3 1 5 -13 5 -14 0 -19 -2 -12 -5z"/>
<path d="M4433 9083 c9 -2 23 -2 30 0 6 3 -1 5 -18 5 -16 0 -22 -2 -12 -5z"/>
<path d="M5964 9081 c3 -5 -1 -11 -9 -15 -22 -8 -18 -26 5 -26 15 0 20 7 20
25 0 14 -5 25 -11 25 -5 0 -8 -4 -5 -9z"/>
<path d="M3396 9055 c7 -18 6 -19 -12 -5 -18 14 -18 14 -5 -3 10 -12 17 -15
25 -7 7 7 6 14 -3 23 -10 10 -11 8 -5 -8z"/>
<path d="M3474 9028 c-12 -14 -13 -18 -3 -10 9 6 18 10 21 7 2 -3 5 2 5 10 0
19 0 19 -23 -7z"/>
<path d="M3439 9023 c-13 -16 -12 -17 4 -4 16 13 21 21 13 21 -2 0 -10 -8 -17
-17z"/>
<path d="M4080 9020 c0 -7 24 -20 36 -20 13 0 1 19 -16 23 -11 3 -20 2 -20 -3z"/>
<path d="M3480 8999 c0 -5 5 -7 10 -4 6 4 19 1 28 -7 15 -12 16 -11 3 5 -15
19 -41 23 -41 6z"/>
<path d="M3340 8817 c0 -9 38 -80 64 -120 10 -15 16 -31 12 -34 -3 -4 4 -17
16 -30 18 -19 19 -25 8 -36 -10 -10 -11 -9 -5 1 4 9 -1 19 -15 29 -12 8 -19
21 -16 29 3 8 2 14 -3 14 -5 0 -11 -9 -14 -19 -3 -13 3 -22 18 -29 18 -8 23
-18 21 -41 -1 -16 0 -29 3 -29 22 2 33 -5 43 -27 7 -15 14 -21 18 -15 4 7 13
2 23 -14 11 -16 13 -27 7 -31 -14 -9 -2 -25 13 -19 7 2 22 -4 32 -16 16 -18
16 -20 2 -20 -10 0 -17 -5 -17 -10 0 -6 10 -8 23 -5 15 4 28 1 36 -9 11 -12
11 -16 1 -16 -7 0 -10 -8 -7 -19 4 -18 3 -18 -30 -4 -20 8 -42 12 -49 9 -17
-7 -17 -42 0 -81 13 -29 13 -29 8 18 -6 58 3 60 88 17 33 -17 60 -28 60 -25 0
2 -13 11 -28 19 -15 8 -28 23 -29 35 -2 27 10 27 47 -1 21 -15 30 -30 30 -51
0 -15 5 -37 10 -48 15 -27 2 -24 -57 15 -78 51 -83 52 -32 4 25 -24 63 -52 85
-63 21 -11 56 -31 76 -43 41 -27 158 -44 158 -23 0 6 -18 11 -42 11 -58 1
-120 30 -149 71 -23 33 -24 40 -24 219 0 178 1 186 23 216 13 16 37 39 55 49
31 19 62 19 752 20 396 0 735 -3 753 -7 41 -8 77 -40 103 -90 16 -32 19 -59
19 -188 0 -165 -7 -197 -56 -241 -53 -48 -177 -69 -187 -31 -3 10 -5 5 -6 -12
l-1 -29 75 5 c41 3 80 10 87 16 7 5 45 26 83 46 39 20 91 56 115 82 l45 46
-74 -51 c-41 -28 -78 -51 -82 -51 -4 0 -2 14 4 30 6 17 15 30 19 30 4 0 5 7 1
15 -7 20 21 51 53 59 45 12 46 -6 2 -35 -56 -37 -46 -37 23 1 83 46 108 39 90
-25 -5 -19 -5 -33 -1 -30 13 8 30 74 23 91 -6 16 -27 18 -51 5 -12 -6 -24 -4
-39 9 -20 15 -21 20 -8 30 8 7 24 10 35 7 11 -3 23 -1 26 4 3 5 -2 9 -10 9
-22 0 -20 17 4 30 14 8 20 8 20 0 0 -6 5 -8 10 -5 6 4 8 15 5 26 -6 19 32 86
43 74 3 -3 -4 -18 -15 -33 l-21 -28 33 0 c31 1 40 16 10 16 -11 0 -11 6 -2 31
11 27 16 30 44 27 17 -2 29 0 27 4 -3 4 -11 8 -18 8 -9 0 -12 9 -8 25 2 14 7
25 11 25 4 0 16 7 27 16 10 8 13 12 5 8 -10 -5 -12 -1 -7 17 6 23 6 22 -8 -2
-9 -15 -22 -29 -31 -32 -8 -4 -12 -13 -9 -20 3 -8 -2 -22 -11 -31 -24 -23 -41
-20 -20 4 11 12 20 28 21 37 2 9 11 25 22 36 16 16 18 24 9 47 -11 30 3 80 22
80 13 0 6 -53 -8 -58 -6 -2 -11 -8 -11 -14 0 -6 10 -3 21 8 22 19 22 19 14 -5
-5 -17 -4 -21 5 -16 6 4 10 19 9 33 -1 15 3 40 10 55 6 16 11 34 10 40 0 7 -5
-1 -11 -16 -7 -21 -15 -26 -29 -22 -14 5 -24 -2 -39 -27 l-20 -33 -1 30 c0 26
-2 24 -13 -15 -7 -25 -19 -58 -26 -75 l-13 -30 -8 30 c-6 23 -7 18 -5 -22 2
-34 -2 -54 -10 -57 -16 -6 -24 3 -24 25 0 10 -4 20 -8 23 -5 3 -6 -8 -4 -25 2
-16 8 -29 12 -29 13 0 -1 -38 -21 -56 -10 -9 -19 -26 -19 -38 0 -14 11 -2 36
37 19 31 37 57 40 57 2 0 4 -12 4 -26 0 -20 -24 -50 -97 -123 -87 -86 -98 -93
-101 -72 -2 14 6 33 21 50 52 55 89 129 94 189 4 50 2 62 -21 95 -14 21 -26
41 -26 46 0 4 -7 16 -16 27 -15 18 -15 18 -9 -4 7 -23 6 -23 -24 -8 -17 9 -38
30 -47 47 -8 17 -18 29 -21 26 -10 -10 17 -45 67 -87 l50 -42 0 -62 c0 -51 -6
-75 -32 -127 l-33 -64 -5 85 c-6 89 -21 129 -62 167 -58 54 -39 53 -816 53
l-718 0 -55 -27 c-79 -41 -98 -80 -100 -211 -1 -56 -4 -100 -6 -98 -3 3 -20
28 -39 57 -45 70 -58 112 -49 157 l8 37 12 -60 c11 -57 51 -152 61 -142 2 2
-7 24 -20 48 -14 26 -28 70 -32 107 l-7 62 53 52 c50 51 70 78 70 95 0 4 -9
-6 -20 -24 -33 -54 -98 -85 -70 -34 6 12 8 21 5 21 -5 0 -27 -40 -66 -119 -32
-67 -12 -142 67 -245 32 -42 44 -76 27 -76 -11 0 -144 130 -170 167 -13 17
-23 39 -23 50 1 16 3 15 20 -5 l19 -23 7 36 c3 20 4 39 0 42 -3 4 -6 -6 -6
-22 0 -24 -2 -26 -16 -14 -12 10 -15 25 -12 64 5 47 4 48 -7 20 -7 -16 -11
-35 -8 -42 3 -7 2 -21 -2 -30 -6 -16 -8 -15 -20 7 -9 18 -10 30 -3 44 7 13 7
30 -1 55 -6 20 -12 45 -15 56 -2 14 -4 11 -5 -8 0 -16 4 -37 10 -48 6 -12 8
-27 5 -36 -10 -25 -34 3 -28 32 2 14 -1 38 -8 54 -13 32 -42 50 -49 30 -2 -7
-12 3 -22 22 -10 19 -18 30 -19 26z m90 -110 c0 -19 -1 -20 -20 -2 -11 10 -20
30 -20 44 l1 26 19 -24 c11 -13 20 -32 20 -44z m2290 -19 c0 -13 -4 -29 -9
-37 -13 -20 -24 4 -17 35 8 30 26 32 26 2z m-186 -165 c-25 -54 -77 -129 -81
-117 -2 6 12 37 32 69 19 32 37 74 41 94 11 67 19 79 22 34 2 -25 -4 -58 -14
-80z m156 103 c0 -22 -11 -46 -21 -46 -10 0 -12 43 -2 53 11 12 23 8 23 -7z
m-2222 -56 c7 -11 9 -20 4 -20 -10 0 -32 22 -32 32 0 15 15 8 28 -12z"/>
<path d="M3360 8720 c0 -17 17 -47 23 -40 2 3 -2 16 -10 30 -7 14 -13 18 -13
10z"/>
<path d="M3808 8647 c-44 -37 -48 -57 -48 -219 0 -134 3 -157 20 -185 24 -40
49 -54 108 -58 33 -2 48 -8 54 -21 7 -18 8 -18 7 1 -3 53 13 59 103 39 95 -20
921 -20 998 1 76 20 107 19 120 -5 9 -17 18 -19 75 -15 71 5 106 22 124 61 17
38 26 294 11 338 -6 19 -25 47 -41 61 l-31 25 -736 0 -737 0 -27 -23z m1472
-49 c-1 -32 -18 -34 -411 -33 -421 0 -429 -1 -429 -48 0 -11 14 -42 32 -69 49
-78 38 -132 -39 -179 -37 -23 -45 -24 -291 -27 -241 -3 -254 -2 -250 15 3 17
22 18 240 23 214 5 238 7 257 24 28 26 27 38 -16 116 -33 63 -35 71 -24 99 15
35 48 59 106 77 58 18 825 20 825 2z m-1298 -103 l-3 -30 28 33 c15 18 36 32
46 32 24 0 21 -9 -14 -50 l-30 -35 23 -5 c21 -5 23 -12 23 -63 0 -46 -3 -57
-16 -57 -26 0 -42 27 -37 65 3 29 1 35 -14 35 -15 0 -18 -9 -18 -51 0 -49 -1
-50 -27 -47 -27 3 -27 5 -23 53 3 28 5 74 5 103 0 53 0 53 30 50 27 -3 30 -6
27 -33z m233 19 c12 -12 14 -25 9 -43 -4 -14 -7 -54 -7 -88 0 -53 -3 -63 -17
-63 -28 0 -43 27 -37 66 5 29 3 35 -11 32 -13 -2 -18 -15 -20 -51 -3 -42 -6
-47 -27 -47 -24 0 -24 1 -22 105 l2 105 57 0 c39 0 62 -5 73 -16z m82 -16 c-4
-18 -9 -66 -13 -105 -6 -69 -8 -73 -31 -73 l-25 0 6 78 c11 122 14 132 43 132
23 0 25 -3 20 -32z m466 13 c10 -15 11 -37 6 -88 -4 -37 -6 -76 -3 -85 4 -13
0 -18 -14 -18 -34 0 -42 21 -34 96 9 91 9 87 -9 89 -13 2 -18 -10 -23 -58 -3
-33 -6 -75 -6 -94 0 -32 -2 -34 -27 -31 -27 3 -28 5 -23 53 7 86 5 128 -7 132
-11 4 -17 -19 -29 -129 -6 -53 -8 -58 -31 -58 -25 0 -25 1 -19 53 4 28 7 76 8
105 l1 52 98 0 c86 0 100 -2 112 -19z m152 2 c13 -13 16 -27 11 -61 -3 -25 -6
-64 -6 -88 0 -36 -3 -44 -19 -44 -27 0 -43 24 -35 54 5 22 3 26 -15 26 -18 0
-21 -6 -21 -40 0 -36 -2 -40 -26 -40 l-26 0 7 88 c5 55 13 93 23 105 20 22 85
23 107 0z m155 -4 c7 -12 9 -32 5 -47 -4 -15 -7 -53 -7 -84 1 -50 -2 -58 -17
-58 -30 0 -43 24 -35 64 5 28 3 36 -9 36 -16 0 -27 -29 -27 -72 0 -23 -4 -28
-26 -28 l-26 0 8 67 c4 37 7 84 7 105 l0 38 58 0 c49 0 60 -3 69 -21z m88 -9
c-3 -16 -3 -30 -1 -30 2 0 16 14 31 31 17 19 35 30 47 28 17 -4 15 -8 -13 -40
-38 -43 -38 -45 -12 -52 17 -4 20 -13 19 -61 -1 -47 -5 -56 -20 -56 -25 0 -33
17 -30 62 1 28 -2 38 -13 38 -9 0 -16 -16 -21 -50 -6 -45 -10 -50 -32 -50 -24
0 -24 2 -18 53 3 28 7 76 8 104 2 51 3 53 31 53 26 0 28 -3 24 -30z"/>
<path d="M4146 8494 c-9 -24 -7 -54 4 -54 14 0 32 39 26 56 -7 19 -22 18 -30
-2z"/>
<path d="M4853 8503 c-8 -3 -13 -22 -13 -44 0 -51 26 -54 36 -3 7 37 -2 55
-23 47z"/>
<path d="M5000 8498 c0 -7 -3 -23 -6 -35 -5 -17 -2 -23 10 -23 17 0 32 42 21
59 -9 15 -25 14 -25 -1z"/>
<path d="M3563 8490 c6 -16 13 -27 15 -25 7 7 -8 55 -17 55 -5 0 -4 -13 2 -30z"/>
<path d="M3461 8486 c2 -2 18 -6 34 -10 22 -5 26 -4 15 4 -14 9 -59 15 -49 6z"/>
<path d="M4890 8155 c-15 -18 -9 -50 10 -50 9 0 16 10 17 25 1 22 1 22 -4 3
-2 -13 -9 -23 -14 -23 -13 0 -11 34 3 48 7 7 9 12 6 12 -3 0 -11 -7 -18 -15z"/>
<path d="M4234 8145 c-8 -21 3 -47 19 -43 6 3 13 14 15 25 4 24 -26 40 -34 18z
m26 -21 c0 -8 -4 -14 -10 -14 -5 0 -10 9 -10 21 0 11 5 17 10 14 6 -3 10 -13
10 -21z"/>
<path d="M4287 8154 c-10 -10 -9 -54 2 -54 5 0 14 7 21 16 11 12 11 18 -1 30
-9 8 -18 11 -22 8z m15 -36 c-9 -9 -12 -7 -12 12 0 19 3 21 12 12 9 -9 9 -15
0 -24z"/>
<path d="M4385 8150 c-4 -6 -10 -8 -15 -5 -4 3 -11 -5 -15 -18 l-7 -22 -8 25
c-7 23 -8 24 -9 3 -1 -26 18 -41 29 -23 5 9 9 9 14 1 4 -6 12 -11 18 -11 7 0
6 6 -2 15 -10 12 -10 18 0 30 7 8 10 15 7 15 -3 0 -9 -5 -12 -10z"/>
<path d="M4420 8130 c0 -16 3 -30 8 -30 4 0 7 14 7 30 0 17 -3 30 -7 30 -5 0
-8 -13 -8 -30z"/>
<path d="M4508 8128 c2 -15 5 -28 7 -28 2 0 5 13 7 28 2 17 -1 29 -7 29 -6 0
-9 -12 -7 -29z"/>
<path d="M4675 8150 c-4 -6 -10 -8 -15 -5 -5 3 -11 -3 -13 -12 -4 -17 -5 -17
-6 0 -1 23 -25 17 -27 -7 -2 -13 -1 -13 3 -1 4 12 8 11 23 -7 13 -16 19 -18
20 -8 0 11 3 11 12 2 7 -7 16 -12 21 -12 5 0 1 7 -8 16 -12 12 -13 19 -4 30 6
8 9 14 6 14 -3 0 -9 -5 -12 -10z"/>
<path d="M4709 8160 c0 -3 -2 -13 -4 -22 -2 -9 3 -19 11 -22 8 -3 14 0 14 7 0
12 -19 46 -21 37z"/>
<path d="M4746 8153 c-3 -3 -6 -18 -5 -32 0 -14 3 -20 6 -12 4 10 7 10 13 1 5
-7 8 -2 8 14 0 27 -10 40 -22 29z"/>
<path d="M4784 8145 c-8 -21 3 -47 19 -43 6 3 13 14 15 25 4 24 -26 40 -34 18z
m26 -21 c0 -8 -4 -14 -10 -14 -5 0 -10 9 -10 21 0 11 5 17 10 14 6 -3 10 -13
10 -21z"/>
<path d="M4152 8130 c0 -14 2 -19 5 -12 2 6 2 18 0 25 -3 6 -5 1 -5 -13z"/>
<path d="M4191 8132 c-1 -13 3 -21 8 -18 5 4 11 0 14 -6 2 -7 4 0 4 16 0 16
-3 23 -7 16 -6 -9 -9 -9 -13 1 -3 8 -6 4 -6 -9z"/>
<path d="M4450 8131 c0 -25 6 -27 13 -6 4 8 2 17 -3 20 -6 4 -10 -3 -10 -14z"/>
<path d="M4477 8135 c-4 -8 -2 -17 3 -20 6 -4 10 3 10 14 0 25 -6 27 -13 6z"/>
<path d="M4550 8142 c0 -5 7 -15 15 -22 8 -7 15 -8 15 -2 0 5 -7 15 -15 22 -8
7 -15 8 -15 2z"/>
<path d="M4581 8143 c0 -5 4 -17 9 -28 8 -18 9 -17 9 8 1 15 -3 27 -9 27 -5 0
-10 -3 -9 -7z"/>
<path d="M4830 8146 c0 -3 9 -15 20 -26 l20 -20 -1 28 c0 15 -3 21 -6 14 -4
-10 -8 -10 -19 -1 -8 6 -14 9 -14 5z"/>
<path d="M4930 8136 c0 -8 4 -17 9 -20 5 -4 7 3 4 14 -6 23 -13 26 -13 6z"/>
<path d="M4950 8145 c0 -5 5 -17 10 -25 5 -8 10 -10 10 -5 0 6 -5 17 -10 25
-5 8 -10 11 -10 5z"/>
<path d="M3790 8084 c-51 -18 -85 -48 -95 -84 -6 -23 -4 -22 20 8 31 38 65 57
137 76 48 13 50 15 18 15 -19 0 -55 -7 -80 -15z"/>
<path d="M3900 8077 c-79 -28 -110 -44 -110 -59 0 -7 4 -7 13 0 25 21 122 53
144 47 19 -4 23 -12 23 -41 0 -30 3 -35 18 -29 9 4 34 9 55 12 20 3 38 10 38
14 1 5 3 14 4 19 1 6 3 14 4 19 0 5 198 9 454 8 248 0 462 3 475 7 20 7 22 4
22 -27 0 -32 2 -35 38 -40 20 -3 45 -8 55 -12 13 -6 17 -2 17 18 0 14 8 35 19
48 l18 23 76 -28 c90 -33 107 -48 87 -79 -12 -20 -12 -21 3 -8 43 35 4 76
-105 109 -53 16 -84 19 -145 14 -114 -8 -1008 -8 -1078 0 -49 6 -71 4 -125
-15z m139 -33 c43 -9 39 -18 -14 -30 -43 -10 -45 -10 -45 13 0 24 8 27 59 17z
m1103 -19 c-3 -20 -7 -23 -22 -15 -10 6 -30 10 -44 10 -14 0 -26 4 -26 9 0 10
27 17 71 20 23 1 26 -2 21 -24z"/>
<path d="M5290 8089 c71 -14 133 -50 152 -89 l18 -35 0 28 c0 16 -10 38 -24
52 -26 26 -113 56 -160 54 -26 -1 -23 -3 14 -10z"/>
<path d="M4439 8013 c-10 -11 -10 -14 -1 -9 8 5 12 -2 12 -23 0 -17 5 -31 10
-31 6 0 10 18 10 40 0 43 -9 50 -31 23z"/>
<path d="M4516 8015 c-8 -21 1 -35 22 -35 15 -1 14 -3 -3 -16 l-20 -16 20 4
c15 2 20 11 20 38 0 38 -27 55 -39 25z m34 -16 c0 -5 -4 -9 -10 -9 -5 0 -10 7
-10 16 0 8 5 12 10 9 6 -3 10 -10 10 -16z"/>
<path d="M4607 8023 c-13 -12 -7 -43 8 -43 8 0 15 -5 15 -11 0 -6 -7 -9 -15
-5 -8 3 -15 1 -15 -4 0 -6 9 -10 20 -10 21 0 37 38 26 65 -6 15 -28 20 -39 8z
m23 -19 c0 -8 -5 -12 -10 -9 -6 4 -8 11 -5 16 9 14 15 11 15 -7z"/>
<path d="M4706 8021 c-4 -5 -5 -15 -3 -23 2 -7 2 -10 0 -5 -6 9 -23 -1 -23
-14 0 -5 6 -9 14 -9 8 0 17 -6 19 -12 10 -23 24 10 19 42 -4 30 -16 39 -26 21z"/>
<path d="M4310 7990 c0 -5 18 -10 40 -10 22 0 40 5 40 10 0 6 -18 10 -40 10
-22 0 -40 -4 -40 -10z"/>
<path d="M4770 7990 c0 -5 18 -10 40 -10 22 0 40 5 40 10 0 6 -18 10 -40 10
-22 0 -40 -4 -40 -10z"/>
<path d="M3790 7981 c0 -6 4 -13 10 -16 6 -3 7 1 4 9 -7 18 -14 21 -14 7z"/>
<path d="M6948 7245 c-2 -1 -622 -6 -1378 -10 -756 -3 -1404 -8 -1440 -10 -36
-1 -290 -6 -565 -10 -275 -3 -518 -8 -540 -10 -22 -2 -245 -6 -495 -10 -250
-3 -480 -10 -511 -15 -62 -9 -152 -44 -170 -66 -8 -10 -40 -14 -120 -14 -104
0 -109 -1 -114 -22 -16 -73 -109 -987 -101 -995 3 -4 7 2 7 13 1 11 4 7 9 -11
l7 -30 11 25 c6 14 11 19 11 11 1 -11 7 -8 22 8 11 12 34 24 50 28 16 3 26 10
22 16 -3 6 -1 7 5 3 6 -4 9 -13 5 -21 -6 -18 8 -20 25 -3 21 21 14 -31 -9 -63
-11 -16 -23 -44 -26 -62 -6 -40 -9 -43 -28 -27 -9 7 -15 9 -14 4 4 -16 -12
-94 -25 -119 -7 -13 -12 -44 -11 -69 1 -25 -1 -44 -5 -41 -4 2 -6 -12 -4 -33
2 -29 0 -33 -7 -19 -9 15 -16 99 -18 220 -1 26 -5 37 -16 37 -13 0 -15 -22
-16 -132 -1 -73 -3 -278 -5 -455 l-4 -323 39 0 c21 0 71 -3 112 -6 l74 -7 -3
134 c-2 74 0 130 4 126 5 -4 9 -40 9 -80 1 -40 3 -88 4 -107 l2 -35 15 27 c21
41 87 50 140 20 12 -6 24 -8 28 -5 3 3 6 2 6 -4 0 -10 87 -40 101 -36 4 1 6
-5 5 -13 -1 -13 22 -15 174 -14 96 0 185 3 197 7 30 7 30 33 1 33 -13 0 -61
14 -108 31 -213 75 -199 72 -259 54 -52 -16 -55 -16 -68 1 -36 49 -29 152 14
196 26 27 28 37 32 116 3 85 4 87 35 107 25 16 33 30 41 74 l11 53 153 -233
c162 -246 214 -341 215 -396 l1 -33 78 0 77 0 0 100 0 100 283 0 c155 0 299 3
320 6 l37 7 0 -102 0 -101 204 6 204 7 -5 -26 c-3 -15 -1 -27 5 -27 5 0 17
-18 26 -40 9 -22 19 -40 22 -40 4 0 4 23 2 50 -3 28 -1 50 4 50 5 0 24 -11 41
-24 l32 -25 2 26 c1 17 -2 21 -7 13 -10 -16 -40 -6 -40 14 0 9 -12 16 -32 19
-18 2 4 5 49 5 l81 2 -21 -39 -22 -40 28 -28 c15 -16 27 -34 27 -40 0 -15 48
-53 67 -53 24 0 27 30 4 46 -11 8 -21 23 -21 33 0 23 47 94 74 111 16 10 126
15 498 19 262 3 487 3 500 -1 13 -3 17 -6 9 -7 -8 -1 -12 -3 -9 -6 2 -3 18 1
34 9 24 12 95 15 384 16 195 1 359 1 364 0 5 0 2 -8 -7 -18 -10 -11 -13 -23
-8 -31 12 -19 49 3 57 34 l6 25 153 0 c138 0 154 -2 158 -17 4 -17 5 -17 6 0
1 17 28 18 554 17 679 -1 618 -3 616 13 -6 45 4 239 11 222 8 -19 9 -18 11 5
1 20 3 18 8 -10 4 -19 4 -42 0 -50 -4 -8 -7 -52 -6 -98 0 -75 2 -82 20 -82 19
0 19 5 13 126 -8 137 -12 157 -30 147 -6 -4 -5 1 3 10 10 13 10 17 1 17 -10 0
-10 3 0 15 7 8 10 24 7 35 -3 11 -1 20 3 20 16 0 27 -116 29 -308 l1 -122 30
2 c16 1 38 9 50 18 21 16 21 16 5 180 -8 91 -17 174 -19 185 -3 11 -8 63 -11
115 -5 77 -10 98 -26 112 -10 9 -19 22 -19 28 0 9 4 9 16 0 13 -12 15 -10 12
11 -2 13 -7 30 -12 38 -7 10 -6 12 4 6 10 -6 11 -1 6 21 -4 16 -11 268 -16
559 -4 292 -12 617 -16 723 l-7 192 -66 -2 c-47 -1 -54 -3 -25 -5 l42 -4 6
-87 c9 -139 15 -441 7 -392 -6 44 -7 44 -14 15 -4 -16 -8 -76 -9 -132 -1 -57
-5 -103 -10 -103 -4 0 -9 -8 -9 -17 -2 -28 -18 54 -30 147 -10 88 -36 240 -47
275 -5 16 -7 13 -13 -15 -6 -32 -6 -30 -8 17 -1 34 4 57 14 66 11 11 14 39 14
104 0 49 3 101 6 115 6 25 5 25 -64 32 -62 6 -216 7 -223 1z m216 -199 c6 -82
4 -102 -12 -138 -21 -49 -43 -139 -67 -283 -29 -175 -41 -201 -106 -246 -68
-46 -109 -92 -109 -123 0 -27 37 -85 89 -141 49 -52 81 -99 81 -119 0 -10 -15
-20 -45 -27 -59 -15 -182 -96 -228 -150 -64 -74 -91 -151 -71 -203 8 -22 21
-20 54 8 16 13 73 41 127 62 111 43 228 118 270 172 16 21 31 56 34 82 4 25 5
0 3 -55 -3 -55 -5 -118 -6 -140 -1 -22 6 -87 15 -145 9 -58 16 -121 16 -140
-1 -19 -7 2 -14 46 -25 163 -33 168 -83 48 -30 -72 -32 -85 -27 -151 l6 -71
-48 14 c-26 7 -99 28 -161 45 -143 40 -189 69 -224 140 -87 179 -56 445 77
645 50 76 67 111 80 168 23 103 39 151 122 350 40 99 83 218 95 265 12 47 22
88 24 90 2 2 10 -2 19 -9 9 -7 19 -10 22 -6 8 8 29 80 40 136 l7 35 6 -32 c4
-17 10 -74 14 -127z m-3105 -40 c-69 -47 -148 -192 -212 -392 -30 -93 -77
-287 -77 -317 0 -6 16 21 35 59 48 95 121 189 250 323 125 129 220 209 350
293 95 61 137 79 66 27 -114 -82 -282 -310 -391 -531 -33 -67 -60 -125 -60
-128 0 -3 17 -14 38 -23 45 -20 67 -55 66 -106 -2 -47 -26 -85 -65 -101 -27
-11 -34 -10 -57 7 -35 26 -49 87 -35 149 10 43 10 44 -11 38 -30 -9 -73 -52
-81 -81 -8 -35 2 -61 33 -77 l26 -13 -24 -8 c-18 -6 -28 -2 -42 15 -23 29 -23
46 5 100 16 32 34 51 63 65 37 18 45 28 69 90 33 83 111 227 169 310 64 93 64
93 -21 4 -205 -215 -344 -400 -375 -499 -15 -47 -21 -49 -36 -15 -40 88 14
356 110 550 46 93 19 55 -87 -120 -165 -271 -221 -348 -320 -444 -87 -83 -176
-141 -216 -141 -36 0 -72 44 -78 95 -6 45 -9 50 -38 57 -47 12 -83 60 -83 111
1 103 107 242 170 222 29 -9 24 -22 -13 -34 -74 -25 -156 -147 -142 -212 7
-32 41 -65 76 -74 25 -6 27 -4 31 37 13 110 150 298 244 334 44 17 46 16 72
-3 46 -34 39 -109 -20 -197 -62 -95 -143 -157 -231 -180 -46 -12 -52 -16 -55
-42 -4 -44 31 -94 65 -94 80 1 187 119 363 400 188 300 299 447 389 511 61 44
52 49 -43 24 -154 -40 -316 -171 -386 -310 -20 -41 -42 -71 -52 -73 -28 -5
-22 28 18 94 109 182 336 318 539 323 l40 1 -36 -24z m-2108 -23 c-12 -20 -14
-14 -5 12 4 9 9 14 11 11 3 -2 0 -13 -6 -23z m2898 -66 c-20 -38 -98 -124
-218 -242 -107 -106 -133 -143 -82 -115 15 8 21 8 21 0 0 -6 -19 -20 -43 -30
-34 -15 -47 -29 -70 -75 -27 -54 -35 -99 -19 -109 14 -8 116 85 133 122 21 47
93 128 131 148 37 19 63 11 78 -26 18 -42 5 -89 -39 -152 -51 -71 -108 -110
-153 -106 -30 3 -33 6 -36 41 l-3 38 -51 -41 c-28 -22 -56 -39 -62 -37 -6 2
-12 20 -14 40 -4 42 -11 45 -37 17 -10 -12 -34 -30 -53 -42 -42 -26 -56 -15
-50 40 2 27 0 38 -7 33 -5 -4 -34 -27 -63 -49 -30 -23 -58 -42 -63 -42 -5 0
-14 11 -21 25 -25 55 66 211 146 249 38 18 101 21 111 6 3 -5 25 -7 49 -4 29
4 46 2 51 -6 5 -7 20 7 43 42 92 138 192 241 276 286 45 24 61 20 45 -11z
m760 -43 c-24 -32 -105 -119 -180 -193 -112 -113 -142 -149 -172 -210 -36 -71
-46 -114 -29 -125 18 -11 240 211 311 312 17 24 27 30 34 23 8 -8 3 -19 -16
-39 -17 -17 -36 -59 -51 -108 -33 -112 -51 -148 -86 -178 -47 -39 -129 -32
-113 10 8 22 -8 16 -38 -12 -71 -68 -81 45 -15 176 87 172 229 339 341 399 60
32 65 11 14 -55z m304 4 c-55 -72 -200 -226 -227 -240 -11 -6 26 40 84 102
122 131 164 179 158 185 -14 15 -275 -276 -263 -294 2 -5 -5 -17 -16 -27 -12
-11 -31 -32 -42 -49 -16 -22 -6 -16 37 22 33 29 63 50 68 47 22 -14 5 -58 -42
-108 -54 -57 -62 -86 -37 -145 l13 -32 28 22 c14 11 37 42 50 67 14 26 45 73
70 106 25 32 46 65 46 73 0 13 3 13 15 3 22 -18 11 -43 -52 -126 -49 -65 -82
-134 -65 -134 4 0 29 18 56 40 63 52 74 51 16 -1 -68 -62 -79 -66 -86 -29 l-6
30 -31 -30 c-17 -17 -36 -29 -42 -27 -19 6 -45 72 -45 115 0 39 6 49 57 103
31 32 52 59 46 59 -5 0 -43 -35 -85 -77 -78 -82 -105 -132 -94 -181 5 -23 5
-25 -5 -8 -44 73 89 325 262 496 68 68 147 116 163 100 5 -5 -7 -30 -31 -62z
m-3987 26 c-4 -9 -9 -15 -11 -12 -3 3 -3 13 1 22 4 9 9 15 11 12 3 -3 3 -13
-1 -22z m67 -61 c15 -39 15 -42 0 -36 -10 4 -14 2 -10 -4 9 -14 -53 -43 -92
-43 -29 0 -31 2 -26 28 6 25 4 24 -14 -8 -24 -41 -28 -33 -6 11 9 16 20 27 26
24 5 -4 30 12 56 34 26 22 48 39 49 38 0 -1 8 -21 17 -44z m-97 9 c-17 -16
-18 -16 -5 5 7 12 15 20 18 17 3 -2 -3 -12 -13 -22z m4031 -109 c-11 -13 -24
-23 -29 -23 -16 0 -8 34 14 57 21 22 23 23 29 6 4 -11 -1 -26 -14 -40z m-4100
-45 c-3 -7 -5 -2 -5 12 0 14 2 19 5 13 2 -7 2 -19 0 -25z m-4 -66 c-3 -23 -9
-42 -13 -42 -8 0 -8 5 5 64 9 42 15 27 8 -22z m3383 -23 c51 -56 -11 -194
-116 -258 -46 -27 -86 -27 -101 0 -26 50 56 207 134 254 51 30 59 31 83 4z
m-298 -6 c-9 -10 -21 -28 -27 -41 -10 -19 -4 -17 35 13 75 58 112 34 85 -55
-30 -102 -122 -190 -198 -190 -32 0 -43 -4 -43 -15 0 -8 9 -15 19 -15 33 0
108 -37 125 -61 21 -31 20 -68 -4 -99 l-20 -25 0 28 c0 33 -29 78 -68 105 -55
39 -63 37 -117 -32 -62 -80 -124 -123 -197 -138 -50 -10 -62 -10 -93 5 -32 15
-35 20 -35 62 0 40 5 50 43 88 49 49 121 75 227 80 l64 4 75 120 c94 148 119
183 133 183 6 0 4 -8 -4 -17z m-3101 -55 c-3 -7 -5 -2 -5 12 0 14 2 19 5 13 2
-7 2 -19 0 -25z m-12 -68 c-4 -23 -9 -39 -11 -37 -3 2 -2 23 2 46 4 23 9 40
11 37 3 -3 2 -23 -2 -46z m5562 -2 c-3 -8 -6 -5 -6 6 -1 11 2 17 5 13 3 -3 4
-12 1 -19z m-167 -113 c0 -19 -4 -35 -8 -35 -4 0 -6 16 -4 35 2 19 6 35 8 35
2 0 4 -16 4 -35z m-5426 -64 c-8 -19 -17 -37 -21 -40 -3 -4 -3 3 2 14 4 11 10
35 13 54 3 22 7 29 13 20 4 -7 1 -28 -7 -48z m27 -28 c-11 -67 -4 -180 12
-190 6 -4 7 -1 2 7 -6 9 -4 12 7 8 11 -5 14 0 10 18 -3 17 0 24 12 24 9 0 16
6 16 13 0 8 4 7 10 -3 15 -23 12 -29 -10 -25 -11 2 -20 0 -20 -5 0 -5 10 -10
23 -12 12 -2 23 -9 23 -15 1 -7 3 -16 4 -20 1 -5 2 -12 1 -17 -1 -5 6 -3 15 5
16 13 16 12 6 -7 -6 -12 -8 -25 -4 -29 4 -5 -1 -5 -10 -2 -10 4 -18 2 -18 -3
0 -6 -5 -10 -11 -10 -5 0 -8 4 -5 9 3 5 0 9 -7 8 -36 -1 -46 4 -42 23 2 11 0
20 -6 20 -8 0 -13 -22 -10 -42 4 -27 -32 10 -51 52 -9 20 -10 -40 -2 -107 6
-50 8 -52 33 -48 22 5 23 4 6 -4 -11 -5 -14 -10 -7 -10 6 -1 12 -5 12 -11 0
-5 -6 -7 -14 -4 -11 4 -13 0 -9 -15 3 -11 9 -18 14 -15 5 3 4 -6 -2 -20 -9
-20 -9 -29 1 -41 15 -19 14 -163 -1 -182 -7 -8 -7 -13 -2 -13 6 0 9 -10 8 -22
-13 -106 -28 -206 -34 -221 -3 -9 -6 83 -7 205 0 123 -5 296 -11 385 -7 102
-7 177 -1 205 5 23 10 50 12 59 1 8 12 26 24 39 11 12 24 36 27 52 12 52 16
23 6 -39z m-177 41 c4 -10 2 -13 -7 -8 -6 4 -2 -3 10 -14 21 -21 23 -35 8 -77
l-8 -20 17 20 c17 19 17 19 11 -10 -9 -48 -11 -54 -18 -61 -4 -4 -7 0 -7 9 0
20 -16 23 -23 5 -3 -8 -9 -3 -15 12 -6 14 -11 19 -11 11 -1 -8 -4 -12 -7 -9
-5 5 11 110 22 146 5 17 21 15 28 -4z m5657 -139 c0 -33 0 -67 -1 -75 -2 -14
8 -157 14 -205 4 -26 29 -31 50 -10 16 16 18 26 20 120 1 28 6 82 11 120 l10
70 6 -100 c4 -55 4 -228 0 -385 -6 -275 -6 -280 -12 -140 -4 80 -4 186 0 237
3 51 3 89 -1 85 -8 -8 -29 -292 -22 -303 2 -4 0 -10 -6 -14 -6 -4 -10 11 -10
40 0 30 -4 44 -11 40 -6 -4 -10 -38 -9 -84 1 -42 1 -105 0 -141 -3 -60 -4 -58
-10 35 -16 212 -39 369 -51 339 -9 -25 -11 272 -2 411 6 98 8 105 15 65 4 -25
8 -72 9 -105z m-80 -22 c1 -43 -1 -88 -5 -100 -7 -21 -8 -21 -25 -4 -10 10
-37 55 -59 99 l-40 80 25 27 c19 20 31 25 49 21 20 -5 24 -2 25 16 2 52 28
-66 30 -139z m-5320 59 c-5 -2 -19 2 -31 8 -11 6 -25 8 -30 5 -6 -3 -10 -4
-10 0 0 3 10 10 23 14 16 6 27 4 40 -7 10 -9 14 -18 8 -20z m-181 -13 c0 -5
-4 -8 -9 -5 -5 4 -12 0 -14 -6 -3 -8 -6 -6 -6 5 -1 9 6 17 14 17 8 0 15 -5 15
-11z m5507 -181 c-3 -8 -6 -5 -6 6 -1 11 2 17 5 13 3 -3 4 -12 1 -19z m-5547
-90 c0 -18 -2 -20 -9 -8 -6 8 -7 18 -5 22 9 14 14 9 14 -14z m2900 -88 c0 -53
-9 -90 -21 -90 -21 0 -81 67 -77 85 3 16 9 12 33 -25 l30 -45 3 60 c1 33 5 67
8 75 9 26 24 -10 24 -60z m-310 -1 c13 -1 33 -7 43 -14 11 -7 26 -11 33 -8 17
6 122 -61 131 -82 3 -8 11 -15 19 -15 17 0 34 -31 34 -62 0 -13 9 -29 21 -36
18 -11 24 -11 40 4 10 9 19 29 19 44 0 15 7 33 15 40 8 7 15 9 15 5 0 -4 9 3
19 17 30 37 99 82 132 84 16 1 35 7 42 13 7 5 22 10 32 10 11 0 39 3 63 7 47
7 51 3 22 -28 -27 -29 -26 -35 17 -56 l36 -19 -52 -27 c-29 -14 -63 -26 -76
-26 -12 0 -25 -7 -29 -15 -3 -8 -16 -15 -29 -15 -13 0 -27 -4 -33 -9 -5 -5
-35 -17 -68 -26 -47 -15 -62 -16 -78 -6 -16 10 -23 10 -36 -1 -9 -7 -19 -14
-21 -15 -2 -2 17 -21 43 -44 26 -23 44 -44 41 -47 -3 -3 -25 14 -50 38 l-44
44 -23 -20 c-13 -10 -25 -21 -28 -24 -35 -35 -43 -32 -10 3 40 43 43 48 28 63
-13 13 -19 14 -36 3 -16 -10 -30 -9 -78 6 -33 9 -63 21 -68 26 -6 5 -20 9 -32
9 -13 0 -29 6 -36 13 -7 8 -30 17 -51 21 -20 4 -37 10 -37 14 0 4 -15 13 -32
20 l-33 13 38 20 c43 22 45 29 17 54 -30 28 -24 38 18 31 20 -4 48 -7 62 -7z
m382 -16 c-14 -25 -72 -79 -72 -67 0 13 71 96 77 90 3 -2 0 -13 -5 -23z m-498
-1 c2 -4 -11 -6 -30 -4 -19 2 -34 6 -34 8 0 8 59 4 64 -4z m896 4 c0 -2 -15
-6 -34 -8 -19 -2 -32 0 -30 4 5 8 64 12 64 4z m-905 -26 c15 -6 6 -9 -32 -9
-29 -1 -53 4 -53 9 0 12 57 12 85 0z m935 0 c0 -6 -25 -10 -57 -9 -44 1 -52 3
-33 9 36 12 90 12 90 0z m-945 -30 c-3 -5 -12 -7 -20 -3 -21 7 -19 13 6 13 11
0 18 -4 14 -10z m905 6 c0 -9 -30 -14 -35 -6 -4 6 3 10 14 10 12 0 21 -2 21
-4z m2249 -171 c1 -34 5 -65 11 -71 5 -5 12 -57 14 -114 l5 -105 -10 83 c-5
46 -13 91 -18 101 -5 9 -12 77 -15 151 -3 93 -2 116 4 75 4 -33 8 -87 9 -120z
m88 -97 c-2 -13 -4 -5 -4 17 -1 22 1 32 4 23 2 -10 2 -28 0 -40z m-50 -330
c-2 -13 -4 -3 -4 22 0 25 2 35 4 23 2 -13 2 -33 0 -45z m-3320 -115 c-4 -3
-19 -7 -34 -8 -16 0 -28 -6 -28 -13 0 -6 -7 -17 -15 -24 -12 -11 -12 -11 -1 5
7 9 9 17 4 17 -10 0 -37 -30 -40 -44 -2 -6 -10 -11 -20 -12 -11 -2 1 15 30 42
36 32 57 44 80 44 17 0 27 -3 24 -7z"/>
<path d="M3392 6550 c-90 -41 -208 -203 -227 -312 -6 -33 -5 -38 12 -38 67 0
232 142 281 243 27 54 31 105 11 118 -20 12 -28 11 -77 -11z"/>
<path d="M4002 6281 c-15 -47 -15 -101 -2 -135 7 -19 17 -26 37 -26 65 1 91
64 57 136 -13 28 -57 64 -77 64 -2 0 -9 -17 -15 -39z"/>
<path d="M4758 6857 c-74 -71 -137 -144 -174 -201 -18 -28 160 151 226 227 56
64 27 50 -52 -26z"/>
<path d="M4718 6603 c-37 -41 -54 -153 -23 -153 32 0 75 123 52 153 -12 18
-13 18 -29 0z"/>
<path d="M4304 6581 c-65 -39 -159 -176 -152 -220 3 -17 13 -11 75 37 39 31
78 71 86 88 9 18 29 47 46 66 17 19 28 38 24 42 -12 12 -48 6 -79 -13z"/>
<path d="M4421 6565 c-47 -43 -111 -147 -119 -194 l-5 -35 62 48 c38 29 67 61
76 83 20 47 18 53 -5 24 -22 -26 -26 -15 -8 24 6 14 22 28 35 31 13 4 23 14
23 24 0 33 -18 31 -59 -5z"/>
<path d="M4640 6525 c-95 -138 -91 -240 5 -145 42 42 43 43 28 67 -14 21 -15
34 -7 74 6 27 9 49 8 49 -2 0 -17 -20 -34 -45z"/>
<path d="M5548 6858 c-72 -71 -114 -120 -173 -203 -27 -37 149 141 225 228 57
65 26 50 -52 -25z"/>
<path d="M5423 6503 c-84 -96 -103 -123 -103 -144 0 -53 72 20 130 133 23 43
39 78 37 78 -3 0 -32 -30 -64 -67z"/>
<path d="M5164 6612 c-25 -16 -58 -120 -47 -148 17 -45 73 35 73 105 0 41 -8
55 -26 43z"/>
<path d="M5083 6532 c-49 -75 -73 -129 -73 -162 0 -44 27 -39 78 13 38 38 41
45 27 57 -18 15 -20 81 -4 112 21 39 3 26 -28 -20z"/>
<path d="M4908 6555 c-47 -37 -65 -60 -96 -125 -35 -73 -37 -80 -19 -80 48 0
115 67 166 167 21 42 28 83 14 83 -5 0 -34 -20 -65 -45z"/>
<path d="M4525 6283 c-107 -33 -153 -105 -104 -167 38 -49 112 -26 190 60 30
34 79 105 79 116 0 13 -113 7 -165 -9z"/>
<path d="M1594 6209 c-3 -6 -2 -15 3 -20 5 -5 9 -1 9 11 0 23 -2 24 -12 9z"/>
<path d="M4169 5822 c14 -26 32 -39 63 -44 24 -5 26 -3 17 14 -6 11 -26 26
-44 34 -44 18 -48 18 -36 -4z"/>
<path d="M4883 5832 c-26 -8 -63 -38 -63 -51 0 -15 63 6 78 26 10 15 17 35 10
32 -2 -1 -13 -4 -25 -7z"/>
<path d="M4250 5825 c0 -14 34 -65 47 -69 26 -10 13 33 -17 54 -16 12 -30 18
-30 15z"/>
<path d="M4781 5796 c-23 -25 -21 -49 3 -40 11 4 36 45 36 59 0 12 -19 3 -39
-19z"/>
<path d="M4329 5773 c7 -40 34 -64 52 -46 17 17 1 51 -30 68 l-28 14 6 -36z"/>
<path d="M4712 5784 c-23 -16 -30 -48 -12 -59 20 -12 50 15 50 45 0 34 -6 36
-38 14z"/>
<path d="M4150 5755 l-25 -13 29 -8 c32 -8 77 5 84 24 5 17 -56 15 -88 -3z"/>
<path d="M4840 5760 c0 -22 76 -41 93 -23 4 3 -1 12 -11 19 -20 15 -82 19 -82
4z"/>
<path d="M4221 5731 c-27 -15 -30 -19 -16 -24 28 -11 59 -8 84 9 18 13 20 18
10 25 -20 13 -40 10 -78 -10z"/>
<path d="M4400 5741 c0 -5 -2 -16 -5 -23 -4 -9 4 -19 19 -26 31 -14 41 6 20
37 -16 22 -34 28 -34 12z"/>
<path d="M4640 5729 c-7 -11 -9 -27 -6 -35 5 -12 10 -13 28 -3 32 16 31 15 18
38 -14 27 -26 27 -40 0z"/>
<path d="M4775 5741 c-7 -12 33 -41 56 -41 10 0 25 3 34 6 14 6 12 10 -12 25
-30 20 -68 25 -78 10z"/>
<path d="M4295 5704 c-25 -19 -27 -24 -12 -29 18 -7 87 12 87 24 0 4 -10 12
-23 18 -18 9 -28 6 -52 -13z"/>
<path d="M4723 5713 c-20 -7 -15 -19 12 -31 56 -26 98 -4 46 23 -31 16 -38 17
-58 8z"/>
<path d="M4461 5686 c-10 -12 -8 -17 8 -26 23 -12 29 2 12 28 -6 10 -10 10
-20 -2z"/>
<path d="M4594 5686 c-10 -26 -1 -38 20 -23 16 12 16 14 2 26 -13 11 -17 11
-22 -3z"/>
<path d="M4358 5676 c-10 -7 -18 -16 -18 -18 0 -12 44 -16 69 -7 25 10 25 11
7 25 -24 17 -36 17 -58 0z"/>
<path d="M4663 5683 c-36 -14 12 -47 54 -37 l26 7 -22 19 c-23 18 -36 21 -58
11z"/>
<path d="M4432 5648 c-19 -19 -14 -30 11 -26 12 2 22 9 22 17 0 19 -18 24 -33
9z"/>
<path d="M4617 5653 c-14 -13 -7 -33 11 -33 26 0 34 11 21 27 -13 14 -22 16
-32 6z"/>
<path d="M1602 6100 c-12 -12 -22 -23 -22 -26 0 -7 38 15 45 27 13 20 -1 19
-23 -1z"/>
<path d="M2333 5233 c9 -2 25 -2 35 0 9 3 1 5 -18 5 -19 0 -27 -2 -17 -5z"/>
<path d="M2696 5192 c-3 -5 1 -9 9 -9 8 0 12 4 9 9 -3 4 -7 8 -9 8 -2 0 -6 -4
-9 -8z"/>
<path d="M2948 5193 c7 -3 16 -2 19 1 4 3 -2 6 -13 5 -11 0 -14 -3 -6 -6z"/>
<path d="M3052 5123 c-1 -46 -6 -73 -14 -76 -10 -4 -10 -6 0 -6 19 -1 23 19
19 90 l-3 64 -2 -72z"/>
<path d="M2763 5095 c0 -33 2 -45 4 -27 2 18 2 45 0 60 -2 15 -4 0 -4 -33z"/>
<path d="M6051 5083 c-1 -7 8 -17 19 -23 11 -6 17 -16 14 -22 -4 -7 -3 -8 4
-4 9 5 9 12 0 26 -7 10 -15 17 -19 14 -4 -2 -10 2 -12 8 -4 10 -6 10 -6 1z"/>
<path d="M7278 5083 c7 -3 16 -2 19 1 4 3 -2 6 -13 5 -11 0 -14 -3 -6 -6z"/>
<path d="M5891 5057 c-13 -21 -12 -21 5 -5 10 10 16 20 13 22 -3 3 -11 -5 -18
-17z"/>
<path d="M5345 5060 c-3 -5 0 -7 9 -4 8 3 16 -2 19 -13 4 -14 5 -14 6 5 1 22
-22 31 -34 12z"/>
<path d="M7291 5054 c0 -11 3 -14 6 -6 3 7 2 16 -1 19 -3 4 -6 -2 -5 -13z"/>
<path d="M5247 5053 l-37 -4 29 -25 c22 -18 36 -23 55 -18 14 3 26 10 26 15 0
5 6 6 14 3 8 -3 17 -1 21 5 3 7 0 8 -9 5 -11 -4 -16 0 -16 10 0 16 -5 17 -83
9z"/>
<path d="M6129 5032 c-3 -18 -2 -35 2 -38 12 -7 16 9 9 41 l-6 30 -5 -33z"/>
<path d="M2948 5043 c7 -3 16 -2 19 1 4 3 -2 6 -13 5 -11 0 -14 -3 -6 -6z"/>
<path d="M4746 5038 c3 -4 11 -5 19 -1 21 7 19 12 -4 10 -11 0 -18 -5 -15 -9z"/>
<path d="M5733 5043 c4 -7 -10 -10 -39 -8 -39 1 -43 0 -30 -13 10 -10 25 -13
50 -8 36 7 46 19 24 32 -6 4 -8 3 -5 -3z"/>
<path d="M1808 5033 c7 -3 16 -2 19 1 4 3 -2 6 -13 5 -11 0 -14 -3 -6 -6z"/>
<path d="M4699 5023 c-13 -16 -12 -17 4 -4 9 7 17 15 17 17 0 8 -8 3 -21 -13z"/>
<path d="M2590 5020 c0 -5 5 -10 10 -10 6 0 10 5 10 10 0 6 -4 10 -10 10 -5 0
-10 -4 -10 -10z"/>
<path d="M4731 5025 c0 -5 -14 -17 -30 -26 -22 -13 -32 -14 -42 -5 -11 9 -11
8 -1 -5 10 -13 6 -21 -19 -45 -68 -65 -162 -235 -148 -269 7 -18 8 -17 8 6 1
15 10 38 21 52 11 14 20 32 20 39 0 8 11 25 25 38 13 12 22 26 20 30 -3 4 2
13 10 20 10 9 15 9 15 1 0 -6 -5 -11 -12 -11 -6 0 -8 -3 -4 -7 4 -4 18 6 32
22 14 17 46 52 70 79 32 34 44 55 41 70 -2 11 -5 17 -6 11z m-30 -62 c-13 -24
-91 -99 -91 -88 0 8 90 105 97 105 2 0 -1 -8 -6 -17z"/>
<path d="M5991 5006 c-10 -12 -8 -17 7 -25 15 -8 21 -7 25 3 4 10 -1 12 -16 8
-20 -5 -20 -4 -8 11 7 9 11 17 8 17 -2 0 -10 -6 -16 -14z"/>
<path d="M4340 4983 c-82 -64 -179 -207 -188 -278 -2 -22 -9 -46 -15 -53 -20
-25 2 -24 36 2 19 15 37 23 39 19 3 -4 3 -2 2 4 -2 7 6 17 16 23 21 12 25 4
10 -20 -19 -31 15 -29 48 3 l33 32 -6 -26 c-8 -34 7 -44 30 -19 10 11 21 17
25 15 5 -3 25 17 45 44 23 32 41 48 50 45 12 -5 9 -13 -10 -42 -14 -20 -25
-46 -24 -57 0 -11 3 -14 6 -7 2 6 9 10 13 7 5 -3 12 0 16 6 4 8 3 9 -4 5 -19
-12 -14 2 18 46 17 22 30 52 30 66 l0 24 -19 -23 c-11 -13 -23 -21 -27 -17 -4
4 -1 16 7 25 13 16 12 17 -3 4 -25 -19 -23 4 2 29 11 11 16 20 12 20 -17 0
-42 -37 -42 -61 0 -17 -18 -42 -55 -79 -61 -60 -70 -57 -25 9 31 45 38 75 20
86 -5 3 -7 0 -5 -7 7 -17 -27 -63 -82 -112 -54 -48 -55 -39 -3 26 25 32 40 60
39 77 l-1 26 -10 -27 c-7 -22 -16 -28 -39 -28 -27 0 -29 2 -19 21 8 14 8 24 1
33 -8 10 -5 18 10 32 33 29 119 134 119 145 0 15 -13 10 -50 -18z m33 3 c-4
-8 -35 -45 -68 -82 -42 -47 -59 -75 -57 -90 2 -14 -4 -27 -17 -33 -11 -6 -23
-21 -27 -33 -3 -13 -14 -32 -23 -43 -15 -18 -15 -19 2 -6 14 11 17 11 17 0 0
-8 -9 -20 -20 -26 -18 -12 -19 -10 -16 22 1 19 11 43 21 55 10 11 14 20 10 20
-5 0 4 14 20 30 16 17 25 30 21 30 -10 0 14 33 79 106 55 62 74 79 58 50z
m-102 -252 c-9 -12 -18 -20 -20 -18 -2 2 -12 -1 -22 -7 -22 -11 -25 1 -9 32 8
13 20 19 39 17 28 -2 28 -3 12 -24z"/>
<path d="M4219 4793 c-13 -16 -12 -17 4 -4 16 13 21 21 13 21 -2 0 -10 -8 -17
-17z"/>
<path d="M4236 4738 c3 -5 10 -6 15 -3 13 9 11 12 -6 12 -8 0 -12 -4 -9 -9z"/>
<path d="M6538 5003 c7 -3 16 -2 19 1 4 3 -2 6 -13 5 -11 0 -14 -3 -6 -6z"/>
<path d="M4087 4993 c-11 -10 -8 -145 2 -138 5 3 19 31 31 61 20 54 20 57 3
70 -21 15 -27 17 -36 7z"/>
<path d="M2639 4988 c-1 -4 -1 -162 0 -221 l1 -48 108 5 c59 2 202 5 317 5
l211 1 -2 78 c-1 42 -2 101 -3 130 l-1 52 -315 0 c-173 0 -315 -1 -316 -2z
m469 -54 c7 16 15 26 18 23 3 -3 -2 -19 -11 -37 -15 -29 -15 -34 1 -76 9 -24
14 -47 10 -51 -3 -3 -6 0 -6 8 -1 8 -7 28 -15 44 l-15 30 3 -42 c1 -24 -1 -43
-5 -43 -5 0 -7 39 -7 88 1 51 4 75 8 58 l6 -30 13 28z m-251 -15 c35 -67 -12
-185 -47 -120 -13 26 -13 107 1 132 13 25 30 20 46 -12z m81 -122 c12 -3 11
-5 -5 -6 -22 -1 -23 2 -21 82 l2 82 3 -77 c3 -62 7 -78 21 -81z m89 127 c3
-19 3 -19 -5 0 -7 17 -9 17 -15 3 -3 -8 4 -38 15 -66 18 -43 19 -52 8 -66 -13
-16 -15 -15 -27 1 -7 10 -13 25 -12 33 0 9 7 3 14 -14 11 -24 15 -27 20 -13 4
9 -3 38 -14 64 -21 47 -20 89 2 81 7 -2 13 -12 14 -23z m160 -96 c-2 -24 -4
-5 -4 42 0 47 2 66 4 43 2 -24 2 -62 0 -85z m-437 67 c0 -30 -5 -47 -16 -53
-11 -6 -15 -17 -11 -31 3 -11 1 -21 -4 -21 -5 0 -9 34 -9 75 0 68 2 75 20 75
17 0 20 -7 20 -45z"/>
<path d="M2816 4924 c-9 -24 -7 -107 4 -124 14 -22 31 -1 37 46 8 62 -24 122
-41 78z"/>
<path d="M2720 4890 c0 -22 5 -40 10 -40 6 0 10 18 10 40 0 22 -4 40 -10 40
-5 0 -10 -18 -10 -40z"/>
<path d="M5802 4948 c-2 -17 -8 -38 -14 -45 -6 -7 -9 -16 -6 -18 9 -10 25 19
32 58 4 20 3 37 -1 37 -5 0 -10 -14 -11 -32z"/>
<path d="M4755 4950 c-3 -5 -1 -10 4 -10 6 0 11 5 11 10 0 6 -2 10 -4 10 -3 0
-8 -4 -11 -10z"/>
<path d="M2276 4928 c3 -4 9 -8 15 -8 5 0 9 4 9 8 0 5 -7 9 -15 9 -8 0 -12 -4
-9 -9z"/>
<path d="M2260 4860 c-9 -6 -10 -10 -3 -10 6 0 15 5 18 10 8 12 4 12 -15 0z"/>
<path d="M3760 4868 c0 -3 6 -11 14 -17 10 -9 17 -7 27 6 12 16 12 17 -2 6
-12 -10 -18 -10 -27 -1 -7 7 -12 9 -12 6z"/>
<path d="M2390 4830 c9 -7 11 -13 5 -16 -6 -2 -9 -20 -7 -39 3 -21 -1 -42 -9
-52 -10 -12 -10 -15 -1 -9 8 5 12 0 12 -13 0 -12 -7 -21 -16 -21 -9 0 -12 5
-8 12 4 7 -7 2 -24 -11 -28 -20 -46 -41 -23 -27 12 8 41 -4 41 -16 0 -5 -5 -6
-12 -2 -7 4 -8 3 -4 -4 10 -16 14 -15 27 9 8 15 8 19 0 15 -6 -4 -11 -2 -11 3
0 6 9 11 20 11 18 0 20 7 22 70 0 39 1 75 2 82 1 6 -6 13 -14 15 -13 4 -13 3
0 -7z"/>
<path d="M4860 4830 c-1 -3 -3 -13 -5 -24 -2 -10 -12 -28 -23 -40 -27 -29 -42
-61 -42 -88 0 -18 4 -14 20 18 21 43 86 114 103 114 9 0 4 -8 -40 -63 -24 -30
-31 -87 -11 -87 6 0 22 10 35 22 l23 21 0 -21 c0 -31 15 -35 36 -9 l19 22 -22
-19 c-28 -24 -30 -8 -4 42 22 43 68 88 96 95 15 3 12 5 -9 6 -29 1 -52 -19
-133 -116 -17 -21 -35 -35 -39 -30 -8 8 5 37 41 86 14 19 25 40 25 47 0 19
-25 17 -41 -2 -12 -15 -14 -14 -20 7 -4 13 -8 22 -9 19z"/>
<path d="M4593 4814 c4 -4 -7 -23 -24 -42 -25 -28 -30 -41 -25 -66 4 -17 11
-35 17 -41 7 -7 7 -1 0 18 -15 40 -15 43 19 77 31 31 39 60 18 60 -6 0 -8 -3
-5 -6z"/>
<path d="M4661 4803 c0 -12 -14 -37 -30 -55 -35 -41 -55 -78 -46 -86 8 -9 88
-32 93 -28 5 5 -71 31 -81 28 -11 -3 0 15 41 65 25 31 32 49 29 70 -3 21 -4
23 -6 6z"/>
<path d="M4721 4801 c0 -16 -22 -45 -58 -80 -32 -31 -45 -48 -30 -38 26 17 27
17 27 -3 0 -27 12 -25 49 6 17 14 29 20 26 12 -3 -8 1 -31 10 -51 9 -21 13
-42 10 -47 -12 -20 17 -19 45 1 l30 22 -40 18 c-53 24 -52 44 6 115 26 31 42
54 36 50 -6 -3 -12 -1 -14 5 -2 6 -17 -8 -33 -31 -29 -41 -105 -113 -112 -106
-2 2 10 24 27 48 23 33 30 53 27 74 -3 25 -4 26 -6 5z"/>
<path d="M5083 4813 c-7 -2 -34 -32 -60 -66 -25 -34 -39 -56 -31 -49 14 11 15
9 13 -15 -1 -16 -6 -36 -10 -45 -8 -21 2 -41 17 -32 6 4 5 10 -3 15 -11 8 -7
15 16 34 17 14 43 29 59 33 16 4 31 13 32 20 1 7 0 8 -3 2 -2 -5 -11 -10 -19
-10 -12 0 -12 4 -4 20 10 19 10 20 -9 8 -11 -6 -18 -15 -15 -19 2 -5 -6 -13
-18 -20 -21 -11 -22 -11 -9 5 12 14 12 16 -4 10 -17 -7 -17 -5 1 26 10 18 32
46 47 61 27 28 27 33 0 22z"/>
<path d="M4055 4761 c-27 -28 -51 -49 -54 -48 -3 1 -19 -7 -36 -16 -26 -16
-27 -17 -5 -11 22 6 23 5 11 -10 -12 -14 -12 -16 2 -10 15 5 144 144 134 144
-2 0 -26 -22 -52 -49z"/>
<path d="M3960 4781 c0 -15 58 -23 77 -11 16 10 16 10 -3 5 -12 -3 -33 -1 -48
4 -14 6 -26 7 -26 2z"/>
<path d="M3655 4744 l-30 -26 33 22 c17 12 32 23 32 26 0 7 -4 5 -35 -22z"/>
<path d="M5110 4738 c0 -6 3 -8 7 -5 3 4 13 1 22 -6 14 -11 14 -10 2 6 -15 20
-31 22 -31 5z"/>
<path d="M5900 4746 c0 -2 15 -6 34 -8 19 -2 32 0 30 4 -5 8 -64 12 -64 4z"/>
<path d="M3909 4719 l-24 -20 28 17 c15 9 27 18 27 20 0 8 -8 4 -31 -17z"/>
<path d="M6607 4729 c7 -7 15 -10 18 -7 3 3 -2 9 -12 12 -14 6 -15 5 -6 -5z"/>
<path d="M2030 4715 c-11 -13 -10 -14 4 -9 9 3 16 10 16 15 0 13 -6 11 -20 -6z"/>
<path d="M5984 4707 c3 -10 6 -21 6 -23 0 -2 12 -3 28 -3 20 1 22 3 7 6 -11 3
-26 13 -33 22 -12 15 -13 14 -8 -2z"/>
<path d="M5432 4694 c9 -9 21 -15 27 -13 6 2 -2 10 -17 17 -25 11 -25 11 -10
-4z"/>
<path d="M3471 4684 c0 -11 3 -14 6 -6 3 7 2 16 -1 19 -3 4 -6 -2 -5 -13z"/>
<path d="M3445 4662 c-4 -18 -4 -36 -1 -39 3 -4 7 5 7 18 1 18 3 15 9 -11 7
-34 7 -34 8 -5 0 17 -3 39 -7 50 -7 17 -9 16 -16 -13z"/>
<path d="M3898 4678 c5 -5 16 -8 23 -6 8 3 3 7 -10 11 -17 4 -21 3 -13 -5z"/>
<path d="M4065 4664 c-40 -14 -40 -14 -5 -9 19 3 39 10 44 15 12 12 12 12 -39
-6z"/>
<path d="M5315 4660 c-3 -4 8 -10 25 -12 16 -2 27 -1 25 3 -7 11 -44 18 -50 9z"/>
<path d="M2311 4624 c7 -8 6 -14 -3 -17 -7 -3 3 -5 22 -6 31 0 33 1 12 10 -13
5 -21 13 -18 17 3 5 -1 9 -9 9 -11 0 -12 -4 -4 -13z"/>
<path d="M2888 4623 c7 -3 16 -2 19 1 4 3 -2 6 -13 5 -11 0 -14 -3 -6 -6z"/>
<path d="M4288 4563 c7 -3 16 -2 19 1 4 3 -2 6 -13 5 -11 0 -14 -3 -6 -6z"/>
<path d="M3223 4530 c19 -16 40 -30 46 -30 7 0 -4 14 -22 30 -19 17 -40 30
-46 30 -7 0 4 -13 22 -30z"/>
<path d="M3780 4530 c0 -6 7 -24 15 -40 18 -35 135 -117 135 -95 0 8 -4 14 -8
13 -4 -2 -21 11 -37 28 -17 16 -24 22 -16 12 17 -21 4 -23 -23 -3 -10 7 -15
19 -11 25 4 6 1 9 -7 8 -7 -2 -12 3 -10 10 1 8 -2 11 -7 8 -5 -3 -12 1 -15 9
-7 19 15 29 49 23 13 -3 22 -1 19 3 -8 13 -84 11 -84 -1z"/>
<path d="M4111 4504 c0 -11 3 -14 6 -6 3 7 2 16 -1 19 -3 4 -6 -2 -5 -13z"/>
<path d="M3972 4430 c0 -19 2 -27 5 -17 2 9 2 25 0 35 -3 9 -5 1 -5 -18z"/>
<path d="M4400 4416 c0 -2 7 -7 16 -10 8 -3 12 -2 9 4 -6 10 -25 14 -25 6z"/>
<path d="M4398 4376 c-3 -16 -1 -23 7 -19 7 2 11 13 8 24 -7 25 -10 24 -15 -5z"/>
<path d="M2450 4345 l-16 -32 33 20 c38 22 39 23 16 35 -15 8 -21 3 -33 -23z"/>
<path d="M5002 4363 c-10 -10 -30 -36 -42 -58 -26 -46 -19 -40 34 28 40 49 43
60 8 30z"/>
<path d="M4623 4295 c-51 -22 -40 -35 27 -35 64 0 66 1 50 31 -13 22 -33 24
-77 4z"/>
<path d="M3310 4280 c0 -11 4 -20 9 -20 5 0 7 9 4 20 -3 11 -7 20 -9 20 -2 0
-4 -9 -4 -20z"/>
<path d="M3370 4294 c0 -3 5 -14 10 -24 8 -15 15 -17 34 -11 13 6 29 5 37 0 8
-5 25 -8 39 -8 22 1 20 3 -10 13 -19 6 -45 17 -57 24 -22 12 -53 16 -53 6z"/>
<path d="M3530 4250 c20 -13 33 -13 25 0 -3 6 -14 10 -23 10 -15 0 -15 -2 -2
-10z"/>
<path d="M3627 4246 c-5 -11 3 -17 28 -22 39 -7 78 3 72 19 -6 19 -93 21 -100
3z"/>
<path d="M4245 4249 c-11 -17 1 -21 15 -4 8 9 8 15 2 15 -6 0 -14 -5 -17 -11z"/>
<path d="M6545 4250 c27 -12 43 -12 25 0 -8 5 -22 9 -30 9 -10 0 -8 -3 5 -9z"/>
<path d="M1609 4243 c0 -5 -2 -16 -4 -26 -2 -11 -1 -16 3 -13 8 8 14 46 7 46
-3 0 -5 -3 -6 -7z"/>
<path d="M4580 4235 c0 -8 8 -11 20 -8 11 3 20 7 20 8 0 1 -9 5 -20 8 -12 3
-20 0 -20 -8z"/>
<path d="M2878 4207 c-16 -6 -28 -15 -28 -19 0 -7 55 16 69 28 7 7 -13 2 -41
-9z"/>
<path d="M3180 4200 c-9 -6 -10 -10 -3 -10 6 0 15 5 18 10 8 12 4 12 -15 0z"/>
<path d="M3730 4205 c0 -5 5 -17 10 -25 5 -8 10 -10 10 -5 0 6 -5 17 -10 25
-5 8 -10 11 -10 5z"/>
<path d="M2963 4153 c2 -18 0 -30 -4 -27 -5 3 -13 -10 -18 -28 l-9 -33 -1 43
c-1 30 2 41 11 36 7 -5 8 -3 3 6 -6 10 -11 9 -22 -5 -16 -23 -18 -85 -2 -85 6
0 8 -7 5 -16 -3 -8 -2 -12 3 -9 5 3 12 1 16 -5 3 -5 15 -10 25 -10 18 0 19 6
14 61 -3 34 -10 71 -15 83 -8 18 -9 16 -6 -11z"/>
<path d="M3033 4130 c0 -30 2 -43 4 -27 2 15 2 39 0 55 -2 15 -4 2 -4 -28z"/>
<path d="M4241 4164 c0 -11 3 -14 6 -6 3 7 2 16 -1 19 -3 4 -6 -2 -5 -13z"/>
<path d="M3636 4161 c-4 -5 3 -7 14 -4 23 6 26 13 6 13 -8 0 -17 -4 -20 -9z"/>
<path d="M5275 4130 c-3 -6 1 -7 9 -4 18 7 21 14 7 14 -6 0 -13 -4 -16 -10z"/>
<path d="M4113 4103 c-7 -3 -13 -9 -13 -14 0 -6 6 -7 13 -3 8 5 7 2 -2 -10
-11 -13 -16 -14 -22 -4 -4 6 -6 15 -4 18 2 3 -5 6 -15 7 -15 1 -15 -2 6 -24
13 -14 21 -30 17 -36 -4 -6 -1 -7 7 -2 10 6 12 4 6 -11 -6 -17 -6 -18 9 -3 20
19 17 88 -2 82z m7 -49 c0 -8 -5 -12 -10 -9 -6 4 -8 11 -5 16 9 14 15 11 15
-7z"/>
<path d="M5860 4081 c0 -4 8 -19 19 -32 10 -13 21 -31 24 -39 5 -13 6 -13 6 0
1 8 -8 30 -19 48 -20 32 -30 40 -30 23z"/>
<path d="M3974 4065 c-10 -8 -14 -15 -8 -15 6 0 17 7 24 15 16 19 9 19 -16 0z"/>
<path d="M5327 4054 c-3 -4 1 -17 10 -30 13 -21 22 -24 72 -22 l56 1 -48 6
c-51 6 -63 22 -25 32 20 5 19 6 -11 12 -41 9 -46 9 -54 1z"/>
<path d="M2251 4034 c0 -11 3 -14 6 -6 3 7 2 16 -1 19 -3 4 -6 -2 -5 -13z"/>
<path d="M4575 4030 c-10 -11 -13 -20 -7 -20 6 0 16 9 22 20 6 11 9 20 7 20
-2 0 -12 -9 -22 -20z"/>
<path d="M3570 4030 c0 -5 5 -10 11 -10 5 0 7 5 4 10 -3 6 -8 10 -11 10 -2 0
-4 -4 -4 -10z"/>
<path d="M3751 4008 c-6 -17 -9 -34 -6 -36 3 -3 6 1 6 9 1 8 5 -2 9 -21 7 -31
8 -29 9 23 0 31 -1 57 -3 57 -2 0 -9 -14 -15 -32z"/>
<path d="M3956 4032 c-2 -4 -1 -14 4 -22 7 -11 9 -9 7 8 -1 24 -3 26 -11 14z"/>
<path d="M5438 4033 c7 -3 16 -2 19 1 4 3 -2 6 -13 5 -11 0 -14 -3 -6 -6z"/>
<path d="M6439 4023 c-13 -17 -13 -17 6 -3 11 8 22 16 24 17 2 2 0 3 -6 3 -6
0 -17 -8 -24 -17z"/>
<path d="M6621 4036 c2 -2 15 -9 29 -15 24 -11 24 -11 6 3 -16 13 -49 24 -35
12z"/>
<path d="M6481 4023 c-1 -6 -4 -20 -7 -30 -5 -17 -5 -17 6 0 6 10 9 23 6 30
-3 9 -5 9 -5 0z"/>
<path d="M4410 4000 c0 -5 5 -10 11 -10 5 0 7 5 4 10 -3 6 -8 10 -11 10 -2 0
-4 -4 -4 -10z"/>
<path d="M2565 3980 c-5 -14 -8 -32 -6 -42 1 -9 -3 -19 -9 -23 -5 -3 -9 -16
-9 -28 1 -20 2 -21 6 -2 3 11 11 27 18 35 18 22 23 43 15 65 -7 19 -8 18 -15
-5z"/>
<path d="M6531 3974 c0 -11 3 -14 6 -6 3 7 2 16 -1 19 -3 4 -6 -2 -5 -13z"/>
<path d="M2519 3953 l-24 -28 28 24 c25 23 32 31 24 31 -2 0 -14 -12 -28 -27z"/>
<path d="M6560 3960 c-9 -6 -10 -10 -3 -10 6 0 15 5 18 10 8 12 4 12 -15 0z"/>
<path d="M4666 3945 c-3 -8 -1 -15 4 -15 6 0 10 7 10 15 0 8 -2 15 -4 15 -2 0
-6 -7 -10 -15z"/>
<path d="M3460 3939 c0 -5 5 -7 10 -4 6 3 10 8 10 11 0 2 -4 4 -10 4 -5 0 -10
-5 -10 -11z"/>
<path d="M1580 3929 c0 -5 5 -7 10 -4 6 3 10 8 10 11 0 2 -4 4 -10 4 -5 0 -10
-5 -10 -11z"/>
<path d="M1896 3923 c-6 -14 -5 -15 5 -6 7 7 10 15 7 18 -3 3 -9 -2 -12 -12z"/>
<path d="M4965 3931 c4 -7 7 -36 6 -63 0 -41 3 -51 18 -55 13 -3 18 -12 16
-24 -7 -36 13 -19 22 19 l9 37 32 -97 c41 -124 41 -176 3 -227 l-18 -24 -43
84 c-23 46 -51 107 -60 134 -10 28 -19 43 -19 33 -1 -9 -7 -18 -13 -20 -9 -3
3 -36 36 -104 27 -54 51 -118 54 -141 2 -24 7 -43 11 -43 8 0 59 72 93 131 15
26 33 51 40 55 7 5 5 -4 -5 -20 -10 -15 -17 -30 -14 -32 3 -3 20 23 40 58 24
44 31 67 25 75 -6 7 -8 20 -4 28 3 9 2 13 -4 10 -6 -3 -10 -14 -10 -25 0 -10
-6 -20 -13 -23 -11 -4 -12 3 -6 36 5 23 8 62 7 87 l0 45 -8 -47 c-9 -50 -40
-109 -40 -75 0 10 -4 16 -9 13 -5 -4 -7 2 -4 13 3 10 -1 22 -8 27 -9 5 -10 2
-6 -10 4 -9 3 -15 -2 -11 -5 3 -12 19 -16 35 -4 17 -11 30 -16 30 -4 0 -6 14
-2 30 3 18 1 30 -5 30 -5 0 -8 -8 -5 -19 3 -10 0 -22 -6 -25 -6 -4 -11 1 -12
11 0 16 -1 16 -8 -2 -7 -18 -8 -18 -14 5 -4 14 -16 36 -28 50 -11 14 -18 19
-14 11z"/>
<path d="M2459 3909 l-24 -20 28 17 c15 9 27 18 27 20 0 8 -8 4 -31 -17z"/>
<path d="M4936 3910 c-5 -14 -7 -29 -5 -35 1 -5 3 -20 4 -33 1 -12 17 -42 35
-67 33 -45 51 -54 31 -17 -6 11 -8 22 -5 25 3 3 -4 8 -15 12 -12 3 -22 13 -22
21 -1 8 -2 20 -3 27 -1 6 -7 18 -14 26 -9 10 -10 17 -1 27 6 7 9 19 7 26 -3 7
-8 1 -12 -12z"/>
<path d="M6761 3914 c0 -11 3 -14 6 -6 3 7 2 16 -1 19 -3 4 -6 -2 -5 -13z"/>
<path d="M3022 3871 c-31 -38 -33 -62 -4 -38 13 10 15 9 8 -3 -4 -9 -2 -8 7 2
8 10 17 14 21 10 4 -4 6 -2 5 3 -2 6 2 20 9 31 11 20 7 34 -8 34 -4 0 -21 -17
-38 -39z"/>
<path d="M3440 3904 c0 -5 -16 -26 -34 -46 -19 -21 -31 -40 -27 -43 10 -6 75
84 67 92 -3 4 -6 2 -6 -3z"/>
<path d="M1960 3895 c0 -5 5 -17 10 -25 5 -8 10 -10 10 -5 0 6 -5 17 -10 25
-5 8 -10 11 -10 5z"/>
<path d="M2377 3864 c-27 -14 -46 -28 -43 -32 4 -3 12 0 18 6 7 7 17 12 22 12
6 0 5 -5 -2 -12 -19 -19 -14 -38 10 -47 17 -6 30 -2 55 18 37 29 41 41 16 41
-15 0 -16 2 -3 10 19 12 13 12 -30 0 l-35 -10 25 20 c33 26 25 24 -33 -6z m23
-49 c7 -9 10 -18 6 -22 -3 -3 -6 -1 -6 5 0 7 -5 11 -11 10 -6 -2 -14 3 -16 10
-6 17 12 15 27 -3z"/>
<path d="M5314 3878 c11 -7 28 -21 39 -32 12 -11 18 -13 15 -5 -3 8 -20 22
-39 32 -19 10 -25 12 -15 5z"/>
<path d="M5320 3846 c0 -2 8 -10 18 -17 15 -13 16 -12 3 4 -13 16 -21 21 -21
13z"/>
<path d="M2520 3810 c-6 -11 -8 -20 -6 -20 3 0 10 9 16 20 6 11 8 20 6 20 -3
0 -10 -9 -16 -20z"/>
<path d="M5375 3801 c5 -15 2 -27 -6 -32 -11 -7 -10 -9 4 -9 19 0 23 27 6 50
-8 12 -9 10 -4 -9z"/>
<path d="M3016 3777 c3 -10 9 -15 12 -12 3 3 0 11 -7 18 -10 9 -11 8 -5 -6z"/>
<path d="M3054 3758 l-19 -23 23 19 c21 18 27 26 19 26 -2 0 -12 -10 -23 -22z"/>
<path d="M3729 3753 c-13 -16 -12 -17 4 -4 9 7 17 15 17 17 0 8 -8 3 -21 -13z"/>
<path d="M3790 3675 c-15 -53 -12 -58 24 -49 29 7 33 27 14 69 -16 35 -24 32
-38 -20z"/>
<path d="M3578 3693 c-23 -6 -23 -10 5 -50 25 -37 47 -50 42 -25 -2 9 -4 32
-4 50 -1 32 -6 35 -43 25z"/>
<path d="M5750 3690 c0 -5 5 -10 11 -10 5 0 7 5 4 10 -3 6 -8 10 -11 10 -2 0
-4 -4 -4 -10z"/>
<path d="M5214 3649 c-5 -19 -7 -50 -4 -69 6 -33 7 -32 14 22 10 68 4 94 -10
47z"/>
<path d="M4841 3664 c-2 -19 -98 -55 -139 -53 -40 3 -102 -24 -101 -44 1 -17
17 -54 18 -41 1 8 16 7 53 -2 28 -8 54 -12 56 -9 2 2 -7 7 -21 10 -25 7 -57
43 -57 65 0 5 9 10 21 10 11 0 18 -3 16 -7 -3 -5 4 -17 15 -28 19 -20 19 -20
13 0 -6 18 -6 18 5 2 6 -9 15 -15 20 -12 5 3 11 1 15 -5 4 -6 11 -7 17 -4 6 4
8 2 4 -4 -3 -6 -2 -13 4 -17 5 -3 10 -2 10 4 0 6 14 33 30 62 17 28 29 59 27
68 -3 9 -5 11 -6 5z"/>
<path d="M5903 3655 c-3 -9 -3 -18 -1 -21 3 -3 8 4 11 16 6 23 -1 27 -10 5z"/>
<path d="M6464 3633 c6 -19 12 -27 14 -19 2 8 10 12 18 9 22 -8 17 1 -14 24
l-28 21 10 -35z"/>
<path d="M2926 3617 c3 -10 9 -15 12 -12 3 3 0 11 -7 18 -10 9 -11 8 -5 -6z"/>
<path d="M2800 3581 c-11 -22 -24 -42 -30 -46 -5 -3 -10 -13 -10 -21 0 -10 12
-14 44 -14 24 0 63 -7 86 -15 23 -8 44 -15 46 -15 1 0 -1 14 -6 32 -5 17 -7
43 -5 57 5 26 5 26 -5 3 -5 -13 -7 -34 -4 -47 5 -21 3 -23 -18 -18 -34 8 -48
31 -48 80 0 56 -22 58 -50 4z"/>
<path d="M5645 3590 c22 -44 21 -44 28 -26 3 7 -6 24 -20 37 l-26 24 18 -35z"/>
<path d="M5165 3546 c-14 -30 -25 -61 -25 -68 0 -48 -116 -218 -148 -218 -17
0 -25 45 -18 90 5 30 3 38 -7 34 -8 -3 -20 9 -30 28 -14 27 -17 28 -12 8 26
-118 26 -170 -1 -235 -5 -12 18 2 57 35 35 31 82 69 104 84 22 16 55 43 74 60
l34 31 -40 -60 c-21 -33 -49 -80 -62 -104 -24 -47 -81 -124 -114 -154 -37 -33
-11 -26 43 11 82 57 84 57 56 16 -14 -22 -39 -61 -55 -89 -29 -48 -104 -127
-166 -175 -16 -12 -25 -21 -20 -18 17 7 128 59 153 71 13 6 40 26 60 45 20 18
32 31 26 28 -7 -3 -15 1 -18 10 -3 8 -2 13 3 10 5 -3 12 1 15 10 4 10 13 13
25 9 13 -4 26 4 45 25 31 37 33 50 8 50 -10 0 -22 4 -28 10 -6 6 -10 2 -11
-12 -2 -18 0 -20 7 -8 5 8 10 10 10 4 0 -17 -26 -47 -44 -50 -15 -2 -14 2 4
30 11 18 17 36 13 40 -10 10 48 66 61 59 6 -3 8 -2 3 2 -4 5 0 16 9 26 20 22
0 37 -24 17 -35 -30 -43 -31 -30 -4 6 14 15 26 19 26 4 0 6 8 5 18 -2 9 5 40
15 67 9 28 18 45 18 39 1 -6 -6 -31 -14 -55 -9 -24 -11 -39 -5 -33 15 15 42
106 30 99 -6 -4 -10 -2 -10 4 0 5 4 12 10 16 5 3 6 13 3 23 -3 9 -3 14 2 10 4
-4 25 28 46 72 48 98 50 116 6 36 -34 -62 -74 -100 -74 -72 0 9 4 13 8 11 10
-7 20 25 12 37 -3 6 -1 8 4 5 6 -4 13 5 16 20 5 27 5 27 -10 8 -14 -19 -15
-17 -9 28 3 26 3 47 1 47 -3 0 -16 -24 -30 -54z m0 -366 c-10 -11 -23 -20 -28
-20 -6 0 -2 9 8 20 10 11 23 20 28 20 6 0 2 -9 -8 -20z m-109 -144 c0 -13 -3
-23 -5 -20 -2 2 -17 -17 -32 -41 -16 -25 -31 -45 -35 -45 -3 0 4 15 16 33 11
17 28 47 37 65 20 38 21 39 19 8z m-1 -86 c-3 -5 -16 -15 -28 -21 -22 -12 -22
-12 -3 10 19 21 43 30 31 11z"/>
<path d="M3559 3581 c11 -7 11 -9 0 -13 -8 -3 -11 -8 -8 -12 3 -3 14 -4 23 0
13 5 14 9 5 20 -6 8 -17 14 -23 14 -6 0 -5 -4 3 -9z"/>
<path d="M5904 3575 c10 -8 23 -12 27 -9 5 3 9 0 9 -7 0 -7 3 -9 7 -5 10 9
-25 36 -46 36 -13 -1 -12 -3 3 -15z"/>
<path d="M5310 3541 c17 -32 12 -61 -12 -70 -22 -8 -22 -9 8 -24 l32 -16 6 48
c8 58 0 81 -25 81 -16 0 -18 -3 -9 -19z"/>
<path d="M2011 3534 c0 -11 3 -14 6 -6 3 7 2 16 -1 19 -3 4 -6 -2 -5 -13z"/>
<path d="M2359 3529 c-7 -4 -5 -8 4 -12 8 -3 20 0 26 6 6 6 14 8 18 4 3 -4 -2
-14 -13 -22 -17 -12 -15 -12 18 -1 41 14 67 33 29 21 -16 -5 -21 -4 -17 4 8
12 -46 12 -65 0z"/>
<path d="M3535 3503 c-5 -29 -3 -40 11 -50 26 -19 34 -16 34 13 0 14 5 34 10
45 6 10 7 19 2 19 -13 0 -39 -32 -45 -55 -3 -11 -4 -1 -1 23 7 52 -1 56 -11 5z"/>
<path d="M4221 3517 c-17 -17 -14 -23 22 -45 27 -15 37 -17 50 -7 15 10 12 15
-22 37 -28 19 -42 23 -50 15z m59 -45 c-15 -5 -62 27 -55 38 3 6 20 0 36 -12
17 -13 25 -24 19 -26z"/>
<path d="M4900 3511 c0 -11 4 -22 9 -25 4 -3 6 6 3 19 -5 30 -12 33 -12 6z"/>
<path d="M5762 3490 c0 -14 2 -19 5 -12 2 6 2 18 0 25 -3 6 -5 1 -5 -13z"/>
<path d="M5741 3468 c-1 -14 -5 -28 -9 -30 -4 -1 -3 -25 3 -53 l11 -50 7 45
c3 25 2 61 -3 80 -7 31 -8 32 -9 8z m6 -50 c-3 -8 -6 -5 -6 6 -1 11 2 17 5 13
3 -3 4 -12 1 -19z"/>
<path d="M5962 3465 c0 -16 2 -22 5 -12 2 9 2 23 0 30 -3 6 -5 -1 -5 -18z"/>
<path d="M5103 3450 c2 -8 0 -23 -5 -32 -5 -10 -6 -18 -4 -18 13 0 24 37 15
51 -9 12 -10 12 -6 -1z"/>
<path d="M3377 3439 c7 -7 15 -10 18 -7 3 3 -2 9 -12 12 -14 6 -15 5 -6 -5z"/>
<path d="M5845 3432 c-26 -48 -34 -72 -45 -137 -14 -76 -29 -117 -40 -110 -4
3 -16 -5 -26 -18 l-19 -22 23 19 c31 27 28 8 -5 -28 -16 -17 -21 -25 -12 -18
8 6 33 19 55 27 35 14 37 14 20 0 -24 -18 -8 -20 16 -1 10 7 15 16 11 19 -5 6
18 11 38 9 11 -2 36 32 44 58 l7 25 -23 -24 c-15 -16 -24 -20 -27 -12 -2 7 9
27 26 44 16 18 37 47 47 65 15 32 13 31 -30 -15 -26 -26 -53 -56 -60 -66 -12
-17 -13 -17 -11 6 0 14 4 23 7 21 4 -2 9 12 11 32 2 19 0 37 -4 40 -4 3 -8 15
-8 27 1 22 1 22 15 3 8 -11 15 -15 15 -9 0 6 -7 16 -15 23 -12 10 -12 15 2 36
8 13 11 24 7 24 -5 0 -14 -8 -19 -18z"/>
<path d="M5791 3391 l-34 -46 38 36 c21 20 36 41 34 47 -2 5 -19 -11 -38 -37z"/>
<path d="M3446 3423 c6 -4 14 -15 17 -23 5 -11 6 -9 4 4 -1 11 -9 21 -17 23
-10 3 -11 2 -4 -4z"/>
<path d="M5951 3404 c0 -11 3 -14 6 -6 3 7 2 16 -1 19 -3 4 -6 -2 -5 -13z"/>
<path d="M3544 3368 l-19 -21 28 18 c28 18 33 25 19 25 -5 0 -17 -10 -28 -22z"/>
<path d="M5667 3372 c-12 -13 -19 -51 -26 -138 -4 -67 -14 -130 -20 -142 -15
-28 1 -29 49 -1 19 11 26 18 16 14 -18 -5 -19 0 -12 116 4 67 11 132 16 145
11 28 0 31 -23 6z"/>
<path d="M1627 3373 c-4 -3 -2 -13 3 -23 5 -10 6 -20 3 -24 -3 -3 2 -6 12 -6
14 0 16 3 8 11 -6 6 -9 17 -7 24 6 14 -9 28 -19 18z"/>
<path d="M4102 3348 c7 -15 15 -23 17 -17 2 6 -4 18 -13 27 -15 15 -15 15 -4
-10z"/>
<path d="M1680 3337 c0 -14 5 -29 10 -32 7 -4 8 3 4 22 -9 38 -14 42 -14 10z"/>
<path d="M2055 3350 c3 -5 8 -10 11 -10 2 0 4 5 4 10 0 6 -5 10 -11 10 -5 0
-7 -4 -4 -10z"/>
<path d="M1950 3340 c0 -5 5 -10 11 -10 5 0 7 5 4 10 -3 6 -8 10 -11 10 -2 0
-4 -4 -4 -10z"/>
<path d="M1988 3343 c6 -2 18 -2 25 0 6 3 1 5 -13 5 -14 0 -19 -2 -12 -5z"/>
<path d="M2600 3342 c0 -5 -17 -28 -37 -53 -20 -24 -33 -41 -29 -37 11 10 49
-39 41 -52 -3 -5 -13 -10 -22 -10 -9 0 -14 -3 -10 -6 3 -3 15 -3 27 1 17 5 20
12 16 30 -4 17 -1 25 12 29 10 3 32 24 49 46 28 37 32 39 44 23 12 -15 12 -16
-4 -10 -11 4 -16 3 -12 -3 9 -14 32 -12 38 4 3 8 -8 19 -29 30 -37 17 -84 22
-84 8z"/>
<path d="M4830 3313 c0 -9 10 -62 21 -118 21 -97 21 -107 7 -164 l-16 -61 27
22 c22 19 26 30 27 78 1 30 4 67 9 82 5 20 2 32 -13 48 -11 12 -27 46 -37 76
-17 55 -25 67 -25 37z"/>
<path d="M5365 3309 c-5 -8 -4 -10 3 -5 7 4 12 2 12 -3 0 -6 -12 -11 -26 -11
-32 0 -28 -19 9 -40 24 -13 28 -13 44 4 17 18 17 18 -7 6 -23 -12 -24 -12 -11
3 21 26 37 20 55 -18 18 -36 30 -48 19 -17 -9 24 -52 92 -59 92 -3 0 -2 -4 1
-10 8 -13 -8 -13 -22 1 -8 8 -13 7 -18 -2z"/>
<path d="M3052 3258 c14 -13 28 -30 30 -38 4 -12 7 -11 15 5 10 18 6 22 -30
38 l-42 17 27 -22z"/>
<path d="M3995 3270 c-3 -5 -2 -10 4 -10 5 0 13 5 16 10 3 6 2 10 -4 10 -5 0
-13 -4 -16 -10z"/>
<path d="M4042 3260 c9 -13 14 -16 20 -7 4 6 2 15 -5 19 -21 14 -28 9 -15 -12z"/>
<path d="M3366 3244 c-4 -9 -4 -19 -1 -22 3 -3 5 -1 5 5 0 6 8 9 19 6 11 -3
21 2 25 13 5 13 4 14 -7 6 -9 -8 -17 -8 -24 -1 -7 7 -12 5 -17 -7z"/>
<path d="M2858 3223 c-7 -16 -19 -37 -27 -48 l-15 -20 20 20 c20 20 48 75 39
75 -3 0 -11 -12 -17 -27z"/>
<path d="M4127 3229 c-4 -16 -3 -18 9 -8 7 6 11 15 8 20 -8 13 -11 11 -17 -12z"/>
<path d="M4315 3230 c-3 -5 4 -23 16 -40 22 -29 22 -30 4 -52 -13 -16 -10 -14
10 4 l29 27 -19 36 c-20 36 -29 42 -40 25z"/>
<path d="M4742 3190 c-7 -29 -11 -55 -9 -57 7 -6 30 84 25 98 -2 6 -9 -12 -16
-41z"/>
<path d="M5531 3224 c0 -11 3 -14 6 -6 3 7 2 16 -1 19 -3 4 -6 -2 -5 -13z"/>
<path d="M4269 3193 l-24 -28 28 24 c25 23 32 31 24 31 -2 0 -14 -12 -28 -27z"/>
<path d="M6662 3195 c6 -14 15 -25 20 -25 5 0 1 11 -8 25 -9 14 -18 25 -20 25
-2 0 2 -11 8 -25z"/>
<path d="M2081 3205 c3 -2 23 -7 45 -10 28 -4 35 -3 24 4 -15 10 -78 16 -69 6z"/>
<path d="M2882 3180 c0 -14 2 -19 5 -12 2 6 2 18 0 25 -3 6 -5 1 -5 -13z"/>
<path d="M4056 3149 c-49 -54 -83 -109 -67 -109 25 0 59 21 76 47 14 20 14 25
3 15 -13 -10 -17 -10 -22 3 -3 10 8 31 30 55 20 22 34 40 31 40 -2 0 -26 -23
-51 -51z"/>
<path d="M5334 3185 c21 -16 32 -13 21 4 -3 6 -14 11 -23 11 -15 -1 -15 -2 2
-15z"/>
<path d="M5540 3181 c-12 -24 -13 -34 -1 -27 9 6 22 46 15 46 -2 0 -8 -9 -14
-19z"/>
<path d="M2431 3183 c-1 -19 11 -21 59 -12 l45 8 -47 -2 c-27 -1 -50 2 -52 8
-3 5 -5 5 -5 -2z"/>
<path d="M3665 3182 c32 -14 91 -24 80 -13 -6 5 -30 12 -55 15 -29 4 -38 3
-25 -2z"/>
<path d="M4592 3165 c0 -16 2 -22 5 -12 2 9 2 23 0 30 -3 6 -5 -1 -5 -18z"/>
<path d="M5892 3156 c-17 -19 -34 -32 -38 -28 -4 4 -4 1 0 -6 5 -8 -1 -23 -15
-38 -13 -14 -17 -22 -9 -19 19 7 109 125 97 125 -3 0 -18 -15 -35 -34z"/>
<path d="M3798 3163 c7 -3 16 -2 19 1 4 3 -2 6 -13 5 -11 0 -14 -3 -6 -6z"/>
<path d="M3582 3115 c0 -50 0 -50 13 -20 l13 30 0 -43 c0 -24 2 -45 5 -48 3
-3 5 20 6 50 0 43 -3 54 -14 50 -7 -3 -15 2 -18 13 -3 10 -5 -4 -5 -32z"/>
<path d="M3830 3150 c0 -6 7 -10 15 -10 8 0 15 2 15 4 0 2 -7 6 -15 10 -8 3
-15 1 -15 -4z"/>
<path d="M2235 3129 c1 -10 7 -24 13 -29 8 -7 9 -7 3 1 -5 6 -7 17 -5 24 3 7
1 15 -4 19 -5 3 -8 -4 -7 -15z"/>
<path d="M5160 3135 c0 -5 5 -17 10 -25 5 -8 10 -10 10 -5 0 6 -5 17 -10 25
-5 8 -10 11 -10 5z"/>
<path d="M2260 3123 c0 -7 5 -15 10 -18 6 -4 8 -10 5 -15 -3 -4 2 -13 10 -20
13 -11 14 -10 9 6 -10 28 -34 60 -34 47z"/>
<path d="M4261 3108 c5 -10 11 -18 12 -18 2 0 3 8 3 18 0 10 -6 19 -13 19 -8
0 -9 -6 -2 -19z"/>
<path d="M5136 3113 c-6 -14 -5 -15 5 -6 7 7 10 15 7 18 -3 3 -9 -2 -12 -12z"/>
<path d="M2881 3104 c0 -11 3 -14 6 -6 3 7 2 16 -1 19 -3 4 -6 -2 -5 -13z"/>
<path d="M4592 3095 c0 -16 2 -22 5 -12 2 9 2 23 0 30 -3 6 -5 -1 -5 -18z"/>
<path d="M5801 3094 c-12 -15 -21 -23 -21 -18 0 4 -21 -13 -47 -38 -54 -52
-154 -106 -205 -110 -30 -3 -33 -1 -30 22 2 14 15 40 28 58 14 17 20 32 15 32
-6 0 -11 17 -12 38 0 35 -1 33 -23 -30 -26 -73 -53 -116 -94 -149 -21 -17 -23
-20 -7 -16 27 8 127 24 199 32 32 4 76 13 98 21 48 17 51 17 43 4 -3 -5 34 18
83 52 49 34 95 71 102 83 12 19 11 19 -6 3 -16 -16 -18 -16 -30 0 -10 14 -15
15 -26 4 -10 -10 -9 -14 10 -18 l22 -6 -23 -18 c-29 -22 -103 -60 -118 -60 -7
0 5 16 27 35 21 19 33 34 27 35 -7 0 -13 -3 -13 -8 0 -4 -10 -13 -21 -21 -13
-7 -5 7 20 36 22 27 41 52 41 56 0 15 -20 6 -39 -19z m-64 -109 c0 -8 -4 -12
-9 -9 -5 3 -6 10 -3 15 9 13 12 11 12 -6z"/>
<path d="M2846 3098 c3 -5 10 -6 15 -3 13 9 11 12 -6 12 -8 0 -12 -4 -9 -9z"/>
<path d="M4305 3091 c-4 -13 -11 -18 -18 -14 -7 4 -5 -2 3 -13 22 -29 23 -30
18 -14 -3 8 -1 23 4 33 5 10 7 21 5 24 -3 2 -8 -5 -12 -16z"/>
<path d="M4747 3093 c-4 -7 -1 -42 8 -78 19 -82 19 -157 0 -210 -8 -22 -15
-41 -15 -42 0 -2 17 10 39 25 l38 27 -15 32 c-14 30 -14 36 0 65 14 31 14 35
-9 69 -13 20 -27 56 -31 80 -5 26 -11 39 -15 32z"/>
<path d="M6230 3092 c0 -5 16 -26 36 -46 21 -21 34 -30 30 -21 -3 9 -6 21 -6
26 0 5 -6 8 -12 7 -7 -2 -12 3 -10 10 1 8 -2 11 -7 8 -5 -4 -12 -2 -15 3 -4 5
2 12 11 14 14 4 13 5 -4 6 -13 0 -23 -3 -23 -7z"/>
<path d="M5162 3038 l-21 -33 30 -3 c40 -4 42 -1 26 37 l-14 33 -21 -34z"/>
<path d="M3571 3044 c0 -11 3 -14 6 -6 3 7 2 16 -1 19 -3 4 -6 -2 -5 -13z"/>
<path d="M5095 3049 c-4 -6 -5 -12 -2 -15 2 -3 7 2 10 11 7 17 1 20 -8 4z"/>
<path d="M5356 2968 c-30 -101 -53 -146 -98 -194 l-29 -31 32 5 c25 4 35 13
48 43 10 21 35 55 55 75 27 26 34 39 25 44 -12 8 -8 95 6 133 4 9 3 17 -2 17
-6 0 -22 -42 -37 -92z"/>
<path d="M5674 3019 c-17 -18 -22 -28 -12 -24 14 6 55 55 45 55 -2 0 -16 -14
-33 -31z"/>
<path d="M2408 3033 c6 -2 18 -2 25 0 6 3 1 5 -13 5 -14 0 -19 -2 -12 -5z"/>
<path d="M2457 3014 c3 -8 16 -14 29 -14 32 0 30 6 -5 18 -25 9 -29 8 -24 -4z"/>
<path d="M6675 3020 c3 -5 11 -10 16 -10 6 0 7 5 4 10 -3 6 -11 10 -16 10 -6
0 -7 -4 -4 -10z"/>
<path d="M3556 2988 c-24 -34 -19 -39 19 -21 19 9 35 23 35 30 0 21 -38 15
-54 -9z"/>
<path d="M3972 2985 c0 -16 2 -22 5 -12 2 9 2 23 0 30 -3 6 -5 -1 -5 -18z"/>
<path d="M5225 2958 l-50 -53 53 50 c48 46 57 55 49 55 -1 0 -25 -24 -52 -52z"/>
<path d="M6062 2983 c-33 -25 -39 -47 -22 -73 8 -11 9 -8 4 11 -3 17 -1 30 7
35 9 5 11 2 6 -8 -4 -11 0 -15 11 -14 9 2 32 -3 49 -11 18 -7 33 -10 33 -7 0
4 9 -1 20 -11 18 -16 20 -16 26 -2 3 9 4 22 1 29 -3 7 -6 3 -6 -9 -1 -22 -2
-22 -20 -6 -11 9 -17 21 -14 27 3 6 0 5 -8 -1 -7 -7 -20 -13 -28 -13 -13 1
-12 3 2 11 14 8 16 14 6 25 -15 18 -5 18 31 -1 17 -9 30 -13 30 -10 0 2 -22
16 -48 29 l-48 24 -32 -25z m53 -4 c-3 -4 -13 -5 -22 -2 -15 6 -16 5 -3 -9 9
-10 17 -12 21 -6 4 7 9 7 13 0 3 -5 -2 -13 -11 -16 -9 -4 -20 -1 -25 6 -6 10
-8 10 -8 -2 0 -13 -1 -13 -10 0 -11 18 16 51 36 43 8 -3 12 -9 9 -14z"/>
<path d="M2425 2990 c-3 -6 1 -7 9 -4 18 7 21 14 7 14 -6 0 -13 -4 -16 -10z"/>
<path d="M3377 2993 c-13 -12 -7 -43 8 -43 8 0 15 5 15 10 0 6 -4 10 -10 10
-5 0 -7 7 -4 15 6 16 2 20 -9 8z"/>
<path d="M6278 2993 c12 -2 30 -2 40 0 9 3 -1 5 -23 4 -22 0 -30 -2 -17 -4z"/>
<path d="M6665 2989 c-4 -6 -5 -12 -2 -15 2 -3 7 2 10 11 7 17 1 20 -8 4z"/>
<path d="M2294 2978 c3 -10 1 -18 -3 -18 -5 0 -11 5 -13 12 -3 8 -9 8 -24 -1
-14 -10 -15 -11 -2 -7 10 3 20 1 23 -4 4 -6 25 -10 47 -10 40 0 41 0 23 20
-10 11 -23 20 -28 20 -6 0 -2 -6 9 -14 18 -14 18 -15 1 -12 -10 1 -23 9 -29
17 -8 11 -9 11 -4 -3z"/>
<path d="M4000 2958 c0 -25 -3 -29 -10 -18 -5 8 -10 11 -10 5 1 -5 7 -19 15
-29 14 -18 15 -16 15 27 0 26 -2 47 -5 47 -3 0 -5 -15 -5 -32z"/>
<path d="M3205 2948 c13 -44 55 -98 75 -98 19 0 20 2 6 29 -20 38 -65 91 -78
91 -5 0 -6 -10 -3 -22z"/>
<path d="M5049 2913 c-13 -16 -12 -17 4 -4 16 13 21 21 13 21 -2 0 -10 -8 -17
-17z"/>
<path d="M3851 2917 c2 -1 13 -9 24 -17 19 -14 19 -14 6 3 -7 9 -18 17 -24 17
-6 0 -8 -1 -6 -3z"/>
<path d="M5660 2901 c-19 -9 -53 -28 -75 -44 -45 -31 -64 -35 -44 -9 13 15 12
16 -3 4 -10 -8 -16 -19 -15 -24 1 -6 -4 -13 -12 -16 -9 -3 -11 0 -7 9 4 8 1 6
-7 -4 -8 -10 -42 -27 -76 -38 -33 -12 -61 -22 -61 -24 0 -4 62 1 135 11 l40 5
-40 -30 c-22 -16 -42 -28 -44 -26 -2 2 -17 -3 -33 -11 -24 -13 -27 -18 -16
-27 7 -7 12 -11 10 -10 -2 1 -23 -5 -45 -13 -39 -13 -41 -13 -22 2 l20 17 -20
-8 c-48 -18 -123 -35 -155 -35 -25 0 -31 -3 -20 -9 16 -9 126 -16 195 -11 33
2 36 3 16 9 -21 5 -16 9 32 24 31 10 59 23 63 29 5 7 2 8 -7 3 -12 -8 -12 -6
0 9 8 9 20 15 28 12 9 -4 11 -1 7 6 -5 8 -2 9 9 5 10 -3 17 -2 17 3 0 6 -6 10
-12 11 -7 0 -3 5 10 11 12 6 22 15 22 19 0 5 7 5 17 2 11 -4 14 -3 9 5 -8 14
8 16 32 3 12 -6 24 -2 42 17 14 13 18 21 10 16 -8 -4 -37 -9 -65 -10 -45 -2
-47 -1 -22 9 15 6 27 14 27 19 0 4 6 8 13 8 16 0 86 51 87 64 0 4 -16 -6 -35
-23 -52 -45 -57 -37 -7 10 24 23 42 42 40 44 -2 1 -19 -5 -38 -14z m-33 -127
c-3 -3 -12 -4 -19 -1 -8 3 -5 6 6 6 11 1 17 -2 13 -5z m-187 -79 c-7 -8 -18
-15 -24 -15 -6 0 -2 7 8 15 25 19 32 19 16 0z"/>
<path d="M4637 2845 c4 -38 7 -94 7 -123 1 -28 4 -52 8 -52 4 0 5 -7 1 -16 -5
-14 -3 -14 18 -2 13 7 27 18 32 23 4 6 5 -2 3 -17 -3 -15 1 -29 7 -31 24 -8
73 25 85 56 l12 32 -23 -25 c-12 -15 -33 -35 -46 -45 l-24 -20 7 38 c7 40 5
43 -26 26 -28 -15 -31 -6 -7 24 11 15 17 27 12 27 -15 0 -46 62 -60 120 l-13
55 7 -70z"/>
<path d="M4320 2892 c0 -6 -12 -24 -26 -41 -26 -31 -25 -63 1 -41 8 7 24 9 37
6 13 -3 18 -3 11 0 -7 3 -9 13 -6 22 4 13 3 14 -5 3 -15 -21 -25 5 -12 30 7
11 9 23 6 27 -3 3 -6 0 -6 -6z m-29 -75 c-10 -9 -11 -8 -5 6 3 10 9 15 12 12
3 -3 0 -11 -7 -18z"/>
<path d="M4991 2874 c-17 -14 -31 -32 -31 -40 0 -9 -3 -13 -7 -11 -5 3 -17 -7
-28 -22 -17 -23 -17 -24 -1 -11 10 8 28 19 39 25 12 6 26 20 32 32 6 11 17 28
24 37 20 24 6 19 -28 -10z"/>
<path d="M5192 2883 c-6 -10 -18 -45 -27 -78 -19 -68 -49 -118 -97 -165 -21
-20 -26 -30 -15 -26 10 3 32 6 48 6 26 0 29 3 29 31 0 22 9 40 30 59 26 24 30
35 30 78 0 28 5 63 10 78 12 31 6 44 -8 17z"/>
<path d="M6050 2883 c0 -6 8 -17 18 -24 16 -13 16 -13 2 6 -8 11 -16 22 -17
24 -2 2 -3 0 -3 -6z"/>
<path d="M6150 2854 c-17 -9 -20 -14 -9 -14 9 0 22 7 29 15 15 18 13 18 -20
-1z"/>
<path d="M6090 2850 c0 -6 7 -10 15 -10 8 0 15 2 15 4 0 2 -7 6 -15 10 -8 3
-15 1 -15 -4z"/>
<path d="M3101 2829 c5 -11 12 -19 15 -19 3 0 2 5 -2 12 -5 8 0 9 14 6 12 -4
20 -3 17 2 -3 4 -16 10 -29 12 -22 4 -24 3 -15 -13z"/>
<path d="M2521 2836 c2 -2 15 -9 29 -15 24 -11 24 -11 6 3 -16 13 -49 24 -35
12z"/>
<path d="M4510 2820 c-8 -5 -10 -10 -5 -10 6 0 17 5 25 10 8 5 11 10 5 10 -5
0 -17 -5 -25 -10z"/>
<path d="M5006 2781 c-9 -10 -30 -55 -45 -99 -16 -45 -39 -95 -51 -112 -19
-27 -68 -61 -87 -60 -5 0 -8 -8 -8 -17 0 -13 7 -17 25 -15 14 1 30 3 35 3 21
2 241 -13 254 -17 11 -4 10 -8 -4 -24 -17 -19 -17 -19 2 -16 10 2 36 13 58 24
22 11 47 23 55 26 8 3 0 4 -18 1 -40 -6 -122 5 -122 16 0 4 9 6 20 4 12 -2 29
5 42 18 11 12 17 16 13 8 -4 -7 6 -3 23 9 18 13 34 21 38 18 3 -4 -12 -18 -33
-32 -44 -30 -35 -35 11 -7 17 11 34 20 39 20 4 1 8 4 8 9 1 4 22 17 48 29 46
23 46 23 14 23 -17 0 -35 -5 -38 -10 -4 -6 -11 -8 -16 -5 -5 4 -9 2 -9 -3 0
-5 -6 -9 -12 -9 -7 -1 -56 -16 -108 -35 -95 -35 -191 -48 -219 -29 -21 13 15
81 51 95 21 8 26 15 21 26 -14 28 -6 95 16 138 24 46 23 52 -3 23z m-171 -291
c3 -5 1 -10 -4 -10 -6 0 -11 5 -11 10 0 6 2 10 4 10 3 0 8 -4 11 -10z m335
-36 c0 -2 -10 -9 -22 -15 -20 -11 -21 -10 -11 3 7 8 10 18 6 22 -4 4 0 4 10 0
9 -3 17 -8 17 -10z"/>
<path d="M4420 2760 c-1 -23 -2 -24 -14 -7 -22 28 -28 19 -10 -15 15 -29 18
-30 29 -15 12 17 13 17 20 0 7 -17 8 -17 15 2 5 11 9 29 9 40 0 19 0 19 -10 2
-10 -18 -11 -18 -25 0 -12 17 -13 16 -14 -7z"/>
<path d="M4515 2770 c-4 -7 -2 -17 6 -22 11 -8 10 -9 -3 -4 -21 6 -37 -19 -31
-45 5 -16 -1 -19 -30 -19 -135 0 -282 -135 -303 -280 -7 -45 -19 -70 -34 -70
-5 0 -6 9 -3 20 3 11 0 20 -6 20 -10 0 -15 -20 -12 -47 1 -7 -7 -13 -17 -13
-11 0 -33 -7 -48 -15 -18 -9 -23 -15 -12 -15 9 0 24 -7 33 -16 9 -10 27 -18
39 -19 28 -4 78 -29 94 -48 11 -13 4 -14 -48 -10 -33 3 -75 13 -94 23 -32 16
-78 17 -651 13 -467 -4 -615 -2 -610 7 5 7 -1 7 -14 -2 -18 -11 -23 -11 -31 2
-8 12 -10 12 -10 1 0 -11 -3 -11 -17 0 -9 8 -14 10 -11 4 4 -7 -70 -8 -220 -4
-723 20 -769 21 -846 10 -44 -6 -81 -12 -82 -14 -1 -1 -5 -90 -9 -197 -3 -107
-13 -253 -22 -325 -9 -71 -16 -204 -16 -295 -1 -145 2 -178 26 -275 30 -125
57 -184 110 -238 23 -24 39 -52 43 -75 3 -20 12 -64 19 -97 8 -33 22 -138 32
-232 l18 -173 30 0 c17 0 37 6 43 12 9 9 17 10 30 2 13 -9 67 -12 67 -4 0 1
25 3 57 5 31 2 89 8 130 14 40 5 92 10 115 9 24 0 48 4 55 10 17 13 69 19 86
9 6 -5 18 -5 25 0 14 9 17 9 77 22 25 5 48 7 52 5 4 -3 16 0 26 5 16 9 93 19
187 24 17 1 35 5 40 8 6 4 39 10 75 14 36 4 69 10 75 13 5 3 24 5 41 3 18 -1
35 3 39 9 5 8 11 8 21 -1 11 -9 17 -9 29 1 14 11 61 20 114 20 13 0 30 5 38
12 11 9 15 7 20 -11 l6 -22 22 21 c20 19 23 19 29 4 6 -15 8 -15 27 2 12 11
30 18 41 16 10 -2 26 2 34 9 13 10 17 10 24 -1 7 -11 12 -11 33 3 21 13 143
25 182 16 24 -5 88 -9 187 -11 58 -2 110 -6 113 -10 4 -4 16 -3 26 3 13 6 25
6 39 -3 15 -9 22 -10 31 -1 9 9 16 9 30 0 14 -9 22 -7 37 6 15 14 25 15 45 8
14 -5 28 -7 31 -4 11 11 234 2 254 -11 7 -4 21 -4 33 -1 11 4 26 1 34 -5 10
-8 19 -9 28 -3 11 9 89 8 320 0 46 -2 71 -8 77 -17 7 -12 12 -11 29 4 11 10
18 23 15 30 -3 7 2 13 11 13 8 0 14 -7 13 -16 -2 -12 5 -16 29 -15 23 1 33 -3
36 -18 5 -19 6 -19 36 3 24 18 33 20 45 10 11 -10 17 -8 29 9 13 19 15 19 28
4 9 -11 22 -14 41 -10 21 4 34 0 50 -16 19 -19 22 -19 30 -4 6 11 16 15 29 11
11 -4 26 -2 34 5 10 8 18 8 33 -1 15 -9 24 -10 34 -2 20 16 170 6 181 -12 8
-16 37 -21 37 -7 0 10 156 9 166 -1 4 -3 18 -4 31 -1 13 4 29 1 36 -4 7 -6 22
-11 32 -11 37 0 80 -13 92 -29 11 -14 15 -13 33 3 16 14 23 16 32 7 7 -7 26
-12 44 -12 22 0 36 -7 47 -23 12 -18 19 -20 34 -12 17 10 56 10 141 1 20 -3
55 -7 77 -9 57 -6 196 -28 220 -34 11 -3 34 -6 50 -7 17 -1 37 -6 45 -11 8 -5
40 -10 71 -11 30 -1 66 -7 79 -14 18 -9 24 -9 30 0 5 9 9 9 14 1 4 -6 19 -11
34 -11 25 0 46 -2 150 -14 20 -3 61 -9 91 -15 30 -6 57 -8 61 -6 5 3 21 -2 36
-10 l29 -15 2 38 c1 20 8 122 14 226 9 135 9 193 2 206 -9 13 -5 30 14 76 54
129 82 215 113 344 18 74 43 156 56 182 37 74 43 112 59 373 4 63 1 155 -9
250 -8 83 -16 179 -17 215 0 36 -6 83 -12 105 l-11 40 -6 -45 c-3 -31 -10 -45
-20 -45 -10 0 -17 14 -20 45 l-5 45 -89 5 c-66 4 -91 10 -100 22 -11 15 -13
15 -24 0 -10 -15 -12 -15 -21 -2 -9 13 -11 13 -11 -1 0 -24 -233 -41 -257 -19
-15 14 -16 13 -4 -2 12 -16 9 -17 -26 -15 -21 2 -50 0 -65 -4 -19 -5 -28 -4
-28 4 0 8 -3 8 -9 -1 -4 -8 -11 -13 -15 -12 -3 1 -41 -1 -84 -4 -42 -3 -207
-8 -367 -11 -159 -3 -378 -7 -485 -10 -602 -15 -787 -19 -897 -19 -68 -1 -123
-4 -123 -8 0 -5 -9 -8 -21 -8 -11 0 -28 -4 -37 -9 -9 -4 -30 -11 -45 -15 -26
-6 -27 -5 -17 14 8 16 22 20 63 22 l52 2 -48 3 c-41 4 -48 7 -42 21 4 9 8 24
9 32 2 10 13 14 32 14 44 -3 46 -3 39 -14 -4 -6 -15 -6 -32 1 -34 13 -40 6 -9
-11 32 -16 52 -8 58 24 4 22 2 26 -18 26 -12 0 -25 -4 -29 -10 -7 -11 -35 -2
-35 12 0 5 38 8 93 6 82 -3 93 -1 93 14 0 9 -9 19 -19 22 -13 3 -17 0 -13 -10
4 -11 1 -12 -12 -6 -9 5 -24 7 -32 4 -23 -7 -9 3 28 21 18 8 30 11 27 6 -4 -5
-1 -9 4 -9 6 0 11 5 11 10 0 6 5 10 10 10 6 0 9 -5 8 -11 -2 -6 3 -13 10 -14
7 -2 8 -1 3 1 -16 8 0 41 25 53 31 14 32 34 2 22 -13 -5 -48 -21 -78 -35 -70
-33 -76 -32 -83 4 -5 23 -12 30 -29 29 -17 -1 -19 -2 -5 -6 21 -5 23 -23 2
-23 -8 0 -15 -4 -15 -10 0 -5 10 -10 23 -10 22 -1 22 -1 -3 -15 -32 -19 -50
-19 -50 0 0 8 -7 36 -16 62 -18 50 -20 112 -6 122 16 11 36 71 23 71 -11 0
-35 -31 -49 -63 l-12 -29 -51 46 c-45 41 -137 86 -174 86 -9 0 -15 10 -15 25
0 27 18 33 39 13 11 -11 12 -8 6 12 -13 43 -21 54 -30 40z m52 -221 c75 -36
123 -115 123 -201 0 -56 -46 -136 -98 -169 -149 -95 -332 6 -332 184 0 150
169 253 307 186z m-417 -244 c0 -8 -7 -15 -15 -15 -13 0 -14 3 -3 15 16 18 18
18 18 0z m-40 -31 c0 -16 -2 -16 -24 -8 -9 3 -16 10 -16 16 0 5 5 6 10 3 6 -3
10 -1 10 5 0 6 5 8 10 5 6 -3 10 -13 10 -21z m58 -24 l11 -30 -30 15 c-29 15
-35 26 -22 38 14 15 32 5 41 -23z m-86 -84 c7 4 8 2 4 -4 -4 -6 -12 -9 -20 -6
-7 3 -13 -2 -13 -10 0 -8 4 -13 9 -10 4 3 8 -1 8 -8 0 -9 3 -9 10 2 7 11 10 6
10 -22 0 -27 -9 -47 -35 -78 -19 -23 -35 -38 -35 -33 0 4 -4 3 -8 -2 -4 -6
-18 -16 -32 -23 -14 -7 -16 -10 -5 -6 11 3 67 12 125 19 70 8 90 13 58 14 -25
0 -48 4 -51 9 -2 4 -2 1 -1 -5 2 -9 -9 -13 -34 -13 -37 1 -37 1 32 36 38 20
77 33 87 31 11 -3 17 -2 14 3 -2 4 18 7 45 7 28 0 50 -4 50 -8 0 -5 5 -9 11
-9 5 0 7 6 3 13 -6 9 -5 9 8 0 8 -7 19 -9 23 -5 5 4 5 1 1 -6 -4 -7 -13 -9
-19 -6 -7 4 -10 5 -7 1 3 -3 10 -6 15 -7 6 -1 16 -6 23 -12 9 -8 11 -6 6 8 -4
14 -4 16 4 5 6 -9 17 -11 28 -7 15 5 16 4 7 -4 -9 -10 -37 -18 -165 -45 -9 -2
-26 -9 -38 -15 -11 -6 -26 -8 -32 -4 -6 4 -8 3 -4 -4 11 -18 -64 -36 -159 -37
-63 -1 -102 -7 -130 -20 -22 -10 -48 -17 -58 -16 -10 1 -59 -3 -110 -9 -129
-16 -305 -14 -419 5 -54 8 -106 19 -115 22 -17 7 -54 45 -49 51 2 1 48 -7 103
-17 191 -38 468 -36 528 3 23 15 60 12 50 -4 -3 -5 0 -12 6 -16 8 -4 9 -3 5 4
-5 8 1 12 16 12 37 0 147 75 153 105 3 14 7 37 10 51 6 28 68 91 73 74 2 -6 9
-7 14 -4z m1975 -58 c14 -16 18 -37 18 -95 0 -69 -2 -76 -28 -99 -38 -32 -72
-31 -109 6 -29 29 -30 34 -26 100 2 48 9 74 22 89 31 34 92 33 123 -1z m186
11 c52 -40 58 -154 11 -204 -59 -63 -144 -4 -144 100 0 101 69 155 133 104z
m-385 -59 c-3 -59 0 -70 15 -74 23 -6 22 -27 -2 -33 -13 -3 -17 -11 -13 -25 5
-22 -13 -39 -35 -31 -7 3 -13 16 -13 29 0 22 -4 24 -50 24 -65 0 -65 14 1 108
40 57 56 72 76 72 24 0 25 -1 21 -70z m436 29 c-2 -5 5 -6 17 -4 15 3 19 0 15
-11 -3 -9 -1 -12 4 -9 6 3 10 1 10 -4 0 -6 5 -11 10 -11 6 0 10 7 10 16 0 8
-4 12 -10 9 -5 -3 -10 -4 -10 -1 0 2 -3 13 -7 23 -7 17 -6 17 11 0 10 -9 21
-15 26 -12 7 4 7 -16 0 -35 -1 -3 -1 -16 0 -29 1 -13 -2 -21 -7 -18 -5 3 -9
-3 -9 -13 0 -10 3 -17 7 -14 4 2 13 -3 20 -12 10 -12 10 -15 -2 -12 -8 2 -13
-3 -11 -11 1 -7 -2 -19 -8 -26 -7 -9 -7 -15 -1 -19 6 -4 6 -17 -1 -37 -6 -16
-8 -33 -4 -36 3 -4 6 0 6 8 0 8 6 4 16 -9 8 -12 19 -20 24 -17 5 3 11 1 14 -4
4 -5 -2 -8 -11 -7 -10 2 -21 -4 -26 -13 -5 -12 -6 -11 -4 5 3 12 -1 21 -9 21
-7 0 -11 -4 -8 -9 3 -4 -1 -8 -8 -8 -9 0 -10 -2 -2 -8 8 -5 7 -11 -4 -22 -14
-13 -15 -12 -9 3 3 9 2 19 -3 22 -6 4 -10 14 -10 24 0 10 -6 24 -14 30 -8 7
-13 19 -11 29 1 9 0 11 -2 4 -3 -7 -9 -10 -14 -6 -6 3 -4 16 6 32 l16 27 -21
-24 c-21 -24 -21 -24 -1 -45 14 -15 17 -26 11 -36 -8 -13 -10 -13 -10 1 0 9
-9 24 -20 34 -11 10 -20 13 -20 7 0 -7 5 -12 10 -12 6 0 5 -8 -2 -20 -7 -11
-17 -20 -22 -20 -4 0 -3 6 3 14 6 7 8 21 5 31 -5 11 -9 13 -14 5 -5 -7 -11 -6
-21 6 -12 16 -12 17 3 11 10 -3 20 -2 24 4 3 6 12 8 19 5 8 -3 18 7 25 25 7
16 15 27 19 25 8 -6 6 111 -3 154 -5 25 -5 31 2 20 6 -8 9 -17 6 -21z m24 6
c-3 -3 -9 2 -12 12 -6 14 -5 15 5 6 7 -7 10 -15 7 -18z m-2123 -3 c-19 -18
-75 -46 -75 -38 0 18 14 33 28 29 9 -2 26 3 37 11 28 21 34 20 10 -2z m2345
-33 c0 -11 -5 -16 -13 -13 -10 3 -13 -3 -9 -25 5 -34 -26 -71 -58 -71 -25 0
-27 -20 -2 -21 39 -1 57 -9 74 -31 14 -19 15 -26 4 -43 -29 -44 -102 -59 -144
-29 -25 17 -28 40 -8 63 19 21 23 61 8 88 -30 55 -2 101 66 105 64 4 82 -1 82
-23z m36 19 c4 -7 3 -8 -4 -4 -15 9 -15 1 -1 -25 5 -11 14 -17 20 -14 5 4 9 3
8 -2 -1 -4 0 -10 1 -13 7 -19 7 -40 -1 -40 -5 0 -9 -5 -9 -11 0 -5 5 -7 10 -4
16 10 11 -1 -7 -16 -14 -12 -16 -12 -8 0 5 10 4 12 -4 7 -16 -10 6 -38 23 -30
6 3 1 -4 -12 -15 l-23 -20 30 1 c17 1 28 5 25 10 -3 4 -1 8 5 8 17 0 22 -18 6
-24 -8 -3 -12 -12 -9 -20 3 -8 0 -17 -6 -21 -6 -4 -11 -1 -9 6 3 27 -1 40 -12
33 -8 -4 -7 -9 2 -16 10 -7 9 -9 -7 -5 -12 2 -21 -1 -21 -8 0 -7 6 -11 14 -8
9 4 11 0 7 -13 -5 -16 -4 -16 5 -4 9 13 11 13 11 0 -1 -8 -7 -24 -15 -34 -8
-11 -15 -14 -15 -7 0 7 -5 9 -12 5 -9 -6 -9 -9 -1 -11 7 -3 10 -12 7 -21 -4
-13 -3 -13 6 2 10 15 14 16 21 5 11 -18 11 -32 0 -25 -4 3 -7 -9 -5 -27 3 -22
1 -28 -5 -17 -6 8 -7 18 -5 22 3 4 -2 5 -11 1 -9 -3 -13 -9 -8 -12 12 -9 9
-49 -5 -61 -8 -7 -9 -7 -3 1 10 13 2 51 -9 44 -5 -3 -7 3 -5 12 2 10 4 22 4
26 1 5 7 5 14 1 8 -5 8 -2 -2 9 -7 9 -10 17 -6 17 5 0 1 8 -8 18 -10 10 -14
22 -10 27 5 4 2 5 -5 1 -10 -6 -10 -11 -1 -22 6 -8 8 -14 4 -14 -4 0 -3 -6 3
-13 7 -8 7 -18 2 -27 -8 -12 -10 -11 -11 5 0 11 -3 14 -6 7 -3 -7 0 -19 6 -26
11 -13 5 -26 -11 -26 -5 0 -7 4 -4 9 3 5 -1 14 -9 21 -10 8 -13 21 -9 39 9 34
44 92 53 87 18 -12 2 39 -23 70 -25 31 -28 63 -5 48 5 -3 6 -10 3 -16 -4 -7
-2 -8 5 -4 8 5 9 12 2 19 -16 21 -1 67 23 68 11 0 15 3 9 6 -14 5 -18 35 -6
46 9 9 11 9 19 -5z m213 -71 c0 -9 -2 -8 -6 1 -2 6 -10 9 -15 6 -7 -4 -8 -2
-4 5 9 13 26 5 25 -12z m-29 -24 c0 -13 3 -13 15 -3 8 7 15 9 15 5 0 -4 8 -1
17 6 10 8 14 9 10 2 -4 -6 -3 -15 3 -18 8 -5 6 -14 -4 -30 -8 -12 -12 -25 -9
-29 10 -10 43 25 36 38 -4 6 3 2 15 -8 22 -19 32 -10 12 10 -7 7 -6 11 4 11 8
0 15 -3 14 -6 -3 -26 3 -31 25 -21 20 10 20 10 5 -3 -16 -13 -16 -15 6 -36
l24 -22 19 20 c15 16 20 18 20 6 0 -8 -4 -15 -9 -15 -5 0 4 -12 19 -26 15 -14
22 -23 16 -19 -7 3 -13 2 -13 -3 0 -6 7 -12 15 -16 8 -3 15 -9 14 -13 -1 -4
-1 -15 0 -23 1 -12 4 -12 12 3 5 9 8 21 5 25 -7 13 32 8 45 -5 7 -7 8 -17 3
-25 -13 -20 -13 -37 -1 -45 7 -3 9 -3 5 1 -3 4 0 19 8 34 12 24 11 29 -8 49
-11 12 -24 20 -28 18 -4 -2 -7 2 -7 10 0 13 3 13 17 0 9 -8 20 -12 25 -8 4 5
5 3 2 -3 -3 -6 7 -24 23 -39 17 -16 30 -34 30 -39 0 -6 11 -19 24 -30 16 -11
22 -24 19 -34 -4 -8 -2 -13 3 -10 5 3 17 -3 27 -14 15 -16 14 -22 -4 -20 -3 1
-6 -5 -6 -13 0 -7 8 -12 19 -10 24 5 51 -23 45 -47 -3 -11 -1 -16 5 -11 6 3
16 0 22 -8 6 -8 25 -22 41 -31 45 -25 45 -49 2 -46 -20 2 -33 5 -31 7 8 8 -72
60 -94 61 -15 0 -21 4 -16 12 4 7 3 8 -5 4 -15 -10 -43 12 -36 28 3 6 0 3 -7
-6 -11 -15 -13 -15 -26 0 -7 9 -10 11 -7 4 6 -11 3 -12 -12 -3 -11 6 -24 7
-28 3 -5 -4 -5 1 -2 11 4 10 3 16 -2 12 -5 -3 -11 1 -14 7 -3 10 -7 10 -20 -1
-9 -7 -14 -18 -10 -25 4 -7 1 -6 -9 1 -8 7 -19 9 -23 5 -5 -4 -5 -1 -1 6 4 7
12 10 17 7 5 -3 6 1 3 10 -4 9 -9 13 -12 11 -3 -3 -11 -1 -18 5 -9 8 -16 4
-25 -13 -7 -13 -12 -27 -11 -31 1 -5 -2 -6 -8 -2 -8 5 -7 12 2 23 11 13 10 14
-8 4 -19 -10 -24 -8 -37 11 -14 19 -16 19 -16 5 -1 -10 -5 -18 -11 -18 -5 0
-7 7 -4 15 4 8 1 15 -5 15 -12 0 -8 40 5 61 5 8 3 9 -6 4 -10 -6 -12 -4 -7 7
9 24 -4 30 -24 12 -9 -8 -31 -16 -48 -16 -18 -1 -32 -7 -32 -15 -1 -7 -2 -18
-3 -25 -1 -15 -26 -23 -26 -8 0 6 5 8 12 4 7 -4 8 -3 4 4 -13 22 -38 14 -32
-10 3 -13 3 -17 0 -10 -3 6 -10 10 -15 6 -5 -3 -16 1 -24 10 -9 8 -11 17 -6
21 6 3 14 -3 20 -12 9 -16 10 -16 11 4 0 21 -13 25 -37 10 -7 -4 -14 1 -18 14
-6 17 -9 19 -16 8 -5 -8 -9 -18 -9 -24 0 -5 5 -3 10 5 6 9 10 10 10 3 0 -6 8
-20 18 -29 15 -16 15 -17 0 -12 -9 4 -19 2 -22 -5 -3 -7 -3 -1 0 13 4 14 3 22
-1 18 -5 -4 -14 -3 -22 3 -15 13 -18 33 -3 24 14 -8 7 29 -8 48 -10 12 -8 23
10 58 13 24 27 47 32 50 5 4 6 14 3 24 -4 9 -3 14 3 10 6 -3 10 4 10 17 0 18
2 20 10 8 5 -8 5 -19 0 -25 -5 -6 2 -18 18 -30 17 -11 22 -13 15 -4 -7 9 -10
19 -6 22 3 4 1 12 -4 19 -14 19 -24 50 -14 43 5 -3 12 1 15 7 4 7 4 3 2 -9 -3
-19 0 -23 20 -23 17 0 22 4 17 16 -5 13 -8 13 -15 2 -6 -9 -7 -6 -3 10 4 14 2
22 -6 22 -7 0 -9 3 -5 7 4 5 15 -1 23 -12 15 -20 15 -20 10 3 -3 12 -1 20 4
16 5 -3 9 -12 9 -21z m-80 1 c0 -8 -19 -13 -24 -6 -3 5 1 9 9 9 8 0 15 -2 15
-3z m-298 -71 c-6 -2 -9 -10 -6 -15 4 -7 2 -8 -5 -4 -13 9 -5 26 12 25 9 0 8
-2 -1 -6z m573 -11 c-3 -3 -11 0 -18 7 -9 10 -8 11 6 5 10 -3 15 -9 12 -12z
m86 -54 c-11 -11 -13 -10 -7 0 4 7 2 21 -5 30 -12 15 -11 15 6 0 16 -15 17
-20 6 -30z m-854 13 c9 -14 8 -18 -2 -18 -8 0 -13 3 -12 6 1 3 -2 7 -8 8 -5 0
-8 -4 -7 -10 2 -7 0 -8 -4 -4 -4 4 -9 13 -10 20 -3 20 31 18 43 -2z m83 -37
c0 -8 -5 -12 -10 -9 -6 4 -8 11 -5 16 9 14 15 11 15 -7z m-89 -17 c-10 -9 -11
-8 -5 6 3 10 9 15 12 12 3 -3 0 -11 -7 -18z m127 1 c-2 -14 -11 -22 -25 -23
-12 -1 -20 2 -17 7 4 5 12 7 20 4 9 -3 14 2 14 14 0 11 3 20 6 20 3 0 4 -10 2
-22z m192 -7 c0 -6 -5 -13 -10 -16 -6 -4 -8 -10 -6 -14 3 -4 -4 -12 -14 -18
-16 -11 -18 -9 -15 14 3 31 45 62 45 34z m-4901 -38 c7 -24 7 -41 1 -47 -6 -6
-10 -18 -10 -28 0 -10 -5 -18 -11 -18 -5 0 -8 4 -5 9 4 5 7 34 7 65 1 31 3 56
5 56 2 0 8 -17 13 -37z m4814 0 c-3 -7 -6 -13 -8 -13 -2 0 -5 6 -8 13 -3 8 1
14 8 14 7 0 11 -6 8 -14z m452 -41 c-2 -41 -13 -56 -31 -41 -8 6 -14 19 -13
28 0 11 3 9 9 -6 12 -29 24 -30 15 -3 -4 12 -1 27 5 35 17 20 17 19 15 -13z
m-371 -10 c3 -5 -1 -9 -9 -9 -8 0 -12 4 -9 9 3 4 7 8 9 8 2 0 6 -4 9 -8z m305
-20 c-5 -2 -7 -8 -3 -13 3 -5 1 -9 -4 -9 -5 0 -9 11 -9 24 0 19 2 22 12 13 7
-7 9 -14 4 -15z m-5256 -33 c2 -19 7 -41 12 -49 11 -17 8 -122 -5 -153 -6 -18
-8 -14 -8 18 0 22 -5 53 -11 68 -6 16 -7 26 -2 22 5 -3 13 -1 16 5 4 6 1 9 -7
8 -7 -2 -13 5 -12 15 0 9 1 38 2 64 2 53 9 54 15 2z m5460 -39 c-7 -28 -13
-25 -13 6 0 14 4 23 9 20 5 -3 7 -15 4 -26z m537 -30 c0 -27 -3 -50 -7 -50 -5
0 -6 22 -5 50 5 65 12 65 12 0z m-460 19 c0 -6 -4 -7 -10 -4 -5 3 -10 11 -10
16 0 6 5 7 10 4 6 -3 10 -11 10 -16z m-516 -19 c-8 -8 -15 -5 -25 7 -13 17
-13 17 5 3 18 -14 19 -13 12 5 -6 16 -5 18 5 8 9 -9 10 -16 3 -23z m914 -52
c-3 -14 -18 -28 -31 -28 -4 0 -2 9 5 20 14 22 29 27 26 8z m-48 -20 c0 -30
-15 -52 -28 -44 -8 4 -8 16 0 36 12 35 28 40 28 8z m-1597 -757 c15 -1 27 -6
27 -12 0 -7 -14 -9 -37 -5 -21 3 -41 5 -45 6 -5 0 -8 4 -8 9 0 5 8 8 18 6 9
-2 29 -4 45 -4z m-279 -69 c2 -4 -10 -8 -27 -9 -30 -1 -30 -1 -7 7 14 4 26 8
27 9 1 1 4 -3 7 -7z m126 -3 c0 -3 -16 -6 -35 -7 -19 -1 -35 2 -35 6 0 4 16 8
35 8 19 0 35 -3 35 -7z m40 -9 c0 -5 -7 -7 -15 -4 -8 4 -12 10 -9 15 6 11 24
2 24 -11z m34 8 c-3 -4 -9 -8 -15 -8 -5 0 -9 4 -9 8 0 5 7 9 15 9 8 0 12 -4 9
-9z m74 -3 c3 -3 -4 -5 -16 -5 -11 0 -23 4 -27 9 -6 10 33 6 43 -4z m512 -11
c0 -8 -4 -12 -10 -9 -5 3 -10 10 -10 16 0 5 5 9 10 9 6 0 10 -7 10 -16z m-845
-52 c-3 -3 -11 0 -18 7 -9 10 -8 11 6 5 10 -3 15 -9 12 -12z m829 -30 c3 -5
-8 -6 -25 -4 -16 2 -29 6 -29 8 0 8 49 4 54 -4z"/>
<path d="M4416 2546 c-92 -34 -136 -96 -136 -191 0 -194 229 -266 354 -112 26
32 31 48 34 105 3 61 1 71 -27 114 -49 77 -146 113 -225 84z m99 -236 l-59
-60 -43 42 c-24 24 -39 44 -33 46 5 2 22 -10 36 -27 14 -17 31 -31 38 -31 6 0
34 22 61 50 27 27 51 47 54 45 3 -3 -22 -32 -54 -65z"/>
<path d="M5977 2088 c-24 -13 -24 -129 -1 -149 27 -22 49 1 52 56 5 83 -12
115 -51 93z"/>
<path d="M6164 2055 c-8 -42 1 -104 16 -119 7 -7 16 -7 28 0 13 9 17 26 17 80
0 67 -1 69 -27 72 -24 3 -28 -1 -34 -33z m52 -38 c1 -31 -2 -54 -7 -51 -5 3
-9 -2 -9 -11 0 -9 -5 -13 -10 -10 -7 4 -7 11 -2 18 5 7 12 21 15 32 7 19 7 20
-8 1 -12 -15 -15 -16 -20 -5 -5 12 -2 51 5 69 2 3 2 9 1 13 -1 5 6 7 16 5 15
-3 18 -14 19 -61z"/>
<path d="M5782 2027 l-22 -32 21 -3 c27 -5 31 0 27 37 l-3 30 -23 -32z"/>
<path d="M6314 1929 c-5 -8 -3 -9 6 -4 10 6 12 4 6 -11 -4 -10 -10 -26 -13
-34 -4 -13 -4 -13 6 0 10 14 16 7 12 -13 -1 -5 3 -6 9 -2 8 5 8 11 0 20 -6 7
-8 19 -4 28 7 18 -12 32 -22 16z"/>
<path d="M6332 1815 c0 -16 2 -22 5 -12 2 9 2 23 0 30 -3 6 -5 -1 -5 -18z"/>
<path d="M6437 2044 c-4 -4 -7 -18 -7 -31 0 -17 6 -23 21 -23 16 0 20 5 17 27
-3 26 -18 39 -31 27z"/>
<path d="M6420 1870 c0 -16 7 -20 35 -20 24 0 35 5 35 15 0 8 -7 15 -15 15 -8
0 -15 -4 -15 -10 0 -5 -8 -10 -17 -9 -11 0 -13 3 -5 6 6 2 10 9 6 14 -10 16
-24 10 -24 -11z"/>
<path d="M6557 2022 c-17 -4 -17 -5 3 -19 14 -10 25 -12 31 -6 13 13 -11 31
-34 25z"/>
<path d="M6774 1969 c-3 -5 -10 -7 -15 -4 -5 4 -9 1 -9 -4 0 -6 6 -11 14 -11
8 0 16 -6 19 -12 5 -15 24 -1 29 21 3 15 -29 24 -38 10z m24 -24 c-3 -3 -9 2
-12 12 -6 14 -5 15 5 6 7 -7 10 -15 7 -18z"/>
<path d="M6742 1931 c-19 -12 12 -35 39 -28 13 3 22 0 26 -9 7 -18 -16 -66
-28 -58 -4 2 -11 0 -14 -6 -4 -6 -1 -9 7 -8 7 2 14 -7 16 -19 4 -26 20 -30 28
-8 7 17 25 21 22 4 -2 -6 4 -14 12 -16 10 -3 11 -2 4 4 -6 4 -10 16 -8 26 3
24 -12 21 -30 -5 -11 -15 -16 -18 -16 -7 0 8 14 27 32 42 23 21 28 31 20 39
-7 7 -12 17 -12 23 0 5 5 2 11 -7 5 -10 16 -18 24 -18 7 0 16 8 18 18 4 16 5
16 6 -1 1 -11 6 -15 13 -11 8 5 9 2 5 -9 -3 -10 -2 -17 3 -17 22 0 17 19 -12
46 -17 16 -28 23 -24 17 4 -7 2 -13 -4 -13 -6 0 -8 -5 -4 -12 4 -7 3 -8 -5 -4
-6 4 -9 12 -6 17 14 22 -8 29 -30 9 -13 -12 -25 -17 -29 -12 -3 6 -15 8 -25 5
-10 -3 -22 1 -26 8 -5 8 -4 10 3 5 7 -4 12 -2 12 3 0 13 -10 14 -28 2z m93
-59 c2 -12 0 -21 -5 -19 -5 1 -16 -7 -25 -18 -16 -19 -16 -18 -1 7 9 15 16 35
16 44 0 22 9 13 15 -14z"/>
<path d="M6660 1875 c-8 -9 -8 -15 -2 -15 6 0 13 6 15 13 4 9 6 9 6 0 1 -7 -8
-17 -19 -23 -11 -6 -19 -18 -19 -28 1 -16 2 -15 6 1 2 9 9 15 14 12 5 -4 9 -1
9 5 0 6 4 8 10 5 6 -4 -1 -20 -17 -40 -25 -31 -43 -37 -43 -14 0 6 5 7 12 3 7
-5 8 -3 3 5 -5 9 -10 10 -18 2 -12 -12 18 -52 37 -48 6 1 10 -3 9 -9 -1 -6 9
-10 23 -10 27 2 34 21 7 21 -27 0 -43 14 -36 30 7 19 27 19 43 0 7 -9 15 -13
18 -10 3 2 11 -3 19 -13 12 -16 13 -16 6 2 -5 15 -3 17 8 11 12 -8 12 -6 0 8
-10 13 -17 15 -27 6 -13 -11 -18 -6 -15 14 0 4 -2 6 -6 6 -20 -3 -24 2 -14 15
8 9 8 16 2 20 -6 4 -8 13 -5 20 8 20 -12 28 -26 11z"/>
<path d="M6734 1879 c-4 -8 -3 -9 4 -5 15 9 15 1 1 -27 -10 -21 -10 -21 5 -3
9 11 16 23 16 27 0 14 -19 19 -26 8z"/>
<path d="M6877 1872 c-9 -2 -15 -8 -12 -13 4 -5 1 -9 -5 -9 -7 0 -7 -7 1 -22
7 -13 12 -25 12 -28 -1 -3 0 -7 2 -9 2 -2 2 8 0 22 -3 15 1 30 12 38 9 8 14 9
10 3 -4 -7 3 -14 18 -16 15 -3 22 -1 18 5 -3 6 -1 7 5 3 6 -4 8 -14 5 -22 -5
-13 -8 -13 -15 -2 -8 11 -9 10 -6 -1 2 -8 12 -15 21 -17 9 -1 15 2 11 7 -3 5
-1 9 4 9 6 0 8 9 5 21 -4 16 -11 19 -29 15 -14 -4 -26 -1 -31 7 -4 7 -16 11
-26 9z"/>
<path d="M6965 1856 c8 -13 13 -30 10 -39 -4 -8 -2 -18 4 -22 6 -3 11 -1 11 4
0 6 7 11 16 11 12 0 11 5 -7 20 -17 14 -20 20 -9 20 12 0 10 4 -4 15 -29 22
-39 18 -21 -9z"/>
<path d="M6886 1825 c4 -8 11 -15 16 -15 6 0 5 6 -2 15 -7 8 -14 15 -16 15 -2
0 -1 -7 2 -15z"/>
<path d="M7060 1805 c-6 -8 -9 -19 -5 -25 4 -6 -1 -18 -11 -26 -18 -14 -17
-14 4 -4 16 8 22 18 20 33 -2 14 2 21 10 19 8 -1 11 2 7 8 -8 13 -10 13 -25
-5z"/>
<path d="M6766 1802 c-3 -5 3 -21 13 -36 16 -24 19 -25 31 -11 11 13 10 15 -3
9 -16 -6 -42 28 -30 40 3 3 4 6 0 6 -3 0 -8 -4 -11 -8z"/>
<path d="M7010 1800 c-7 -22 -7 -39 0 -49 11 -19 19 9 9 34 -4 11 -8 18 -9 15z"/>
<path d="M7123 1784 c4 -4 1 -14 -6 -22 -6 -9 -7 -13 -2 -10 13 8 49 -18 41
-30 -3 -5 1 -9 9 -9 21 0 19 15 -4 29 -10 6 -17 17 -14 23 2 7 -4 15 -14 19
-9 4 -14 4 -10 0z"/>
<path d="M6756 1745 c-3 -8 -11 -14 -17 -13 -6 2 -13 -3 -14 -10 -2 -8 -1 -8
2 -1 3 6 8 7 12 2 3 -5 14 -1 23 9 10 9 13 20 9 23 -5 2 -12 -2 -15 -10z"/>
<path d="M7069 1708 c24 -28 41 -29 41 -3 0 8 -5 17 -10 20 -6 4 -10 3 -9 -2
4 -22 -3 -24 -23 -7 -21 17 -21 17 1 -8z"/>
<path d="M6897 1704 c-3 -3 -3 -13 0 -22 5 -11 3 -13 -7 -7 -9 5 -11 4 -6 -3
10 -16 14 -15 26 7 9 19 0 37 -13 25z"/>
<path d="M7051 1695 c1 -19 18 -51 18 -35 0 8 -4 22 -9 30 -5 8 -9 11 -9 5z"/>
<path d="M6921 1670 c0 -8 3 -21 8 -28 7 -11 9 -10 14 3 4 9 3 13 -2 10 -5 -3
-12 3 -14 12 -3 13 -5 14 -6 3z"/>
<path d="M6470 1785 c-7 -9 -11 -17 -9 -20 3 -2 10 5 17 15 14 24 10 26 -8 5z"/>
<path d="M2686 2754 c-3 -8 -2 -12 4 -9 6 3 22 -6 36 -22 26 -28 26 -28 -1 10
-31 42 -31 42 -39 21z"/>
<path d="M3014 2755 c-3 -8 -3 -19 1 -25 3 -5 1 -10 -4 -10 -6 0 -11 -8 -11
-17 1 -16 2 -16 12 2 11 18 18 65 11 65 -2 0 -6 -7 -9 -15z"/>
<path d="M4310 2739 c-16 -28 7 -54 39 -44 17 5 21 13 19 33 -4 35 -42 43 -58
11z m50 -14 c0 -8 -9 -15 -20 -15 -11 0 -20 7 -20 15 0 8 9 15 20 15 11 0 20
-7 20 -15z"/>
<path d="M4576 2744 c-3 -9 -6 -23 -5 -32 1 -10 4 -7 9 8 l7 25 8 -27 c9 -35
18 -35 33 -3 16 34 15 44 -2 22 -14 -18 -14 -17 -21 2 -8 25 -21 27 -29 5z"/>
<path d="M5328 2753 c7 -3 16 -2 19 1 4 3 -2 6 -13 5 -11 0 -14 -3 -6 -6z"/>
<path d="M3596 2738 c3 -5 10 -6 15 -3 13 9 11 12 -6 12 -8 0 -12 -4 -9 -9z"/>
<path d="M3668 2734 c-18 -17 -8 -44 16 -44 14 0 28 5 31 10 3 6 -3 10 -14 10
-11 0 -21 7 -23 16 -2 9 -6 12 -10 8z"/>
<path d="M3560 2702 c-23 -22 -23 -24 -3 -13 12 6 25 16 28 22 13 20 0 15 -25
-9z"/>
<path d="M4259 2718 c-14 -11 -12 -16 9 -38 21 -21 24 -22 17 -5 -4 11 -8 28
-9 38 0 9 -1 17 -1 17 -1 0 -8 -6 -16 -12z"/>
<path d="M6114 2711 c13 -12 17 -12 31 3 16 15 15 16 -14 14 -27 -2 -29 -4
-17 -17z"/>
<path d="M3027 2703 c-12 -12 -7 -21 16 -26 20 -5 20 -5 5 7 -10 7 -15 16 -11
19 3 4 4 7 1 7 -2 0 -8 -3 -11 -7z"/>
<path d="M6077 2692 c-10 -10 -17 -29 -16 -43 0 -22 1 -22 8 -4 5 11 7 23 5
26 -2 3 7 5 19 4 31 -3 40 4 26 21 -15 18 -23 18 -42 -4z"/>
<path d="M3838 2693 c6 -2 12 -13 12 -24 0 -21 15 -25 26 -7 7 11 -22 39 -40
37 -6 0 -5 -3 2 -6z"/>
<path d="M2761 2673 c7 -12 15 -20 18 -17 3 2 -3 12 -13 22 -17 16 -18 16 -5
-5z"/>
<path d="M4198 2679 c-39 -22 -8 -81 31 -59 23 12 27 40 9 58 -14 14 -18 14
-40 1z m30 -32 c2 -10 -3 -17 -12 -17 -18 0 -29 16 -21 31 9 14 29 6 33 -14z"/>
<path d="M2222 2650 c0 -19 2 -27 5 -17 2 9 2 25 0 35 -3 9 -5 1 -5 -18z"/>
<path d="M3741 2644 c0 -16 6 -39 15 -50 8 -10 12 -12 8 -4 -4 8 -11 30 -15
50 -7 35 -7 35 -8 4z"/>
<path d="M4029 2653 c-13 -16 -12 -17 4 -4 9 7 17 15 17 17 0 8 -8 3 -21 -13z"/>
<path d="M5538 2631 c-8 -12 -18 -18 -23 -13 -5 4 -5 1 0 -7 6 -10 12 -9 28 8
12 11 18 23 15 26 -3 4 -12 -3 -20 -14z"/>
<path d="M3840 2634 c0 -6 -14 -24 -31 -42 l-31 -31 34 -21 c41 -25 53 -26 31
-2 -10 11 -21 17 -25 15 -15 -8 -8 19 13 49 12 16 18 32 15 35 -3 4 -6 2 -6
-3z"/>
<path d="M4137 2613 c-12 -11 -8 -51 6 -56 31 -11 63 32 36 49 -8 4 -9 0 -4
-15 5 -17 2 -21 -15 -21 -19 0 -21 4 -16 25 6 25 5 30 -7 18z"/>
<path d="M5850 2596 c0 -19 5 -26 20 -26 16 0 18 4 11 22 -12 32 -31 34 -31 4z"/>
<path d="M2510 2584 c0 -8 5 -12 10 -9 6 4 8 11 5 16 -9 14 -15 11 -15 -7z"/>
<path d="M3271 2564 c0 -11 3 -14 6 -6 3 7 2 16 -1 19 -3 4 -6 -2 -5 -13z"/>
<path d="M4800 2551 c0 -5 5 -13 10 -16 6 -3 10 -2 10 4 0 5 -4 13 -10 16 -5
3 -10 2 -10 -4z"/>
<path d="M2430 2535 c-14 -8 -20 -14 -14 -15 5 0 19 7 30 15 24 18 16 19 -16
0z"/>
<path d="M2536 2542 c-3 -6 -2 -13 3 -17 7 -4 7 -15 1 -33 -10 -25 -9 -26 5
-8 17 22 18 35 6 55 -5 8 -11 9 -15 3z"/>
<path d="M3253 2528 c-6 -7 -7 -22 -3 -33 6 -17 8 -16 14 9 8 33 3 42 -11 24z"/>
<path d="M2370 2510 c-8 -5 -10 -10 -5 -10 6 0 17 5 25 10 8 5 11 10 5 10 -5
0 -17 -5 -25 -10z"/>
<path d="M4076 2503 c-9 -22 16 -37 30 -18 17 22 26 18 19 -7 -5 -21 -5 -21 6
-5 14 24 -4 48 -23 29 -17 -17 -33 -15 -18 3 7 9 8 15 2 15 -5 0 -13 -8 -16
-17z"/>
<path d="M3312 2464 c-20 -20 -30 -32 -22 -28 25 14 42 13 36 -1 -3 -9 0 -12
9 -8 8 3 12 10 8 16 -3 6 -1 7 6 3 8 -6 9 -11 2 -20 -8 -9 -6 -18 8 -30 18
-17 19 -15 17 43 -1 72 -11 76 -64 25z"/>
<path d="M6540 2490 c-9 -6 -10 -10 -3 -10 6 0 15 5 18 10 8 12 4 12 -15 0z"/>
<path d="M6220 2480 c34 -11 60 -11 35 0 -11 5 -29 8 -40 8 -16 0 -15 -2 5 -8z"/>
<path d="M2496 2467 c3 -10 9 -15 12 -12 3 3 0 11 -7 18 -10 9 -11 8 -5 -6z"/>
<path d="M5473 2465 c0 -8 4 -12 9 -9 5 3 6 10 3 15 -9 13 -12 11 -12 -6z"/>
<path d="M2611 2418 c15 -29 23 -37 29 -28 4 7 3 24 -3 37 -8 17 -13 20 -19
11 -6 -10 -8 -8 -8 5 0 9 -5 17 -10 17 -6 0 -1 -19 11 -42z m23 -4 c3 -8 2
-12 -4 -9 -6 3 -10 10 -10 16 0 14 7 11 14 -7z"/>
<path d="M2535 2440 c-16 -4 -24 -8 -17 -9 8 -1 10 -6 6 -13 -6 -10 -5 -10 8
-1 8 7 17 11 19 9 2 -2 10 2 17 10 14 15 12 15 -33 4z"/>
<path d="M2740 2430 c-35 -37 -41 -53 -10 -23 19 18 32 34 29 36 -2 2 -11 -4
-19 -13z"/>
<path d="M4095 2443 c-34 -8 -41 -22 -19 -38 10 -8 26 -14 34 -15 12 0 12 2 1
9 -10 7 -11 13 -2 30 7 11 10 20 9 20 -2 -1 -12 -3 -23 -6z m-5 -23 c0 -5 -2
-10 -4 -10 -3 0 -8 5 -11 10 -3 6 -1 10 4 10 6 0 11 -4 11 -10z"/>
<path d="M5815 2440 c-3 -5 -1 -10 4 -10 6 0 11 5 11 10 0 6 -2 10 -4 10 -3 0
-8 -4 -11 -10z"/>
<path d="M3950 2411 c0 -38 -19 -52 -74 -54 -26 -1 -41 -6 -36 -11 12 -12 88
-15 125 -5 l32 9 -15 45 c-16 51 -32 59 -32 16z"/>
<path d="M4913 2423 c-13 -2 -23 -8 -23 -13 0 -5 14 -4 30 1 27 10 42 21 23
18 -5 -1 -18 -4 -30 -6z"/>
<path d="M3187 2413 c-28 -3 -37 -8 -33 -18 2 -7 8 -29 11 -48 7 -33 9 -35 58
-40 29 -2 61 -8 72 -12 16 -6 13 -1 -10 26 -69 77 -70 79 -55 89 8 6 11 9 5 8
-5 -1 -27 -3 -48 -5z"/>
<path d="M5210 2416 c0 -2 7 -7 16 -10 8 -3 12 -2 9 4 -6 10 -25 14 -25 6z"/>
<path d="M5774 2378 l-19 -23 23 19 c12 11 22 21 22 23 0 8 -8 2 -26 -19z"/>
<path d="M4050 2344 c0 -14 4 -23 10 -19 6 4 8 11 5 16 -4 5 2 6 12 2 16 -6
16 -5 4 10 -19 24 -31 21 -31 -9z"/>
<path d="M6580 2361 c0 -6 4 -13 10 -16 6 -3 7 1 4 9 -7 18 -14 21 -14 7z"/>
<path d="M5018 2353 c12 -2 30 -2 40 0 9 3 -1 5 -23 4 -22 0 -30 -2 -17 -4z"/>
<path d="M7490 2331 c0 -11 4 -22 9 -25 4 -3 6 6 3 19 -5 30 -12 33 -12 6z"/>
<path d="M3387 2319 c4 -13 8 -18 11 -10 2 7 -1 18 -6 23 -8 8 -9 4 -5 -13z"/>
<path d="M7186 2332 c-3 -5 1 -9 9 -9 8 0 12 4 9 9 -3 4 -7 8 -9 8 -2 0 -6 -4
-9 -8z"/>
<path d="M7046 2321 c-3 -4 6 -7 19 -7 14 0 22 2 19 5 -8 8 -34 10 -38 2z"/>
<path d="M6935 2310 c-3 -6 1 -7 9 -4 18 7 21 14 7 14 -6 0 -13 -4 -16 -10z"/>
<path d="M3978 2293 c7 -3 16 -2 19 1 4 3 -2 6 -13 5 -11 0 -14 -3 -6 -6z"/>
<path d="M1923 2273 c37 -2 97 -2 135 0 37 2 6 3 -68 3 -74 0 -105 -1 -67 -3z"/>
<path d="M3571 2267 c-8 -11 -4 -13 20 -9 22 3 27 7 18 13 -19 12 -25 11 -38
-4z"/>
<path d="M2150 2266 c3 -2 105 -6 228 -8 123 -3 217 -1 211 3 -13 8 -447 13
-439 5z"/>
<path d="M2661 2255 c8 -7 189 -8 196 -1 4 3 -40 6 -97 6 -57 0 -101 -2 -99
-5z"/>
</g>
</svg>
