<?xml version="1.0" standalone="no"?>
<!DOCTYPE svg PUBLIC "-//W3C//DTD SVG 20010904//EN"
 "http://www.w3.org/TR/2001/REC-SVG-20010904/DTD/svg10.dtd">
<svg version="1.0" xmlns="http://www.w3.org/2000/svg"
 width="225.000000pt" height="225.000000pt" viewBox="0 0 225.000000 225.000000"
 preserveAspectRatio="xMidYMid meet">

<g transform="translate(0.000000,225.000000) scale(0.100000,-0.100000)"
fill="#000000" stroke="none">
<path d="M765 2010 c-4 -6 3 -10 14 -10 25 0 27 6 6 13 -8 4 -17 2 -20 -3z"/>
<path d="M1677 2003 c-3 -5 0 -17 4 -28 9 -19 9 -19 5 2 -2 14 2 23 13 26 14
4 14 5 -1 6 -9 0 -19 -2 -21 -6z"/>
<path d="M584 1978 l-19 -23 23 19 c21 18 27 26 19 26 -2 0 -12 -10 -23 -22z"/>
<path d="M1540 1965 c-10 -12 -10 -15 2 -15 8 0 15 7 15 15 0 8 -1 15 -2 15
-2 0 -8 -7 -15 -15z"/>
<path d="M1506 1947 c3 -10 9 -15 12 -12 3 3 0 11 -7 18 -10 9 -11 8 -5 -6z"/>
<path d="M1720 1945 c-11 -13 -10 -14 4 -9 9 3 16 10 16 15 0 13 -6 11 -20 -6z"/>
<path d="M491 1941 c-10 -6 -9 -10 3 -14 8 -3 18 -2 21 3 8 13 -9 20 -24 11z"/>
<path d="M541 1929 c-13 -11 -22 -22 -19 -24 2 -3 15 6 28 20 28 30 24 32 -9
4z"/>
<path d="M1478 1933 c7 -3 16 -2 19 1 4 3 -2 6 -13 5 -11 0 -14 -3 -6 -6z"/>
<path d="M1562 1909 c2 -7 -2 -13 -9 -14 -6 0 -15 -4 -20 -9 -5 -5 -3 -6 5 -2
6 4 12 2 12 -3 0 -6 4 -11 9 -11 12 0 21 39 10 46 -5 3 -8 0 -7 -7z"/>
<path d="M1645 1910 c-16 -7 -17 -9 -3 -9 9 -1 20 4 23 9 7 11 7 11 -20 0z"/>
<path d="M1715 1880 c3 -5 8 -10 11 -10 2 0 4 5 4 10 0 6 -5 10 -11 10 -5 0
-7 -4 -4 -10z"/>
<path d="M700 1870 c0 -5 7 -7 15 -4 8 4 15 8 15 10 0 2 -7 4 -15 4 -8 0 -15
-4 -15 -10z"/>
<path d="M1585 1850 c-3 -5 1 -10 10 -10 9 0 13 5 10 10 -3 6 -8 10 -10 10 -2
0 -7 -4 -10 -10z"/>
<path d="M536 1834 c-5 -14 -4 -15 9 -4 17 14 19 20 6 20 -5 0 -12 -7 -15 -16z"/>
<path d="M732 1753 c6 -8 15 -12 20 -11 15 5 5 22 -14 23 -14 1 -15 -1 -6 -12z"/>
<path d="M1666 1727 c3 -10 9 -15 12 -12 3 3 0 11 -7 18 -10 9 -11 8 -5 -6z"/>
<path d="M550 1718 c0 -4 4 -8 9 -8 6 0 12 4 15 8 3 5 -1 9 -9 9 -8 0 -15 -4
-15 -9z"/>
<path d="M590 1721 c0 -5 7 -11 15 -15 8 -3 15 -1 15 3 0 5 -7 11 -15 15 -8 3
-15 1 -15 -3z"/>
<path d="M692 1661 c7 -9 13 -18 15 -20 1 -2 1 5 0 16 0 11 -7 20 -14 20 -10
0 -10 -4 -1 -16z"/>
<path d="M515 1630 c-3 -5 -1 -10 4 -10 6 0 11 5 11 10 0 6 -2 10 -4 10 -3 0
-8 -4 -11 -10z"/>
<path d="M1640 1620 c0 -5 4 -10 9 -10 6 0 13 5 16 10 3 6 -1 10 -9 10 -9 0
-16 -4 -16 -10z"/>
<path d="M1556 1609 c3 -6 0 -16 -7 -21 -12 -8 -11 -9 1 -5 18 4 27 37 10 37
-6 0 -8 -5 -4 -11z"/>
<path d="M646 1602 c-3 -5 1 -9 9 -9 8 0 12 4 9 9 -3 4 -7 8 -9 8 -2 0 -6 -4
-9 -8z"/>
<path d="M1180 1601 c0 -5 5 -13 10 -16 6 -3 10 -2 10 4 0 5 -4 13 -10 16 -5
3 -10 2 -10 -4z"/>
<path d="M1200 1540 c0 -17 -5 -30 -12 -30 -8 -1 -6 -6 5 -14 11 -8 15 -21 11
-32 -3 -11 10 -1 30 21 38 43 45 58 21 49 -8 -4 -17 1 -21 9 -3 9 -12 18 -20
21 -10 4 -14 -3 -14 -24z"/>
<path d="M1593 1533 c1 -17 4 -19 14 -11 15 12 18 22 4 14 -5 -4 -11 0 -14 6
-3 7 -4 3 -4 -9z"/>
<path d="M1340 1480 c-7 -13 -9 -33 -4 -48 7 -25 8 -23 14 18 9 53 6 60 -10
30z"/>
<path d="M610 1476 c0 -2 7 -6 15 -10 8 -3 15 -1 15 4 0 6 -7 10 -15 10 -8 0
-15 -2 -15 -4z"/>
<path d="M1606 1471 c-19 -7 -19 -8 2 -13 12 -4 20 -2 17 2 -3 5 3 11 12 13
12 3 13 5 3 5 -8 0 -24 -3 -34 -7z"/>
<path d="M1652 1464 c-14 -16 -5 -18 17 -5 7 5 9 11 5 14 -5 3 -15 -1 -22 -9z"/>
<path d="M1155 1452 c3 -9 3 -14 0 -10 -8 8 -97 -80 -91 -91 3 -5 15 -11 26
-14 17 -4 27 4 50 41 16 26 30 53 30 60 0 7 5 10 10 7 6 -3 10 0 10 7 0 8 -9
14 -21 15 -15 1 -19 -2 -14 -15z"/>
<path d="M1688 1451 c-7 -11 -18 -17 -27 -13 -13 5 -13 3 2 -12 9 -10 14 -22
11 -28 -4 -7 -2 -8 4 -4 6 4 9 13 5 21 -3 8 -1 15 5 15 6 0 12 -6 15 -12 2 -7
4 2 3 19 -1 38 -2 39 -18 14z"/>
<path d="M616 1402 c-4 -13 -5 -26 -2 -29 3 -4 6 2 6 13 0 14 2 16 9 6 7 -11
9 -10 14 3 4 9 3 14 -2 10 -5 -3 -11 1 -14 7 -2 7 -7 3 -11 -10z"/>
<path d="M710 1411 c0 -6 4 -12 8 -15 5 -3 9 1 9 9 0 8 -4 15 -9 15 -4 0 -8
-4 -8 -9z"/>
<path d="M740 1403 c0 -5 12 -9 27 -10 19 -1 22 1 12 8 -17 11 -39 12 -39 2z"/>
<path d="M804 1403 c10 -11 36 -12 36 -2 0 5 -10 9 -22 9 -12 0 -18 -3 -14 -7z"/>
<path d="M1640 1400 c-9 -6 -10 -10 -3 -10 6 0 15 5 18 10 8 12 4 12 -15 0z"/>
<path d="M743 1363 c9 -2 23 -2 30 0 6 3 -1 5 -18 5 -16 0 -22 -2 -12 -5z"/>
<path d="M838 1363 c6 -2 18 -2 25 0 6 3 1 5 -13 5 -14 0 -19 -2 -12 -5z"/>
<path d="M1645 1361 c-3 -5 -1 -12 5 -16 5 -3 10 1 10 9 0 18 -6 21 -15 7z"/>
<path d="M1640 1251 c0 -6 4 -13 10 -16 6 -3 7 1 4 9 -7 18 -14 21 -14 7z"/>
<path d="M831 1234 c0 -11 3 -14 6 -6 3 7 2 16 -1 19 -3 4 -6 -2 -5 -13z"/>
<path d="M870 1221 c0 -16 -6 -32 -12 -34 -8 -4 -7 -6 3 -6 9 -1 20 6 23 15 9
24 7 54 -4 54 -5 0 -10 -13 -10 -29z"/>
<path d="M902 1238 c2 -6 10 -14 16 -16 7 -2 10 2 6 12 -7 18 -28 22 -22 4z"/>
<path d="M1080 1215 c0 -30 3 -35 23 -35 18 0 19 2 7 10 -13 9 -13 11 0 20 12
8 12 10 -5 10 -20 1 -20 1 -1 15 19 15 19 15 -2 15 -18 0 -22 -6 -22 -35z"/>
<path d="M1141 1213 c0 -21 3 -32 6 -25 4 10 8 10 21 0 14 -11 14 -9 0 8 -21
24 -23 40 -5 47 7 3 5 6 -5 6 -14 1 -18 -7 -17 -36z"/>
<path d="M982 1210 c0 -19 2 -27 5 -17 2 9 2 25 0 35 -3 9 -5 1 -5 -18z"/>
<path d="M1011 1238 c-1 -4 4 -19 10 -35 10 -27 11 -27 25 -9 8 11 14 27 14
35 -1 11 -5 8 -14 -7 l-12 -23 -12 23 c-6 13 -11 20 -11 16z"/>
<path d="M1341 1224 c0 -11 3 -14 6 -6 3 7 2 16 -1 19 -3 4 -6 -2 -5 -13z"/>
<path d="M944 1222 c4 -7 3 -12 -3 -12 -6 0 -8 -7 -5 -15 4 -8 10 -15 15 -15
13 0 11 38 -3 46 -7 4 -8 3 -4 -4z"/>
<path d="M1300 1211 c0 -5 7 -15 17 -22 15 -13 15 -12 4 9 -12 23 -21 28 -21
13z"/>
<path d="M550 1198 c0 -4 6 -8 14 -8 8 0 17 4 20 8 2 4 -4 8 -15 8 -10 0 -19
-4 -19 -8z"/>
<path d="M635 1200 c-3 -5 -1 -10 4 -10 6 0 11 5 11 10 0 6 -2 10 -4 10 -3 0
-8 -4 -11 -10z"/>
<path d="M900 1195 c0 -8 5 -15 10 -15 6 0 10 7 10 15 0 8 -4 15 -10 15 -5 0
-10 -7 -10 -15z"/>
<path d="M1240 1201 c0 -8 -8 -11 -20 -8 -11 3 -18 1 -14 -4 3 -5 11 -9 19 -9
16 0 30 18 21 27 -3 4 -6 1 -6 -6z"/>
<path d="M1270 1195 c0 -8 2 -15 4 -15 2 0 6 7 10 15 3 8 1 15 -4 15 -6 0 -10
-7 -10 -15z"/>
<path d="M1580 1160 c0 -5 5 -10 10 -10 6 0 10 5 10 10 0 6 -4 10 -10 10 -5 0
-10 -4 -10 -10z"/>
<path d="M859 1139 c-15 -15 -19 -28 -14 -47 11 -44 50 -56 80 -26 21 21 13
29 -15 14 -29 -16 -50 -6 -50 24 0 26 27 43 44 26 5 -5 17 -10 26 -10 11 1 9
6 -9 20 -29 25 -36 25 -62 -1z"/>
<path d="M1108 1140 c-15 -24 -28 -26 -28 -5 0 8 -4 15 -10 15 -11 0 -13 -24
-4 -69 4 -17 10 -28 15 -26 4 3 6 12 2 20 -8 22 6 18 27 -7 10 -13 22 -20 26
-16 4 5 0 16 -9 26 -21 23 -21 36 -2 52 8 7 15 16 15 21 0 16 -20 9 -32 -11z"/>
<path d="M1162 1113 c3 -45 5 -48 33 -50 27 -2 28 -2 8 7 -24 10 -31 30 -12
30 8 0 7 5 -1 16 -11 13 -10 16 8 21 32 8 27 23 -9 23 -30 0 -30 -1 -27 -47z"/>
<path d="M965 1104 c-16 -41 -14 -73 3 -48 13 19 42 25 48 9 4 -8 12 -15 20
-15 10 0 8 12 -8 50 -11 28 -26 50 -33 50 -7 0 -20 -21 -30 -46z m45 -5 c0 -5
-7 -9 -15 -9 -9 0 -12 6 -9 15 6 15 24 11 24 -6z"/>
<path d="M1660 1080 c0 -5 5 -10 10 -10 6 0 10 5 10 10 0 6 -4 10 -10 10 -5 0
-10 -4 -10 -10z"/>
<path d="M640 1066 c0 -9 5 -16 10 -16 6 0 10 4 10 9 0 6 -4 13 -10 16 -5 3
-10 -1 -10 -9z"/>
<path d="M575 1040 c4 -6 10 -8 15 -5 5 3 11 1 15 -5 3 -5 12 -10 18 -10 16 1
-23 30 -41 30 -7 0 -10 -5 -7 -10z"/>
<path d="M1103 1029 c-31 -11 -40 -54 -18 -79 21 -24 44 -25 71 -6 25 19 12
31 -15 14 -18 -11 -23 -10 -38 5 -14 14 -15 21 -6 35 11 18 25 19 57 6 14 -5
17 -4 12 4 -13 21 -40 30 -63 21z"/>
<path d="M782 1018 c-20 -20 -15 -66 9 -78 22 -12 49 -7 49 9 0 5 -9 7 -19 4
-28 -7 -46 30 -25 51 9 9 21 13 27 9 7 -4 18 -8 25 -9 10 -2 11 1 1 12 -14 17
-51 18 -67 2z"/>
<path d="M880 991 c0 -46 19 -66 55 -57 22 6 25 12 25 51 0 25 -4 45 -10 45
-5 0 -10 -18 -10 -41 0 -33 -3 -40 -17 -37 -13 2 -19 14 -21 41 -4 49 -22 48
-22 -2z"/>
<path d="M990 980 c0 -27 5 -50 10 -50 6 0 10 8 10 19 0 10 9 21 20 24 14 3
20 14 20 31 0 22 -4 26 -30 26 -29 0 -30 -1 -30 -50z m40 26 c0 -8 -4 -18 -10
-21 -5 -3 -10 3 -10 14 0 12 5 21 10 21 6 0 10 -6 10 -14z"/>
<path d="M1199 984 c-22 -48 -18 -71 5 -38 13 17 18 17 36 6 12 -7 24 -12 26
-9 7 6 -29 87 -38 87 -5 0 -18 -21 -29 -46z m41 -5 c0 -5 -4 -9 -10 -9 -5 0
-10 7 -10 16 0 8 5 12 10 9 6 -3 10 -10 10 -16z"/>
<path d="M1595 1010 c3 -5 8 -10 11 -10 2 0 4 5 4 10 0 6 -5 10 -11 10 -5 0
-7 -4 -4 -10z"/>
<path d="M1435 990 c-3 -5 -1 -10 4 -10 6 0 11 5 11 10 0 6 -2 10 -4 10 -3 0
-8 -4 -11 -10z"/>
<path d="M564 965 c-16 -13 -16 -14 -1 -9 9 3 24 1 32 -6 19 -16 28 -9 19 14
-8 20 -24 20 -50 1z"/>
<path d="M1430 950 c0 -5 5 -10 10 -10 6 0 10 5 10 10 0 6 -4 10 -10 10 -5 0
-10 -4 -10 -10z"/>
<path d="M550 901 c0 -6 4 -13 10 -16 6 -3 7 1 4 9 -7 18 -14 21 -14 7z"/>
<path d="M691 894 c0 -11 3 -14 6 -6 3 7 2 16 -1 19 -3 4 -6 -2 -5 -13z"/>
<path d="M980 898 c0 -7 -3 -30 -6 -50 -8 -47 9 -51 23 -5 l10 32 7 -32 c4
-18 13 -33 21 -33 7 0 16 15 20 33 7 31 8 31 14 8 4 -14 12 -26 19 -29 12 -4
11 12 -5 71 -7 28 -31 19 -39 -15 l-7 -33 -14 33 c-13 31 -43 45 -43 20z"/>
<path d="M1120 865 c0 -25 5 -45 10 -45 6 0 10 20 10 45 0 25 -4 45 -10 45 -5
0 -10 -20 -10 -45z"/>
<path d="M1175 886 c14 -20 14 -28 3 -45 -7 -11 -9 -24 -4 -28 4 -4 12 0 18
10 9 18 11 18 29 1 25 -23 37 -10 14 16 -17 18 -17 21 -1 45 13 20 14 25 2 25
-7 0 -17 -8 -21 -17 -6 -17 -7 -17 -19 0 -21 27 -39 21 -21 -7z"/>
<path d="M1570 900 c0 -5 4 -10 9 -10 6 0 13 5 16 10 3 6 -1 10 -9 10 -9 0
-16 -4 -16 -10z"/>
<path d="M595 830 c-3 -5 -1 -10 4 -10 6 0 11 5 11 10 0 6 -2 10 -4 10 -3 0
-8 -4 -11 -10z"/>
<path d="M580 800 c-8 -5 -10 -10 -5 -10 6 0 17 5 25 10 8 5 11 10 5 10 -5 0
-17 -5 -25 -10z"/>
<path d="M1630 799 c0 -5 5 -7 10 -4 6 3 10 8 10 11 0 2 -4 4 -10 4 -5 0 -10
-5 -10 -11z"/>
<path d="M560 759 c0 -5 5 -7 10 -4 6 3 10 8 10 11 0 2 -4 4 -10 4 -5 0 -10
-5 -10 -11z"/>
<path d="M1611 761 c-8 -5 -9 -11 -3 -15 5 -3 12 1 16 9 6 17 6 18 -13 6z"/>
<path d="M660 730 c-8 -5 -12 -12 -9 -15 4 -3 12 1 19 10 14 17 11 19 -10 5z"/>
<path d="M1600 641 c0 -6 4 -13 10 -16 6 -3 7 1 4 9 -7 18 -14 21 -14 7z"/>
<path d="M620 632 c0 -5 7 -9 15 -9 8 0 12 4 9 9 -3 4 -9 8 -15 8 -5 0 -9 -4
-9 -8z"/>
<path d="M1027 634 c-3 -3 5 -16 19 -29 17 -16 33 -21 57 -19 17 3 53 6 78 8
58 5 96 23 80 39 -7 7 -18 7 -36 -1 -13 -6 -31 -9 -38 -6 -8 3 -20 -2 -27 -11
-17 -20 -32 -19 -63 5 -25 20 -58 26 -70 14z"/>
<path d="M640 600 c-12 -8 -11 -10 8 -10 12 0 22 5 22 10 0 13 -11 13 -30 0z"/>
<path d="M1620 571 c0 -6 4 -13 10 -16 6 -3 7 1 4 9 -7 18 -14 21 -14 7z"/>
<path d="M1140 535 c-2 -32 -4 -35 -7 -12 -8 50 -23 28 -25 -35 l-2 -63 -6 70
-6 70 -4 -70 -3 -70 -10 70 -11 70 -12 -70 c-12 -67 -13 -67 -9 -15 3 36 1 47
-4 30 -13 -41 -23 -106 -16 -98 4 4 14 0 23 -9 23 -23 145 -14 172 12 26 27
42 106 23 123 -10 10 -13 9 -14 -5 0 -16 -1 -16 -9 2 -8 19 -9 18 -11 -5 -1
-21 -3 -19 -9 10 l-7 35 -2 -35 c-1 -25 -4 -31 -10 -21 -5 8 -7 20 -4 28 3 7
0 13 -6 13 -6 0 -12 -15 -12 -32 -2 -32 -2 -32 -9 7 l-7 40 -3 -40z m37 -67
c-3 -7 -5 -2 -5 12 0 14 2 19 5 13 2 -7 2 -19 0 -25z m-110 -40 c-2 -13 -4 -5
-4 17 -1 22 1 32 4 23 2 -10 2 -28 0 -40z m60 20 c-3 -8 -6 -5 -6 6 -1 11 2
17 5 13 3 -3 4 -12 1 -19z"/>
<path d="M1021 514 c0 -11 3 -14 6 -6 3 7 2 16 -1 19 -3 4 -6 -2 -5 -13z"/>
<path d="M1610 520 c-13 -8 -12 -10 3 -10 9 0 17 5 17 10 0 12 -1 12 -20 0z"/>
<path d="M596 484 c-6 -15 -4 -15 11 -3 10 7 20 15 22 16 2 2 -3 3 -11 3 -9 0
-19 -7 -22 -16z"/>
<path d="M677 459 c7 -7 15 -10 18 -7 3 3 -2 9 -12 12 -14 6 -15 5 -6 -5z"/>
<path d="M590 433 c0 -21 3 -24 9 -14 5 8 7 20 4 28 -8 21 -13 15 -13 -14z"/>
<path d="M617 449 c9 -9 10 -16 2 -26 -9 -10 -8 -13 5 -13 22 0 21 36 -1 45
-14 5 -15 4 -6 -6z"/>
<path d="M1470 450 c-9 -6 -10 -10 -3 -10 6 0 15 5 18 10 8 12 4 12 -15 0z"/>
<path d="M740 440 c8 -5 20 -10 25 -10 6 0 3 5 -5 10 -8 5 -19 10 -25 10 -5 0
-3 -5 5 -10z"/>
<path d="M1490 430 c-8 -5 -10 -10 -5 -10 6 0 17 5 25 10 8 5 11 10 5 10 -5 0
-17 -5 -25 -10z"/>
<path d="M718 413 c7 -3 16 -2 19 1 4 3 -2 6 -13 5 -11 0 -14 -3 -6 -6z"/>
<path d="M758 403 c7 -3 16 -2 19 1 4 3 -2 6 -13 5 -11 0 -14 -3 -6 -6z"/>
<path d="M658 388 c-4 -10 -1 -19 9 -22 18 -7 33 1 32 17 0 9 -2 9 -6 0 -7
-19 -21 -16 -25 5 -3 15 -4 16 -10 0z"/>
<path d="M1103 367 c0 -7 9 -14 20 -14 11 -1 18 -1 16 0 -2 2 -11 8 -20 15
-12 9 -16 9 -16 -1z"/>
<path d="M1490 372 c0 -16 32 -24 44 -11 8 9 8 10 -2 5 -7 -4 -19 -2 -27 4 -9
7 -15 8 -15 2z"/>
<path d="M608 354 c5 -9 7 -25 5 -35 -3 -11 0 -19 6 -19 6 0 11 7 11 15 0 23
19 18 30 -7 5 -14 9 -17 10 -8 1 13 2 13 13 0 7 -9 22 -16 35 -17 25 -2 30 12
7 21 -8 3 -15 1 -15 -5 0 -5 -10 0 -22 11 -13 11 -33 23 -45 26 -13 4 -23 12
-23 20 0 8 -5 14 -10 14 -7 0 -8 -6 -2 -16z"/>
<path d="M998 323 c7 -3 16 -2 19 1 4 3 -2 6 -13 5 -11 0 -14 -3 -6 -6z"/>
<path d="M1273 323 c9 -2 23 -2 30 0 6 3 -1 5 -18 5 -16 0 -22 -2 -12 -5z"/>
<path d="M916 283 c-3 -7 0 -15 6 -19 19 -12 221 -23 311 -17 78 5 88 8 85 24
-3 17 -18 19 -200 21 -148 2 -199 0 -202 -9z"/>
<path d="M1410 269 c0 -5 5 -7 10 -4 6 3 10 8 10 11 0 2 -4 4 -10 4 -5 0 -10
-5 -10 -11z"/>
</g>
</svg>
